<?xml version="1.0" encoding="utf-8"?>
<!-- Generator: Adobe Illustrator 27.0.1, SVG Export Plug-In . SVG Version: 6.00 Build 0)  -->
<svg version="1.1" id="_圖層_2" xmlns="http://www.w3.org/2000/svg" xmlns:xlink="http://www.w3.org/1999/xlink" x="0px" y="0px"
	 viewBox="0 0 1274 490" style="enable-background:new 0 0 1274 490;" xml:space="preserve">
<style type="text/css">
	.st0{fill:#199AD9;}
	.st1{fill:#FFFFFF;}
	.st2{fill:none;stroke:#199AD9;stroke-width:14;stroke-linecap:round;stroke-linejoin:round;}
	.st3{fill:none;stroke:#FFFFFF;stroke-linecap:round;stroke-linejoin:round;}
	.st4{fill:none;stroke:#199AD9;stroke-width:11;stroke-linecap:round;stroke-linejoin:round;stroke-miterlimit:10;}
	.st5{fill:none;stroke:#199AD9;stroke-width:6;stroke-linecap:round;stroke-linejoin:round;}
	.st6{fill-rule:evenodd;clip-rule:evenodd;fill:#FFFFFF;}
	.st7{fill:#BBD50F;}
	.st8{fill:#F0A226;}
	.st9{fill:none;stroke:#F1990F;stroke-width:15.4909;stroke-linecap:round;stroke-linejoin:round;}
	.st10{fill:none;stroke:#F1990F;stroke-width:4.426;stroke-linecap:round;stroke-linejoin:round;}
	.st11{fill:#27BAB8;}
	.st12{fill:#F1990F;}
	.st13{fill:none;stroke:#FFFFFF;stroke-width:5.5325;stroke-linecap:round;stroke-linejoin:round;}
</style>
<g>
	<g>
		
			<image style="overflow:visible;opacity:0.8;" width="940" height="331" xlink:href="2453EBFF.png"  transform="matrix(1 0 0 1 -1.574803e-04 -6.056935e-05)">
		</image>
		<g>
			<g>
				<g>
					<polygon class="st0" points="84.8,253 877.4,181.2 874.5,103.7 25.4,142.5 					"/>
				</g>
				<g>
					<g>
						<g>
							<path class="st0" d="M757.2,178c-2.7,0-5.1-2-5.5-4.8l-0.2-1.5c-0.1-0.7,0-1.3,0.1-2c-1.1-9.2-2.3-18.4-3.4-27.7l-0.7-5.4
								c-0.1-0.8,0-1.5,0.2-2.3c1.1-3.6,3.8-5.6,8.2-6.2c7.1-0.9,14.3-1.8,21.4-2.6l3.5-0.4l-0.2-1.5c-2.1,0-4.3,0-6.5-0.2
								c-9.2-0.5-16.1-5-20.1-13c-2.7-5.5-4-11.6-3.9-18.1c0.1-2.7,1.6-7.3,5.6-8.5c6.4-1.9,12.3-2.4,18.1-1.6
								c4,0.5,7.6,1.9,10.7,4.1c2.1-2.4,4.7-4.4,7.8-5.8c6.1-2.9,12.4-3.4,17.8-3.5c4.4-0.1,6.7,1.8,7.9,3.6
								c0.9-2.8,3.2-4.9,6.3-5.3c1.1-0.1,2.3-0.3,3.4-0.5c3-0.4,6.1-0.9,9.4-1c5.9-0.1,11,1.3,15.1,4.2c1-1.2,2.1-2.3,3.5-3.3
								c7.2-5.4,15.5-6.1,23.5-6c3.7,0,6.8,3.5,7.3,6.6l0.2,1.5c0.6,3.8,1.3,7.7,1.3,11.7c0.1,6.1-1.9,11.6-5.6,15.9
								c-3.9,4.4-9.1,7.3-15.6,8.6l-1.7,0.3l0.2,1.5l4.6-0.6c6.6-0.8,13.2-1.6,19.8-2.4c6.5-0.8,10.1,2,10.9,8.4
								c0.3,2.6,0.6,5.2,0.9,7.9c0.9,7.2,1.8,14.6,2.7,21.9c0.5,3.9-0.7,7.1-3.6,9.6c-0.8,0.7-1.8,1.2-2.9,1.3l-57.2,7
								c-1.7,0.2-3.3-0.4-4.5-1.5c-0.1-0.1-0.3-0.2-0.4-0.3c-0.8-0.7-2-1.6-2.8-3.2c-1.1-2.2-1.1-4.8,0.2-7c0.9-1.7,2.3-3,4.1-3.8
								l-20.4,2.5c3.4,0.6,5.2,2.7,6,4.1c1,1.7,2.8,6.3-2.4,10.8c-0.8,0.7-1.9,1.2-3,1.3l-59.4,7.3C757.7,178,757.4,178,757.2,178z
								 M897.1,155.4L897.1,155.4L897.1,155.4z M797.6,121.6l0.2,1.3l50.4-6.2l-0.2-1.3c-1.7,0.1-3.4,0.1-5.2,0.1
								c-7.4-0.2-13.4-2.9-17.9-8.1c-1.9-2.1-3.3-4.6-4.5-7.3c-1.5,11.1-9.6,19.2-21.6,21.2C798.5,121.4,798,121.5,797.6,121.6z
								 M767.6,98.7c0.1,0.3,0.1,0.6,0.2,1c0.3-0.4,0.7-0.7,1.1-1C768.5,98.7,768.1,98.7,767.6,98.7z M802.9,94.5
								c0.3,0.1,0.5,0.3,0.8,0.4c0.2,0.1,0.3,0.2,0.5,0.3c0-0.3,0-0.7,0-1C803.7,94.3,803.3,94.4,802.9,94.5z M834.9,90.5
								c0,0.3,0.1,0.6,0.2,0.8c0.3-0.3,0.5-0.6,0.9-0.9C835.6,90.4,835.2,90.5,834.9,90.5z M870.2,86.2c0.4,0.2,0.8,0.4,1.2,0.7
								c0-0.3,0-0.6,0-1C871,86,870.6,86.1,870.2,86.2z"/>
						</g>
						<g>
							<path class="st1" d="M897.1,155.4c-19.1,2.3-38.1,4.7-57.2,7c-0.7-0.7-1.6-1.3-2.1-2.1c-0.8-1.6,0.7-3.5,3-3.7
								c16.6-1.9,33.1-4,49.7-6c0.7-0.1,1.4-0.2,2.2-0.3c-0.4-3.7-0.9-7.1-1.3-10.5c-43.5,5.3-86.8,10.6-130.2,15.9
								c0.4,3.5,0.8,6.9,1.3,10.5c0.8-0.1,1.5-0.2,2.3-0.3c16.4-2,32.7-4,49.1-6c1.7-0.2,3.2-0.1,4.1,1.4c0.9,1.6-0.1,2.9-1.3,3.9
								c-19.8,2.4-39.6,4.8-59.4,7.3c-0.1-0.5-0.1-1-0.2-1.5c0.1-0.3,0.3-0.5,0.3-0.8c-1.4-11.4-2.8-22.9-4.2-34.3
								c0.5-1.8,2.1-2.1,3.6-2.3c9.5-1.2,18.9-2.3,28.4-3.5c0.7-0.1,1.3-0.2,2-0.2c-0.5-4.2-1-8.1-1.4-11.8c-3.8-0.1-7.5,0-11.1-0.2
								c-7-0.4-12.3-3.6-15.4-10c-2.4-4.9-3.4-10.1-3.3-15.5c0-1.1,0.8-3,1.6-3.3c5.1-1.5,10.4-2.2,15.8-1.5
								c5.1,0.7,9.3,3.1,12.6,7.2c1.8-4.5,4.8-7.5,9-9.5c4.9-2.3,10.2-2.9,15.5-3c1.9,0,3.2,0.5,3.6,2.2c1.1,4.2,1.5,8.4,1.3,12.7
								c-0.6,10.5-7.6,16.8-17.2,18.5c-2.2,0.4-4.3,0.9-6.4,1.3c0.5,4,1,7.9,1.4,11.8c20.5-2.5,40.9-5,61.3-7.5c-0.5-4-1-8-1.5-11.9
								c-3.4,0.1-6.6,0.4-9.8,0.3c-5.4-0.2-10.2-1.9-13.9-6.2c-2.8-3.2-4.2-7-5.1-10.9c-0.7-3.2-0.7-6.5-0.8-9.7
								c0-1,0.4-2.2,1.8-2.4c4.1-0.5,8.1-1.3,12.2-1.4c6.3-0.1,11.9,1.9,15.4,6.9c2.1-2.3,3.9-5.2,6.4-7.1c5.9-4.4,13-4.9,20.1-4.8
								c0.7,0,1.8,1.2,1.9,2c0.7,4.1,1.5,8.2,1.5,12.3c0.1,4.4-1.2,8.7-4.2,12.2c-3.3,3.8-7.7,5.8-12.6,6.8
								c-2.3,0.5-4.5,0.9-6.8,1.4c0.5,4,1,7.9,1.5,12c0.7-0.1,1.4-0.2,2.1-0.3c9.3-1.1,18.6-2.3,27.9-3.4c3.4-0.4,4.4,0.3,4.8,3.6
								c1.2,9.9,2.4,19.9,3.7,29.8C899.1,152.8,898.6,154.1,897.1,155.4z M889.5,123.3c-43.5,5.3-86.8,10.6-130.2,15.9
								c0.4,3.5,0.8,6.9,1.3,10.3c43.5-5.3,86.8-10.6,130.2-15.9C890.3,130.2,889.9,126.8,889.5,123.3z M876.3,80.2
								c-5.7-0.2-10.9,0.7-15.1,4.6c-3.8,3.5-5.3,10.4-3.5,14.9c0.6-0.6,1.2-1.1,1.7-1.7c1.5-1.8,2.9-3.7,4.4-5.5
								c1.1-1.4,3.4-2,4.5-1.1c1.3,1.1,1.3,2.7,0,4.4c-1.6,2.1-3.3,4.1-5,6.1c0.1,0.2,0.2,0.3,0.3,0.5c1.2-0.3,2.5-0.5,3.6-0.9
								c3.2-1.2,6-2.8,7.7-5.9C877.7,90.6,877.1,85.5,876.3,80.2z M829.1,85.7c-0.3,5.2,0.8,10,4,14.1c3,3.8,10,5.8,13.5,4.1
								c-2.3-1.7-4.5-3.3-6.6-5c-1.6-1.3-1.8-2.6-0.8-4.1c0.6-0.9,3.1-1,4.2-0.2c2.3,1.8,4.7,3.7,7,5.5c0.3,0.3,0.8,0.4,1.3,0.7
								C850.2,87.7,844.1,82.9,829.1,85.7z M761.7,93.8c-0.1,14.8,9.7,20.8,17.6,18.3c-1.3-0.9-2.3-1.5-3.3-2.2
								c-1.3-1.1-2.7-2.1-3.8-3.4c-0.5-0.6-0.8-1.9-0.5-2.7c0.2-0.6,1.3-1.3,2.1-1.4c1-0.1,2.2,0.2,3,0.8c2.3,1.6,4.4,3.4,6.6,5.1
								c0.3,0.3,0.7,0.4,1.4,0.8c-0.6-2.4-0.9-4.4-1.5-6.4c-1.3-4.3-3.8-7.5-8.4-8.8C770.4,92.7,766.1,93.1,761.7,93.8z
								 M790.1,107.7c0.2,0.1,0.3,0.1,0.5,0.2c0.4-0.4,0.8-0.9,1.1-1.4c1.6-2.1,3.3-4.2,4.9-6.3c0.8-1,3-1.3,4-0.7
								c1.5,1,1.4,2.3,0.8,3.7c-0.2,0.6-0.7,1.1-1.2,1.7c-1.4,1.8-2.8,3.5-4.2,5.3c1.4,0,2.6-0.2,3.7-0.6c2.8-1.1,5.6-2.4,7.2-5
								c3.3-5.2,3-10.9,1.6-16.8c-3,0.6-5.8,0.9-8.6,1.6c-2.6,0.7-5.1,1.9-6.9,4.1C789.7,97.8,789.7,102.7,790.1,107.7z"/>
						</g>
					</g>
					<g>
						<g>
							<path class="st0" d="M208.1,83.2l7.1,17.9c-11.7,3.7-24.2,7-37.5,10c2.6,5.9,6.1,11.4,10.4,16.4l-11.8,7.2
								c3.1-0.4,6.1-0.7,9-0.9c1.5-0.1,3-0.2,4.4-0.2c8.4,0,15,2.4,19.6,7.1c4,3.7,6.8,9.5,8.5,17.2c3.3-0.2,6.5-0.3,9.8-0.4
								l-0.1,17.9c-2.9,0.1-5.7,0.1-8.3,0.3c-0.6,7-2.6,12.1-6,15.3c-5.1,5.3-13,9-23.7,10.9c1.3,6.4,12.8,70.6,14.1,76.9L180,283
								c-1.6-7.5-13.3-72.6-14.6-79.4c-9.9,0-18.6-0.7-26.3-1.9l0.8-18.1c7.3,1.4,14.6,2.1,21.8,2.1c-0.5-2.4-1-4.8-1.4-7.1
								c-9.6,0.6-19.1,1.4-28.5,2.2l0.1-17.9c8.4-0.7,16.7-1.4,24.9-2c-0.4-1.8-0.7-3.4-1-5c-5.6,1.2-11.4,2.5-17.6,3.9l-4.4-17.4
								c2.5-0.7,5.1-1.4,7.7-2c-4.3-4.3-7.8-9.1-10.5-14.5l16.4-8.6l0.1,0c2.7,5.2,6.4,10,11,14.4l-12.6,7.7
								c8.1-1.7,16.3-3.1,24.6-4.1c-4.1-4.9-7.5-10.5-10.3-16.9l11.6-6.1c-7.9,1.9-16,3.5-24.4,5c-4.3,0.9-8.7,1.7-13.2,2.4
								l-6.5-18.5C156.5,95.8,183.2,89.8,208.1,83.2 M181.1,159.5c4.9-0.3,9.9-0.6,14.7-0.8c-0.4-1.3-0.9-2.4-1.3-3.3
								c-1.9-2.4-4.9-3.6-9.1-3.6c-0.7,0-1.4,0-2.1,0.1c-1.2,0.1-2.4,0.2-3.7,0.3C180.1,154.6,180.6,157.1,181.1,159.5 M196.8,176.5
								c-4.2,0.3-8.2,0.5-12.2,0.8c0.4,2.2,0.8,4.3,1.3,6.3c3.4-0.9,6.3-2.2,8.6-3.9C195.5,178.8,196.3,177.8,196.8,176.5
								 M94.2,101.7c4.5,0,12.4,2.2,23.8,6.7c7.7,3.8,11.8,8.9,12.4,15.2c0.5,5.2-1.3,9.9-5.4,13.9c-4.9,5.1-8.3,8.7-10.2,10.9
								c-2.2,2.2-3.2,4-3.1,5.3c0.3,3.6,6.6,6.8,18.8,9.9l-7,17.2c-0.1,0-0.2,0-0.4,0c-10,0-20.1-3.9-30.1-11.7
								c-3.4-4.1-5.4-8.5-5.8-13.2c-0.4-4.7,2-9.7,7.4-14.8c2-2.3,5.1-5.5,9.5-9.8c1.6-1.5,2.3-2.8,2.2-3.8
								c-0.2-1.9-1.7-3.4-4.7-4.5c-4.5-1.4-9.3-3-14.5-4.7l6.9-16.6C94,101.7,94.1,101.7,94.2,101.7 M200,107.4l19.5,4.9
								c-3.2,7.8-5.9,15.6-8,23.4l-19.5-4.9C195,121.8,197.7,114,200,107.4 M227.7,157.4L227.7,157.4 M127.1,187.8l8.4,21.2
								c-9.6,5.8-20.8,10.4-33.4,13.8l-7.9-22.2C105.9,197.1,116.9,192.8,127.1,187.8 M208.1,72.2c-0.9,0-1.9,0.1-2.8,0.4
								C180.8,79,154.1,85,125.7,90.3c-3.2,0.6-5.9,2.5-7.5,5.3c-0.2,0.3-0.3,0.6-0.5,0.9c-10.8-4-18.1-5.9-23.6-5.9
								c-0.2,0-0.3,0-0.5,0c-4.4,0.1-8.3,2.7-9.9,6.8l-6.9,16.6c-1.2,2.8-1.1,6,0.1,8.8c1.3,2.8,3.6,4.9,6.5,5.9
								c1.9,0.7,3.9,1.3,5.7,1.9c-1,1.1-1.9,2-2.6,2.9c-7.6,7.4-11.1,15.3-10.4,23.4c0.6,7,3.4,13.5,8.3,19.4
								c0.5,0.6,1.1,1.1,1.7,1.6c4.9,3.8,9.8,6.8,14.8,9c-3.3,1.2-6.6,2.3-10,3.3c-2.9,0.9-5.3,2.9-6.6,5.6
								c-1.3,2.7-1.5,5.8-0.5,8.6l7.9,22.2c1.6,4.5,5.8,7.3,10.4,7.3c0.9,0,1.9-0.1,2.9-0.4c13.6-3.7,25.8-8.7,36.3-15
								c2-1.2,3.4-2.9,4.3-4.8c3.4,0.3,6.9,0.6,10.6,0.8c0.7,3.7,1.5,8.2,2.4,13.2c4,22.1,9.6,52.5,10.6,57.6
								c1.1,5.2,5.6,8.8,10.8,8.8c0.7,0,1.3-0.1,2-0.2l23.7-4.3c2.9-0.5,5.5-2.2,7.1-4.6c1.7-2.4,2.3-5.4,1.7-8.3
								c-0.6-3.1-3.9-21.1-7.1-38.5c-1.9-10.6-3.8-20.8-5.1-28.2c7.8-2.6,14-6.3,18.7-11.2c3.4-3.2,5.8-7.4,7.4-12.4
								c5.7-0.4,10.2-5.1,10.2-10.9l0.1-17.7c0-0.1,0-0.2,0-0.3c0-6.1-4.9-11-11-11h0c-0.1,0-0.2,0-0.3,0c-0.5,0-0.9,0-1.4,0
								c-1.1-2.8-2.4-5.3-3.8-7.5c0-0.1,0.1-0.2,0.1-0.4c2-7.3,4.5-14.7,7.5-22.1c1.2-3,1.1-6.3-0.4-9.1c-0.8-1.6-2-3-3.4-4
								c0.4-2.1,0.2-4.2-0.6-6.2l-7.1-17.9C216.6,74.9,212.5,72.2,208.1,72.2L208.1,72.2z"/>
						</g>
						<g>
							<path class="st1" d="M180,287c-1.9,0-3.5-1.3-3.9-3.2c-1-5.1-6.6-35.4-10.6-57.5c-1.5-8-2.7-14.8-3.4-18.8
								c-8.7-0.2-16.6-0.8-23.5-1.9l0.8,1.9c0.7,1.8,0,3.9-1.7,4.9c-9.9,6-21.5,10.8-34.5,14.3c-2,0.5-4.1-0.6-4.8-2.5l-7.9-22.2
								c-0.4-1-0.3-2.2,0.2-3.1c0.5-1,1.4-1.7,2.4-2c11.1-3.4,21.7-7.5,31.4-12.2c-0.3,0.1-0.6,0.1-1,0.1
								c-11,0.1-22.1-4.1-32.9-12.5c-0.2-0.2-0.4-0.4-0.6-0.6c-4-4.7-6.2-9.9-6.7-15.5c-0.5-5.9,2.3-12,8.5-17.9
								c2.1-2.3,5.3-5.6,9.5-9.9c0.3-0.3,0.6-0.6,0.7-0.8c-0.3-0.2-0.8-0.5-1.7-0.9c-4.5-1.4-9.3-3-14.4-4.7c-1-0.4-1.9-1.1-2.4-2.1
								c-0.5-1-0.5-2.2,0-3.2l6.9-16.6c0.6-1.5,2-2.4,3.6-2.5c5.1-0.1,13.4,2.2,25.6,7c0.1,0,0.2,0.1,0.3,0.1
								c2.5,1.2,4.7,2.6,6.6,4.1l-2.3-6.5c-0.4-1.1-0.3-2.3,0.3-3.3s1.6-1.7,2.7-1.9c28.5-5.4,55.4-11.4,80-17.9
								c2-0.5,4,0.5,4.7,2.4l7.1,17.9c0.4,1,0.4,2.2-0.1,3.2c-0.5,1-1.3,1.8-2.4,2.1c-1.4,0.4-2.8,0.9-4.3,1.3l8.4,2.1
								c1.1,0.3,2.1,1,2.6,2.1c0.5,1,0.6,2.2,0.1,3.3c-3.1,7.7-5.8,15.4-7.8,22.9c-0.3,1.1-1,2-1.9,2.5c3.3,3.6,5.8,8.5,7.4,14.5
								c2.2-0.1,4.4-0.2,6.6-0.2c1.1,0,2.1,0.4,2.9,1.1c0.8,0.8,1.2,1.8,1.2,2.9l-0.1,17.9c0,2.2-1.8,3.9-3.9,4
								c-1.6,0-3.3,0.1-4.9,0.1c-1,6.2-3.3,11-6.7,14.3c-5,5.2-12.3,8.9-21.8,11.2c1.2,6.7,3.7,20.3,6.3,34.4
								c3.2,17.4,6.4,35.5,7.1,38.6c0.2,1.1,0,2.1-0.6,3c-0.6,0.9-1.5,1.5-2.6,1.7l-23.7,4.3C180.5,287,180.2,287,180,287z
								 M143.3,198.3c6.6,0.9,14,1.3,22.2,1.3c1.9,0,3.6,1.4,3.9,3.3c0.4,2.3,2,11,4,22c3.4,18.8,7.9,43.4,9.8,53.5l15.8-2.9
								c-1.3-7-3.9-21.1-6.3-34.8c-3.1-17.2-6.4-35-7-38.2c-0.2-1.1,0-2.1,0.6-3c0.6-0.9,1.5-1.5,2.6-1.7c9.8-1.8,17-5,21.5-9.7
								c0.1-0.1,0.1-0.1,0.2-0.2c2.6-2.5,4.2-6.7,4.7-12.7c0.2-2,1.8-3.6,3.8-3.7c1.5-0.1,3-0.1,4.6-0.2l0-9.9
								c-1.9,0.1-3.7,0.2-5.6,0.3c-2,0.1-3.7-1.2-4.1-3.1c-1.5-6.9-4-11.9-7.3-15.1c0,0-0.1-0.1-0.1-0.1c-4.6-4.7-11.4-6.5-20.9-5.7
								c-2.9,0.2-5.9,0.6-8.9,0.9c-1.1,0.1-2.2-0.2-3-0.8c-0.6,0.8-1.6,1.3-2.6,1.5c-8.1,1-16.3,2.4-24.3,4
								c-0.8,0.2-1.6,0.1-2.3-0.2c-0.5,0.6-1.2,1-2,1.2c-1.3,0.3-2.6,0.6-3.8,1l2.5,9.8c4.8-1.1,9.4-2.1,13.8-3.1
								c2.2-0.5,4.3,0.9,4.7,3.1c0.3,1.6,0.7,3.3,1,5c0.2,1.1,0,2.3-0.7,3.2c-0.7,0.9-1.7,1.5-2.9,1.6c-7,0.5-14.1,1.1-21.2,1.7
								l0,9.9c8-0.7,16.1-1.3,24.2-1.8c2-0.1,3.9,1.3,4.2,3.3c0.4,2.2,0.8,4.5,1.3,6.9c0.2,1.2-0.1,2.4-0.8,3.4
								c-0.8,0.9-2,1.5-3.1,1.5c-6,0-12-0.5-18-1.4L143.3,198.3z M99.4,203.3l5.3,14.7c9.6-2.8,18.3-6.4,25.9-10.7l-5.6-14
								C116.9,197,108.3,200.4,99.4,203.3z M127.1,183.8c0.5,0,1,0.1,1.4,0.3c1,0.4,1.9,1.2,2.3,2.3l4.4,11.2l0.6-13
								c-1.2,0.1-2.4,0.2-3.6,0.3c-1.1,0.1-2.2-0.3-3.1-1c-0.8-0.8-1.3-1.8-1.3-3l0-0.5l-0.8,2c-0.3,0.7-0.8,1.3-1.4,1.7
								C126.2,183.9,126.6,183.8,127.1,183.8z M95.7,166.3c8.4,6.4,16.8,9.9,25,10.5l4.2-10.4c-11.7-3.3-16.9-7.1-17.3-12.2
								c-0.3-3.5,2.2-6.5,4.2-8.4c2-2.2,5.3-5.8,10.3-10.9c3.2-3.2,4.6-6.7,4.3-10.8c-0.4-4.8-3.7-8.7-10-11.9
								c-10.4-4.1-16.4-5.7-19.8-6.2l-4.2,10c3.6,1.2,7,2.3,10.3,3.3c0.1,0,0.2,0.1,0.2,0.1c5.6,2.1,7.1,5.5,7.3,7.9
								c0.3,3.4-2.5,6.1-3.4,7c-4.2,4.2-7.3,7.4-9.2,9.6c-0.1,0.1-0.1,0.2-0.2,0.2c-4.4,4.2-6.5,8.1-6.2,11.6
								C91.5,159.4,93,162.9,95.7,166.3z M115.7,153.5c0.6,0.7,3.3,3.1,14.3,5.9c0.5-0.3,1-0.4,1.6-0.5c0.8-0.1,1.5-0.1,2.3-0.2
								l-3.8-15.3c-0.5-2.1,0.7-4.2,2.8-4.8c0.5-0.1,1-0.3,1.5-0.4c-0.8-1-1.6-2.1-2.4-3.2c-1,1.9-2.4,3.7-4.1,5.4
								c-4.8,5-8.2,8.6-10.1,10.7c-0.1,0.1-0.1,0.1-0.2,0.2C116.4,152.4,115.9,153.1,115.7,153.5z M136.6,127.6
								c1.9,3.2,4.2,6.1,6.8,8.9c0.2-0.2,0.4-0.3,0.6-0.4l8.4-5.1c-2.3-2.6-4.4-5.4-6.2-8.3L136.6,127.6z M162.6,131.2
								c0,0.3,0,0.6,0,1c0,0.1,0,0.1,0,0.2c0.2,0,0.5-0.1,0.7-0.1C163.1,131.9,162.9,131.6,162.6,131.2z M165.6,120.2
								c2.2,4.4,4.7,8.3,7.6,11.9c0.3-0.3,0.6-0.6,1-0.9l7.9-4.8c-2.7-3.6-5.1-7.5-7.1-11.6c-0.3,0.4-0.7,0.7-1.2,1L165.6,120.2z
								 M197.2,127.9l11.6,2.9c1.5-5.2,3.3-10.5,5.4-15.8l-11.6-2.9C201,116.8,199.2,122.1,197.2,127.9z M154.1,120.2
								c1.9,2.8,4.2,5.5,6.7,8c-1.5-2.6-2.9-5.3-4.1-8.2c0-0.1-0.1-0.2-0.1-0.3C155.7,119.9,154.9,120.1,154.1,120.2z M183.4,113.9
								c1.9,3.5,4.1,6.8,6.7,9.9c1.5-4.6,3-8.8,4.3-12.6C190.8,112.1,187.2,113,183.4,113.9z M133.1,104.2l3.9,11
								c3.3-0.6,6.6-1.2,9.8-1.8c0,0,0,0,0,0c0,0,0,0,0,0c0,0,0,0,0,0c0,0,0,0,0,0c0,0,0,0,0,0c0,0,0,0,0,0c0,0,0,0,0,0
								c0,0,0,0,0.1,0c8.2-1.4,16.3-3.1,24.1-4.9c1.1-0.3,2.3,0,3.2,0.6c0.6-0.9,1.5-1.6,2.6-1.9c11.6-2.6,22.7-5.5,33.1-8.6
								L205.6,88C183.1,93.8,158.8,99.3,133.1,104.2z M185.9,187.6c-0.7,0-1.4-0.2-2.1-0.6c-0.9-0.6-1.6-1.5-1.8-2.5
								c-0.5-2.1-0.9-4.3-1.3-6.5c-0.2-1.1,0.1-2.3,0.8-3.2c0.7-0.9,1.8-1.5,2.9-1.5c4-0.2,8-0.5,12.2-0.8c1.4-0.1,2.7,0.5,3.5,1.6
								c0.8,1.1,1,2.5,0.5,3.8c-0.7,1.8-1.9,3.4-3.4,4.7c-0.1,0.1-0.2,0.1-0.3,0.2c-2.7,2-6.1,3.5-10,4.5
								C186.6,187.5,186.2,187.6,185.9,187.6z M181.1,163.5c-1.9,0-3.5-1.3-3.9-3.2l-1.5-7.3c-0.2-1.1,0-2.3,0.7-3.2
								c0.7-0.9,1.7-1.5,2.9-1.6l3.7-0.3c6.6-0.6,11.6,1.1,14.7,5c0.2,0.2,0.3,0.5,0.5,0.7c0.6,1.1,1.1,2.4,1.6,3.9
								c0.4,1.2,0.2,2.5-0.5,3.5c-0.7,1-1.9,1.7-3.1,1.7c-4.8,0.2-9.7,0.5-14.6,0.8C181.3,163.5,181.2,163.5,181.1,163.5z"/>
						</g>
						<g>
							<path class="st0" d="M93.9,101.7c4.5-0.1,12.5,2.1,24,6.7c7.7,3.8,11.8,8.9,12.4,15.2c0.5,5.2-1.3,9.9-5.4,13.9
								c-4.9,5.1-8.3,8.7-10.2,10.9c-2.2,2.2-3.2,4-3.1,5.3c0.3,3.6,6.6,6.8,18.8,9.9l-7,17.2c-10.1,0.1-20.3-3.8-30.4-11.7
								c-3.4-4.1-5.4-8.5-5.8-13.2c-0.4-4.7,2-9.7,7.4-14.8c2-2.3,5.1-5.5,9.5-9.8c1.6-1.5,2.3-2.8,2.2-3.8
								c-0.2-1.9-1.7-3.4-4.7-4.5c-4.5-1.4-9.3-3-14.5-4.7L93.9,101.7z M127.1,187.8l8.4,21.2c-9.6,5.8-20.8,10.4-33.4,13.8
								l-7.9-22.2C105.9,197.1,116.9,192.8,127.1,187.8z M208.1,83.2l7.1,17.9c-11.7,3.7-24.2,7-37.5,10c2.6,5.9,6.1,11.4,10.4,16.4
								l-11.8,7.2c3.1-0.4,6.1-0.7,9-0.9c10.6-0.9,18.6,1.4,24,6.9c4,3.7,6.8,9.5,8.5,17.2c3.3-0.2,6.5-0.3,9.8-0.4l-0.1,17.9
								c-2.9,0.1-5.7,0.1-8.3,0.3c-0.6,7-2.6,12.1-6,15.3c-5.1,5.3-13,9-23.7,10.9c1.3,6.4,12.8,70.6,14.1,76.9L180,283
								c-1.6-7.5-13.3-72.6-14.6-79.4c-9.9,0-18.6-0.7-26.3-1.9l0.8-18.1c7.3,1.4,14.6,2.1,21.8,2.1c-0.5-2.4-1-4.8-1.4-7.1
								c-9.6,0.6-19.1,1.4-28.5,2.2l0.1-17.9c8.4-0.7,16.7-1.4,24.9-2c-0.4-1.8-0.7-3.4-1-5c-5.6,1.2-11.4,2.5-17.6,3.9l-4.4-17.4
								c2.5-0.7,5.1-1.4,7.7-2c-4.3-4.3-7.8-9.1-10.5-14.5l16.4-8.6l0.1,0c2.7,5.2,6.4,10,11,14.4l-12.6,7.7
								c8.1-1.7,16.3-3.1,24.6-4.1c-4.1-4.9-7.5-10.5-10.3-16.9l11.6-6.1c-7.9,1.9-16,3.5-24.4,5c-4.3,0.9-8.7,1.7-13.2,2.4
								l-6.5-18.5C156.5,95.8,183.2,89.8,208.1,83.2z M179.6,152.2c0.5,2.4,1,4.9,1.5,7.3c4.9-0.3,9.9-0.6,14.7-0.8
								c-0.4-1.3-0.9-2.4-1.3-3.3c-2.2-2.8-6-4-11.2-3.5C182.1,152,180.9,152.1,179.6,152.2z M184.6,177.3c0.4,2.2,0.8,4.3,1.3,6.3
								c3.4-0.9,6.3-2.2,8.6-3.9c1-0.9,1.8-1.9,2.3-3.2C192.6,176.8,188.6,177,184.6,177.3z M200,107.4l19.5,4.9
								c-3.2,7.8-5.9,15.6-8,23.4l-19.5-4.9C195,121.8,197.7,114,200,107.4z"/>
						</g>
						<g>
							<path class="st1" d="M180,285.5c-1.2,0-2.2-0.8-2.4-2c-1-5-6.6-35.3-10.6-57.5c-1.6-8.9-3-16.3-3.6-20
								c-9.1-0.1-17.4-0.8-24.6-1.9c-1.3-0.2-2.2-1.3-2.1-2.6l0.8-18.1c0-0.2,0-0.4,0.1-0.6c-1.8,0.1-3.6,0.3-5.4,0.5
								c-0.7,0.1-1.4-0.2-1.9-0.7c-0.5-0.5-0.8-1.1-0.8-1.9l0-8.2l-3.7,9.2c-0.4,0.9-1.3,1.5-2.3,1.6c-10.7,0.1-21.4-4-32-12.2
								c-0.1-0.1-0.3-0.2-0.4-0.4c-3.8-4.5-5.9-9.4-6.4-14.6c-0.5-5.5,2.2-11.1,8-16.8c2-2.3,5.2-5.6,9.5-9.8
								c1.1-1.1,1.4-1.7,1.5-1.9c-0.1-0.8-1.2-1.6-3-2.3c-4.5-1.4-9.3-3-14.4-4.7c-0.7-0.2-1.2-0.7-1.5-1.3c-0.3-0.6-0.3-1.4,0-2
								l6.9-16.6c0.4-0.9,1.3-1.5,2.3-1.5c4.9-0.1,13,2.2,25,6.9c0.1,0,0.1,0.1,0.2,0.1c5.1,2.5,8.8,5.6,11.1,9.3l-4.8-13.5
								c-0.2-0.7-0.2-1.4,0.2-2.1c0.4-0.6,1-1.1,1.7-1.2c28.5-5.4,55.5-11.4,80.1-17.9c1.2-0.3,2.5,0.3,3,1.5l7.1,17.9
								c0.3,0.6,0.2,1.4-0.1,2c-0.3,0.6-0.8,1.1-1.5,1.3c-3.1,1-6.3,1.9-9.5,2.9l13.8,3.4c0.7,0.2,1.3,0.6,1.6,1.3
								c0.3,0.6,0.4,1.4,0.1,2.1c-3.1,7.7-5.8,15.5-7.9,23.1c-0.4,1.3-1.7,2.1-3,1.8l-1-0.2c0.4,0.3,0.7,0.7,1.1,1
								c3.9,3.7,6.9,9.2,8.7,16.3c2.6-0.1,5.2-0.2,7.8-0.3c0.7,0,1.3,0.2,1.8,0.7c0.5,0.5,0.8,1.1,0.8,1.8l-0.1,17.9
								c0,1.4-1.1,2.5-2.5,2.5c-2.1,0-4.1,0.1-6.1,0.2c-0.9,6.5-3,11.4-6.5,14.7c-5,5.2-12.6,9-22.5,11.1c1.1,6.1,3.8,20.6,6.5,35.8
								c3.2,17.4,6.5,35.5,7.1,38.7c0.1,0.7,0,1.3-0.4,1.9c-0.4,0.6-1,0.9-1.6,1.1l-23.7,4.3C180.3,285.5,180.1,285.5,180,285.5z
								 M141.7,199.6c7,1,15,1.5,23.7,1.5c1.2,0,2.2,0.9,2.4,2c0.4,2.3,2,11,4,22c3.6,19.8,8.4,46,10.1,54.9l18.8-3.4
								c-1.2-6.3-3.9-21.5-6.6-36.2c-3.1-17.2-6.4-35-7-38.2c-0.1-0.7,0-1.3,0.4-1.9s1-0.9,1.6-1.1c10.1-1.8,17.6-5.2,22.3-10.2
								c0,0,0.1-0.1,0.1-0.1c2.9-2.7,4.7-7.3,5.2-13.7c0.1-1.2,1.1-2.2,2.4-2.3c1.9-0.1,3.9-0.2,6-0.2l0.1-12.9
								c-2.4,0.1-4.8,0.2-7.2,0.3c-1.2,0.1-2.3-0.8-2.6-2c-1.6-7.2-4.2-12.5-7.8-15.9c-5-5-12.4-7-22.1-6.2
								c-2.9,0.3-5.9,0.6-8.9,0.9c-1.2,0.1-2.3-0.6-2.7-1.7c-0.4-1.1,0.1-2.3,1.1-3l9.3-5.7c-3.6-4.6-6.6-9.5-8.9-14.8
								c-0.3-0.7-0.3-1.5,0.1-2.1c0.3-0.7,1-1.1,1.7-1.3c12.2-2.7,23.9-5.8,34.7-9.1l-5.3-13.3c-23.3,6.1-48.7,11.8-75.4,16.9
								l4.9,13.8c3.8-0.6,7.5-1.3,11.1-2c0.1,0,0.1,0,0.2,0c8.3-1.4,16.4-3.1,24.1-4.9c1.2-0.3,2.5,0.4,2.9,1.6
								c0.4,1.2-0.1,2.5-1.2,3.1l-9.5,5c2.5,5.2,5.5,10,9,14.2c0.6,0.7,0.7,1.7,0.4,2.5c-0.3,0.9-1.1,1.5-2,1.6
								c-8.2,1-16.4,2.4-24.4,4.1c-1,0.2-1.9-0.2-2.5-0.9c0,0,0,0.1,0,0.1c-0.2,0.9-0.9,1.5-1.8,1.7c-1.8,0.4-3.6,0.9-5.3,1.3
								l3.2,12.6c5.3-1.2,10.4-2.4,15.2-3.4c1.3-0.3,2.7,0.6,3,1.9c0.3,1.6,0.7,3.2,1,5c0.1,0.7,0,1.4-0.5,2c-0.4,0.6-1.1,0.9-1.8,1
								c-7.5,0.6-15.1,1.2-22.6,1.8l-0.1,12.9c8.5-0.7,17.2-1.4,25.8-2c1.3-0.1,2.4,0.8,2.6,2.1c0.4,2.2,0.8,4.5,1.3,7
								c0.2,0.7,0,1.5-0.5,2.1s-1.2,0.9-2,0.9c-6.4-0.1-13-0.6-19.4-1.7L141.7,199.6z M146.7,182.1c4,0.5,8,0.9,11.9,1
								c-0.1-0.6-0.2-1.2-0.4-1.8C154.5,181.6,150.6,181.8,146.7,182.1z M94.7,167.4c9,6.9,18.1,10.6,27,11l5.3-13
								c-11.9-3.2-17.5-6.8-17.9-11.3c-0.2-2.2,1-4.5,3.8-7.3c1.9-2.2,5.3-5.8,10.3-10.9c3.5-3.5,5.1-7.5,4.7-12
								c-0.5-5.4-4-9.7-10.9-13.1c-11.7-4.6-18-6.1-21.4-6.4l-5.2,12.5c4.2,1.4,8.1,2.7,11.9,3.8c0,0,0.1,0,0.1,0.1
								c3.9,1.5,6.1,3.7,6.3,6.6c0.2,2.4-1.6,4.4-2.9,5.8c-4.2,4.2-7.4,7.4-9.3,9.7c0,0.1-0.1,0.1-0.1,0.1c-4.7,4.6-7,8.9-6.6,12.8
								C90,159.8,91.7,163.7,94.7,167.4z M131.7,131.9c-1,2.6-2.7,5.1-4.9,7.4c-4.9,5-8.3,8.7-10.1,10.8c0,0-0.1,0.1-0.1,0.1
								c-2.4,2.4-2.4,3.4-2.4,3.4c0,0.4,0.8,3.6,16.2,7.5c0.4-0.3,0.9-0.6,1.4-0.6c1.3-0.1,2.7-0.2,4-0.3l-4.3-17
								c-0.3-1.3,0.4-2.6,1.7-3c1.2-0.3,2.5-0.7,3.7-1C135,136.8,133.3,134.4,131.7,131.9z M134.5,127c2.4,4.2,5.4,8.2,8.9,11.7
								c0.1,0.1,0.1,0.1,0.2,0.2c0.1-0.6,0.5-1.2,1.1-1.6l9.9-6c-3.1-3.3-5.8-6.9-8-10.6L134.5,127z M151.6,119.2
								c2.4,3.8,5.3,7.5,8.8,10.8c0.6,0.5,0.8,1.3,0.8,2.1c-0.1,0.8-0.5,1.5-1.2,1.9l-1,0.6c2.3-0.4,4.6-0.7,7-1
								c-3.1-4.2-5.7-8.9-7.9-14c-0.2-0.5-0.3-1-0.2-1.5C155.8,118.4,153.7,118.8,151.6,119.2z M195.3,129l14.6,3.6
								c1.8-6.2,3.9-12.4,6.3-18.7l-14.6-3.6C199.7,115.7,197.6,122,195.3,129z M190,129.1c-0.2,0.2-0.4,0.4-0.6,0.5l-2.4,1.5
								c0.9,0,1.8-0.1,2.6-0.1c0-0.4,0-0.7,0.1-1.1C189.8,129.7,189.9,129.4,190,129.1z M103.7,127.6L103.7,127.6L103.7,127.6z
								 M181.2,112.9c2.3,4.7,5.2,9,8.7,13c0.4,0.4,0.6,1,0.6,1.5c2.3-6.9,4.4-13.1,6.2-18.4C191.7,110.4,186.5,111.7,181.2,112.9z
								 M132.5,121.5c0.1,0.3,0.1,0.6,0.1,0.8l0.6-0.3C133,121.9,132.8,121.7,132.5,121.5z M102.1,225.4c-1,0-2-0.6-2.4-1.7
								l-7.9-22.2c-0.2-0.6-0.2-1.4,0.1-2s0.8-1.1,1.5-1.3c11.6-3.6,22.5-7.8,32.6-12.7c0.6-0.3,1.3-0.3,2-0.1
								c0.6,0.3,1.2,0.8,1.4,1.4l8.4,21.2c0.5,1.1,0,2.4-1,3.1c-9.8,5.9-21.3,10.7-34.1,14.1C102.5,225.3,102.3,225.4,102.1,225.4z
								 M97.4,202.3l6.3,17.5c10.7-3,20.3-7,28.8-11.9l-6.6-16.7C116.9,195.4,107.4,199.1,97.4,202.3z M185.9,186.1
								c-0.5,0-0.9-0.1-1.3-0.4c-0.6-0.3-1-0.9-1.1-1.6c-0.5-2.1-0.9-4.3-1.3-6.4c-0.1-0.7,0.1-1.4,0.5-2c0.4-0.6,1.1-0.9,1.8-1
								c4-0.2,8-0.5,12.2-0.8c0.9-0.1,1.7,0.3,2.2,1s0.6,1.6,0.3,2.4c-0.6,1.6-1.6,3-2.9,4.2c-0.1,0-0.1,0.1-0.2,0.1
								c-2.6,1.9-5.8,3.3-9.5,4.3C186.3,186.1,186.1,186.1,185.9,186.1z M187.6,179.6c0.1,0.3,0.1,0.5,0.2,0.8
								c0.8-0.3,1.6-0.6,2.3-1C189.2,179.5,188.4,179.6,187.6,179.6z M181.1,162c-1.2,0-2.2-0.8-2.4-2l-1.5-7.3
								c-0.1-0.7,0-1.4,0.4-2c0.4-0.6,1.1-0.9,1.8-1l3.7-0.3c6.1-0.5,10.6,1,13.4,4.4c0.1,0.1,0.2,0.3,0.3,0.4
								c0.5,1.1,1,2.3,1.5,3.7c0.2,0.7,0.1,1.6-0.3,2.2c-0.4,0.6-1.2,1-1.9,1.1c-4.8,0.2-9.7,0.5-14.7,0.8
								C181.2,162,181.2,162,181.1,162z M182.6,154.4l0.5,2.5c3-0.2,6-0.4,8.9-0.5c-1.8-1.7-4.6-2.4-8.5-2L182.6,154.4z"/>
						</g>
					</g>
					<g>
						<g>
							<path class="st0" d="M359.6,70.6l3.5,17.6c-7.2,0.6-14.4,1.4-21.5,2.2l9.8,1.4c-0.4,1.4-0.8,2.9-1.3,4.3
								c3.6,0.2,6.9,0.6,10,1.2c9,2.7,13.7,6.5,14.1,11.5l0.2,2.7c0.1,8.3-1.2,15.6-4,22.2l-22.7-2c2.9-4.4,4.4-9.2,4.6-14.4
								c-0.2-2-2-3.2-5.6-3.7c-1,5.8-1.7,11.7-2.2,17.8l-21-2.9c0.3-4.7,0.7-9.3,1.3-13.9l-2.7,0.2c-1.9,0.2-3.6,0.4-5.2,0.6
								c-0.1,6.1,0.1,12.1,0.5,18.2c19.6,1.8,38.9,4.5,57.9,8.2l-1.5,18.7c-11.7-2.2-23.5-4-35.3-5.6l2.4,11.9
								c-22.7,2-45.5,5.8-68.3,11.3l-1.9-9.5c-7.2,3.6-14.4,7.3-21.9,11.2l-9.1-15.5c19.3-10.9,37.5-20.6,54.8-29
								c-0.4-5.5-0.6-10.9-0.7-16.1c-2.5,0.5-5,1.1-7.3,1.7c1.4,4.6,2.9,9.2,4.5,13.8l-20.7,4.3c-1.5-4.2-2.8-8.2-4.1-12.2
								c-1.4,0.5-2.9,1.1-4.5,1.6c2.3,5.1,4.9,10.2,7.8,15.5l-19,7.6c-6.7-12.1-12-24.8-15.9-38.2l19-7.6c0.5,1.9,1,3.6,1.5,5.4
								c1.9-0.7,3.8-1.3,5.7-1.8c-0.7-2.1-1.3-4.3-1.9-6.4c-4,0.7-8,1.5-11.9,2.2l-3.2-17.6C279.8,79.7,318.3,74.2,359.6,70.6
								 M329.3,91.8c-3.9,0.4-7.8,0.9-11.7,1.5c-0.1,1.4-0.1,2.7-0.1,4c2.1-0.3,4.1-0.5,6.1-0.7l4.6-0.4
								C328.5,94.7,328.9,93.2,329.3,91.8 M294.6,96.6c-4.9,0.7-9.8,1.5-14.7,2.3c0.4,1.6,1,3.1,1.6,4.5c4.3-1.1,8.6-2,12.9-2.8
								C294.4,99.1,294.5,97.8,294.6,96.6 M290.1,158.2c11.1-2.2,22.5-4,34.3-5.4c-6.8-0.9-13.4-1.7-19.9-2.3
								C299.7,153.1,294.9,155.7,290.1,158.2 M340.1,170.1c4.8,0,8.8,0.6,12.1,1.7c4.9,2.3,7.7,6.1,8.5,11.7c0,3.3-2.1,7.4-6.4,12.4
								c0.4,0.1,0.7,0.1,0.9,0.2l-3.9,17.1c-17.6-3.7-34.7-6.2-51.6-7.4l3.5-14.3c-12.8,3.4-24.8,7.7-35.8,12.8l-6.2-14.2
								c20.5-9.8,44.5-16.2,72.1-19.4C335.7,170.2,338,170.1,340.1,170.1 M338.7,193.1c1-1.1,1.7-2.1,2.1-3c-0.3-3.2-2.9-4.7-8-4.7
								c-0.8,0-1.7,0-2.6,0.1c-7.2,1.1-14,2.5-20.6,4C319.7,190.4,329.4,191.6,338.7,193.1 M359.6,59.6c-0.3,0-0.6,0-1,0
								c-41.5,3.6-80.7,9.3-116.8,16.9c-5.8,1.2-9.6,6.9-8.6,12.7l2.1,11.9l-4.6,1.9c-5.2,2.1-8,7.8-6.5,13.3
								c3.6,12.5,8.4,24.5,14.4,36c-1.4,0.8-2.8,1.6-4.2,2.4c-2.6,1.5-4.4,3.9-5.2,6.7c-0.8,2.8-0.3,5.9,1.1,8.4l9.1,15.5
								c2,3.5,5.7,5.4,9.5,5.4c0.4,0,0.8,0,1.3-0.1c0.1,1.3,0.4,2.5,0.9,3.7l6.2,14.2c1.2,2.7,3.4,4.9,6.2,5.9
								c1.3,0.5,2.6,0.7,3.9,0.7c1.6,0,3.2-0.3,4.7-1c5.3-2.5,10.9-4.8,16.7-6.8c0.3,1.7,0.9,3.4,2,4.9c1.9,2.6,4.9,4.3,8.1,4.5
								c16.3,1.2,33.1,3.6,50.1,7.2c0.8,0.2,1.5,0.2,2.3,0.2c5,0,9.6-3.5,10.7-8.6l3.8-16.6c3.9-5.5,5.8-10.6,5.8-15.4
								c0-0.5,0-1.1-0.1-1.6c-0.6-4.4-2.2-8.3-4.5-11.7c1.7,0.3,3.3,0.6,5,0.9c0.7,0.1,1.3,0.2,2,0.2c2.4,0,4.8-0.8,6.7-2.3
								c2.5-1.9,4-4.7,4.3-7.8l1.5-18.7c0.3-3.7-1.3-7.2-4.1-9.5c2.2-6.7,3.2-14,3.1-21.8c0-0.3,0-0.5,0-0.8l-0.2-2.7
								c-0.4-5.1-3-11.6-11.6-16.6c0.5-1.6,0.5-3.4,0.2-5.1l-3.5-17.6C369.3,63.3,364.8,59.6,359.6,59.6L359.6,59.6z M334,196.4
								C334,196.4,334,196.4,334,196.4L334,196.4z"/>
						</g>
						<g>
							<path class="st1" d="M351.2,217.1c-0.3,0-0.6,0-0.8-0.1c-17.3-3.7-34.4-6.2-51-7.4c-1.2-0.1-2.3-0.7-2.9-1.6
								c-0.7-1-0.9-2.2-0.6-3.3l1.9-7.7c-10.1,3-19.7,6.6-28.6,10.8c-1,0.5-2.1,0.5-3.1,0.1c-1-0.4-1.8-1.2-2.3-2.1l-6.2-14.2
								c-0.9-2,0-4.3,1.9-5.2c3.6-1.7,7.3-3.3,11.2-4.9c0,0-0.1,0-0.1-0.1c-0.9-0.6-1.6-1.5-1.8-2.6l-0.9-4.4
								c-5.6,2.9-11.4,5.8-17.1,8.8c-1.9,1-4.2,0.3-5.3-1.5l-9.1-15.5c-0.5-0.9-0.7-2-0.4-3.1c0.3-1,1-1.9,1.9-2.4
								c3.6-2,7.1-4,10.6-5.9c-0.5-0.3-1-0.8-1.3-1.4c-6.8-12.3-12.3-25.4-16.2-39c-0.6-2,0.4-4.1,2.4-4.8l9.9-4L240.1,88
								c-0.4-2.1,1-4.2,3.1-4.6c35.8-7.5,74.8-13.1,116-16.7c2-0.2,3.9,1.2,4.3,3.2l3.5,17.6c0.2,1.1,0,2.3-0.7,3.2
								s-1.7,1.5-2.9,1.6c-2,0.2-4,0.4-6,0.5c1.2,0.2,2.4,0.4,3.5,0.6c0.1,0,0.2,0.1,0.3,0.1c10.7,3.2,16.4,8.2,17,14.9l0.2,2.7
								c0,0.1,0,0.2,0,0.3c0.1,8.8-1.3,16.8-4.4,23.8c-0.3,0.8-0.9,1.4-1.6,1.8c1.3,0.2,2.5,0.5,3.7,0.7c2,0.4,3.4,2.2,3.2,4.2
								l-1.5,18.7c-0.1,1.1-0.7,2.2-1.6,2.9c-0.9,0.7-2,1-3.2,0.8c-9.7-1.8-19.7-3.4-29.5-4.8l1.3,6.4c0,0.2,0.1,0.3,0.1,0.5
								c3.1,0.3,5.9,0.8,8.4,1.7c0.1,0,0.3,0.1,0.4,0.2c6.1,2.8,9.8,7.9,10.8,14.7c0,0.2,0,0.4,0,0.6c0,3.7-1.8,7.9-5.5,12.6
								c0,0.3,0,0.5-0.1,0.8l-3.9,17.1C354.7,215.8,353.1,217.1,351.2,217.1z M304.7,202c14.2,1.2,28.8,3.3,43.5,6.3l2.4-10.7
								c-0.1-0.1-0.1-0.3-0.2-0.5c-0.5-1.4-0.2-2.9,0.7-4c4.4-5.2,5.3-8.1,5.4-9.5c-0.6-3.9-2.5-6.5-6-8.2c-4-1.3-9.7-1.7-16.9-1.1
								c-25.4,3-48.1,8.8-67.3,17.5l3,6.9c10.1-4.5,21.1-8.3,32.7-11.4c1.3-0.4,2.8,0,3.8,0.9c0.4-1.3,1.5-2.4,2.9-2.7
								c6.6-1.6,13.6-3,20.9-4.1c0.1,0,0.2,0,0.3,0c12.2-1.1,14.6,4.7,14.9,8.2c0.1,0.7-0.1,1.4-0.3,2c-0.6,1.3-1.5,2.7-2.8,4.1
								c-0.9,1-2.2,1.4-3.6,1.2c-9.2-1.4-18.9-2.6-28.7-3.6c-0.9-0.1-1.7-0.5-2.4-1.1L304.7,202z M245.4,165.6l5.1,8.7
								c6.3-3.2,12.5-6.4,18.5-9.5c1.1-0.6,2.4-0.6,3.6,0c1.1,0.5,1.9,1.6,2.2,2.8l1.1,5.5c20.1-4.7,40.4-8.1,60.4-10.1l-1.5-7.5
								c-0.3-1.3,0.1-2.6,1-3.5c0.9-0.9,2.2-1.4,3.4-1.2c10.4,1.4,20.8,3,31.1,4.8l0.9-10.7c-17.7-3.3-35.9-5.9-54-7.5
								c-2-0.2-3.5-1.7-3.6-3.7c-0.4-6.1-0.6-12.3-0.6-18.5c0-2,1.5-3.6,3.4-3.9c1.7-0.3,3.5-0.5,5.4-0.6l2.7-0.2
								c1.2-0.1,2.4,0.3,3.2,1.2c0.8,0.9,1.2,2.1,1.1,3.3c-0.4,3.2-0.8,6.5-1,9.9l13.1,1.8c0.5-4.7,1.1-9.4,1.9-13.9
								c0.4-2.1,2.3-3.6,4.5-3.3c7.4,1,8.8,5,9,7.3c0,0.2,0,0.3,0,0.5c-0.1,3.8-0.9,7.4-2.3,10.9l13.8,1.2
								c1.9-5.3,2.8-11.2,2.7-17.7l-0.2-2.5c-0.3-3.8-6.2-6.4-11.1-7.9c-2.8-0.6-5.9-0.9-9.2-1.1c-1.2-0.1-2.4-0.7-3.1-1.7
								c-0.7-0.9-0.9-2.1-0.6-3.2l-5.2-0.7c-2-0.3-3.5-2-3.4-4c0-2,1.5-3.7,3.5-3.9c5.7-0.7,11.4-1.3,17.1-1.8l-1.9-9.7
								c-38.1,3.4-74.3,8.7-107.6,15.5l1.8,9.8c2.6-0.5,5.3-1,7.9-1.5c2-0.4,4,0.9,4.6,2.9c0.6,2.1,1.2,4.2,1.9,6.2
								c0.3,1,0.2,2.1-0.3,3.1c-0.5,0.9-1.4,1.7-2.4,2c-1.8,0.5-3.7,1.2-5.5,1.8c-1,0.4-2.1,0.3-3.1-0.2c-1-0.5-1.7-1.3-2-2.4
								c-0.1-0.4-0.3-0.8-0.4-1.2l-11.5,4.6c3.3,10.7,7.6,21,12.8,30.8l11.6-4.7c-2.1-4-4-7.9-5.8-11.7c-0.5-1-0.5-2.2,0-3.2
								c0.4-1,1.3-1.8,2.4-2.2c1.5-0.5,3-1,4.4-1.6c1-0.4,2.2-0.3,3.1,0.2c1,0.5,1.7,1.3,2,2.4c0.9,2.9,1.9,5.8,2.9,8.7l12.8-2.7
								c-1.1-3.3-2.1-6.5-3.1-9.6c-0.3-1-0.2-2.2,0.3-3.1c0.5-1,1.4-1.6,2.5-1.9c2.4-0.6,5-1.2,7.5-1.7c1.2-0.2,2.4,0.1,3.3,0.8
								c0.9,0.8,1.5,1.9,1.5,3.1c0.1,5.1,0.3,10.4,0.6,15.8c0.1,1.6-0.8,3.2-2.2,3.9C280.4,146.5,263.2,155.5,245.4,165.6z
								 M290.1,162.2c-1.7,0-3.2-1-3.8-2.7c-0.7-1.9,0.2-3.9,1.9-4.9c4.8-2.5,9.6-5.1,14.4-7.7c0.7-0.4,1.5-0.5,2.3-0.5
								c6.5,0.6,13.3,1.4,20.1,2.3c2,0.3,3.5,2,3.5,4c0,2-1.5,3.7-3.5,3.9c-11.7,1.4-23.2,3.2-34,5.3
								C290.6,162.2,290.4,162.2,290.1,162.2z M281.5,107.4c-1.6,0-3-0.9-3.7-2.4c-0.7-1.6-1.3-3.3-1.8-5c-0.3-1.1-0.1-2.3,0.5-3.2
								s1.6-1.6,2.7-1.8c5-0.8,10-1.6,14.8-2.3c1.2-0.2,2.4,0.2,3.3,1s1.4,2,1.3,3.2c-0.1,1.1-0.2,2.4-0.2,3.9
								c-0.1,1.9-1.4,3.4-3.3,3.8c-4.2,0.8-8.4,1.7-12.6,2.7C282.1,107.4,281.8,107.4,281.5,107.4z M317.5,101.3c-1,0-1.9-0.3-2.6-1
								c-0.9-0.7-1.4-1.8-1.4-3c0-1.4,0-2.8,0.1-4.3c0.1-1.9,1.5-3.5,3.4-3.7c3.8-0.5,7.8-1,11.8-1.5c1.3-0.2,2.6,0.4,3.5,1.4
								c0.9,1,1.2,2.4,0.8,3.6c-0.4,1.4-0.7,2.8-1.1,4.3c-0.4,1.7-1.8,2.9-3.5,3.1l-4.6,0.4c-1.9,0.2-3.9,0.4-5.9,0.7
								C317.9,101.3,317.7,101.3,317.5,101.3z M328.2,96.2L328.2,96.2L328.2,96.2z"/>
						</g>
						<g>
							<path class="st0" d="M359.6,70.6l3.5,17.6c-7.2,0.6-14.4,1.4-21.5,2.2l9.8,1.4c-0.4,1.4-0.8,2.9-1.3,4.3
								c3.6,0.2,6.9,0.6,10,1.2c9,2.7,13.7,6.5,14.1,11.5l0.2,2.7c0.1,8.3-1.2,15.6-4,22.2l-22.7-2c2.9-4.4,4.4-9.2,4.6-14.4
								c-0.2-2-2-3.2-5.6-3.7c-1,5.8-1.7,11.7-2.2,17.8l-21-2.9c0.3-4.7,0.7-9.3,1.3-13.9l-2.7,0.2c-1.9,0.2-3.6,0.4-5.2,0.6
								c-0.1,6.1,0.1,12.1,0.5,18.2c19.6,1.8,38.9,4.5,57.9,8.2l-1.5,18.7c-11.7-2.2-23.5-4-35.3-5.6l2.4,11.9
								c-22.7,2-45.5,5.8-68.3,11.3l-1.9-9.5c-7.2,3.6-14.4,7.3-21.9,11.2l-9.1-15.5c19.3-10.9,37.5-20.6,54.8-29
								c-0.4-5.5-0.6-10.9-0.7-16.1c-2.5,0.5-5,1.1-7.3,1.7c1.4,4.6,2.9,9.2,4.5,13.8l-20.7,4.3c-1.5-4.2-2.8-8.2-4.1-12.2
								c-1.4,0.5-2.9,1.1-4.5,1.6c2.3,5.1,4.9,10.2,7.8,15.5l-19,7.6c-6.7-12.1-12-24.8-15.9-38.2l19-7.6c0.5,1.9,1,3.6,1.5,5.4
								c1.9-0.7,3.8-1.3,5.7-1.8c-0.7-2.1-1.3-4.3-1.9-6.4c-4,0.7-8,1.5-11.9,2.2l-3.2-17.6C279.8,79.7,318.3,74.2,359.6,70.6z
								 M333.3,170.4c7.9-0.7,14.2-0.2,18.8,1.3c4.9,2.3,7.7,6.1,8.5,11.7c0,3.3-2.1,7.4-6.4,12.4c0.4,0.1,0.7,0.1,0.9,0.2
								l-3.9,17.1c-17.6-3.7-34.7-6.2-51.6-7.4l3.5-14.3c-12.8,3.4-24.8,7.7-35.8,12.8l-6.2-14.2
								C281.7,180.1,305.7,173.6,333.3,170.4z M279.9,98.9c0.4,1.6,1,3.1,1.6,4.5c4.3-1.1,8.6-2,12.9-2.8c0.1-1.5,0.1-2.9,0.2-4.1
								C289.7,97.3,284.8,98.1,279.9,98.9z M290.1,158.2c11.1-2.2,22.5-4,34.3-5.4c-6.8-0.9-13.4-1.7-19.9-2.3
								C299.7,153.1,294.9,155.7,290.1,158.2z M309.8,189.5c9.9,0.9,19.6,2.1,29,3.6c1-1.1,1.7-2.1,2.1-3c-0.3-3.7-3.8-5.2-10.6-4.6
								C323.1,186.6,316.3,187.9,309.8,189.5z M328.2,96.2c0.4-1.5,0.7-3,1.1-4.4c-3.9,0.4-7.8,0.9-11.7,1.5c-0.1,1.4-0.1,2.7-0.1,4
								c2.1-0.3,4.1-0.5,6.1-0.7L328.2,96.2z"/>
						</g>
						<g>
							<path class="st1" d="M351.2,215.6c-0.2,0-0.3,0-0.5-0.1c-17.3-3.7-34.6-6.2-51.2-7.4c-0.7-0.1-1.4-0.4-1.8-1
								c-0.4-0.6-0.6-1.4-0.4-2.1l2.5-10.2c-11.1,3.2-21.6,7.1-31.3,11.6c-0.6,0.3-1.3,0.3-1.9,0.1c-0.6-0.2-1.1-0.7-1.4-1.3
								l-6.2-14.2c-0.5-1.2,0-2.7,1.2-3.3c8.4-4,17.4-7.5,27.1-10.4c-4.6,1-9.3,2-13.9,3.2c-0.7,0.2-1.4,0-1.9-0.3
								c-0.6-0.4-1-1-1.1-1.6l-1.2-6.3c-6.2,3.1-12.5,6.4-18.9,9.7c-1.2,0.6-2.6,0.2-3.3-1l-9.1-15.5c-0.3-0.6-0.4-1.3-0.3-1.9
								c0.2-0.6,0.6-1.2,1.2-1.5c6.7-3.8,13.3-7.5,19.7-11l-6.7,2.7c-1.2,0.5-2.5,0-3.1-1.1c-6.8-12.2-12.2-25.2-16.1-38.7
								c-0.4-1.2,0.3-2.5,1.5-3l11.3-4.5c-0.2-0.3-0.3-0.6-0.4-1l-3.2-17.6c-0.2-1.3,0.6-2.6,1.9-2.9c35.7-7.5,74.7-13.1,115.8-16.7
								c1.3-0.1,2.4,0.8,2.7,2l3.5,17.6c0.1,0.7,0,1.4-0.5,2c-0.4,0.6-1.1,0.9-1.8,1c-3.1,0.3-6.2,0.6-9.4,0.9c0,0.3,0,0.6-0.1,0.8
								c-0.1,0.5-0.2,0.9-0.4,1.4c2.5,0.2,4.9,0.6,7.2,1c0.1,0,0.1,0,0.2,0.1c10,3,15.4,7.6,15.9,13.6l0.2,2.7c0,0.1,0,0.1,0,0.2
								c0.1,8.6-1.3,16.4-4.2,23.2c-0.4,1-1.4,1.6-2.5,1.5l-22.7-2c-0.6-0.1-1.1-0.3-1.6-0.7c-0.5,0.3-1.1,0.5-1.7,0.4l-21-2.9
								c-1.3-0.2-2.2-1.3-2.1-2.6c0.2-3.7,0.5-7.3,1-10.9c-0.9,0.1-1.7,0.2-2.5,0.3c0,4.6,0.1,9.2,0.4,13.7
								c18.9,1.8,37.7,4.5,56,8.1c1.2,0.2,2.1,1.4,2,2.7l-1.5,18.7c-0.1,0.7-0.4,1.4-1,1.8s-1.3,0.6-2,0.5
								c-10.5-1.9-21.1-3.6-31.7-5.1l1.7,8.5c0.1,0.5,0,1.1-0.2,1.6c3.7,0.2,6.9,0.8,9.6,1.7c0.1,0,0.2,0.1,0.2,0.1
								c5.7,2.6,9,7.2,9.9,13.6c0,0.1,0,0.2,0,0.4c0,3.5-1.8,7.5-5.5,12.2c0,0.3,0,0.6,0,1l-3.9,17.1
								C353.4,214.8,352.4,215.6,351.2,215.6z M302.8,203.3c15.2,1.2,30.8,3.5,46.6,6.8l2.9-12.8c-0.2-0.2-0.3-0.4-0.4-0.7
								c-0.3-0.9-0.1-1.8,0.4-2.5c4.6-5.4,5.7-8.7,5.8-10.6c-0.7-4.5-3-7.6-6.9-9.5c-4.3-1.4-10.2-1.8-17.6-1.2
								c-26.2,3.1-49.4,9.2-69.1,18.2l4.2,9.7c10.4-4.7,21.8-8.7,33.8-11.9c0.9-0.2,1.8,0,2.4,0.6c0.6,0.6,0.9,1.5,0.7,2.4
								L302.8,203.3z M243.3,165l6.6,11.3c6.7-3.4,13.3-6.8,19.8-10.1c0.7-0.4,1.5-0.4,2.2,0c0.7,0.3,1.2,1,1.4,1.8l1.4,7
								c21.1-5,42.4-8.6,63.4-10.5l-1.8-9.2c-0.2-0.8,0.1-1.6,0.6-2.2c0.6-0.6,1.4-0.9,2.2-0.8c10.9,1.4,21.9,3.2,32.7,5.1l1.1-13.7
								c-18.2-3.5-36.8-6.1-55.5-7.8c-1.2-0.1-2.2-1.1-2.3-2.3c-0.4-6.1-0.6-12.2-0.5-18.4c0-1.2,0.9-2.3,2.1-2.4
								c1.6-0.2,3.4-0.5,5.3-0.6l2.7-0.2c0.8-0.1,1.5,0.2,2,0.8c0.5,0.5,0.8,1.3,0.7,2.1c-0.5,3.7-0.9,7.5-1.2,11.4l16.1,2.3
								c0.5-5.2,1.1-10.4,2-15.4c0.2-1.3,1.5-2.2,2.8-2.1c6,0.8,7.5,3.7,7.7,6c0,0.1,0,0.2,0,0.3c-0.1,4.3-1.1,8.4-3,12.2l17,1.5
								c2.2-5.7,3.3-12.3,3.2-19.4l-0.2-2.6c-0.3-3.8-4.5-6.9-12.3-9.2c-2.9-0.6-6-1-9.5-1.2c-0.8,0-1.5-0.4-1.9-1.1
								c-0.4-0.6-0.6-1.5-0.3-2.2c0.2-0.5,0.3-1,0.5-1.4l-7-1c-1.2-0.2-2.2-1.2-2.2-2.5c0-1.3,1-2.3,2.2-2.5
								c6.2-0.7,12.5-1.4,18.8-1.9l-2.5-12.7c-39.2,3.5-76.4,8.9-110.6,15.9l2.3,12.8c3.1-0.6,6.3-1.2,9.4-1.8
								c1.3-0.2,2.5,0.5,2.9,1.8c0.6,2.1,1.2,4.2,1.9,6.3c0.2,0.6,0.1,1.3-0.2,1.9c-0.3,0.6-0.8,1-1.5,1.2c-1.8,0.6-3.7,1.2-5.6,1.8
								c-0.6,0.2-1.3,0.2-1.9-0.1c-0.6-0.3-1.1-0.8-1.3-1.5c-0.3-0.9-0.6-1.8-0.8-2.8l-14.3,5.7c3.5,11.7,8.2,23,14,33.6l14.4-5.8
								c-2.4-4.4-4.5-8.8-6.5-13.1c-0.3-0.6-0.3-1.4,0-2s0.8-1.2,1.5-1.4c1.5-0.5,3-1.1,4.5-1.6c0.6-0.2,1.4-0.2,2,0.1
								c0.6,0.3,1.1,0.8,1.3,1.5c1,3.3,2.1,6.7,3.3,10l15.8-3.3c-1.3-3.8-2.5-7.5-3.6-11.2c-0.2-0.7-0.1-1.4,0.2-2s0.9-1,1.6-1.2
								c2.4-0.6,4.9-1.2,7.4-1.7c0.7-0.1,1.5,0,2.1,0.5s0.9,1.2,0.9,1.9c0.1,5.1,0.3,10.5,0.7,15.9c0.1,1-0.5,2-1.4,2.4
								C279.3,145.4,261.6,154.7,243.3,165z M271.3,141.3c0.2,0.4,0.5,0.8,0.7,1.3c0.2,0.3,0.3,0.7,0.3,1.1c2.8-1.5,5.6-2.9,8.4-4.3
								L271.3,141.3z M289.9,122.5c0.6,2,1.3,4,1.9,6c-0.1-2.1-0.2-4.3-0.2-6.4C291,122.2,290.4,122.4,289.9,122.5z M348.7,116.4
								c-0.5,3.4-1,6.9-1.3,10.5c1.4-3.1,2.2-6.3,2.3-9.7C349.7,116.9,349.3,116.7,348.7,116.4z M256.5,105.7c0.2,0.7,0.4,1.3,0.5,2
								c0.3-0.1,0.6-0.2,0.9-0.3c-0.2-0.6-0.4-1.3-0.6-1.9C257.1,105.6,256.8,105.6,256.5,105.7z M338.7,195.6c-0.1,0-0.3,0-0.4,0
								c-9.3-1.5-19-2.7-28.8-3.6c-1.2-0.1-2.2-1.1-2.3-2.3c-0.1-1.2,0.7-2.3,1.9-2.6c6.5-1.6,13.5-2.9,20.8-4.1c0.1,0,0.1,0,0.2,0
								c10.4-0.9,12.9,3.2,13.3,6.9c0,0.4,0,0.9-0.2,1.2c-0.5,1.2-1.4,2.4-2.6,3.7C340.1,195.3,339.4,195.6,338.7,195.6z
								 M325.8,188.7c4,0.5,8,1.1,11.9,1.7c0.2-0.2,0.4-0.5,0.5-0.7c-0.6-1.5-3.2-2.1-7.6-1.7C329,188.2,327.4,188.5,325.8,188.7z
								 M290.1,160.7c-1,0-2-0.7-2.4-1.7c-0.4-1.2,0.1-2.5,1.2-3c4.8-2.5,9.6-5.1,14.4-7.7c0.4-0.2,0.9-0.3,1.4-0.3
								c6.5,0.6,13.2,1.4,20,2.3c1.2,0.2,2.2,1.2,2.2,2.5c0,1.3-0.9,2.3-2.2,2.5c-11.7,1.4-23.2,3.2-34.2,5.4
								C290.5,160.7,290.3,160.7,290.1,160.7z M281.5,105.9c-1,0-1.9-0.6-2.3-1.5c-0.7-1.5-1.2-3.2-1.7-4.8c-0.2-0.7-0.1-1.4,0.3-2
								c0.4-0.6,1-1,1.7-1.1c5-0.8,10-1.6,14.8-2.3c0.8-0.1,1.5,0.1,2.1,0.6s0.8,1.3,0.8,2c-0.1,1.1-0.2,2.4-0.2,4
								c-0.1,1.2-0.9,2.1-2.1,2.3c-4.2,0.8-8.5,1.7-12.7,2.7C281.9,105.9,281.7,105.9,281.5,105.9z M317.5,99.8
								c-0.6,0-1.2-0.2-1.6-0.6c-0.5-0.5-0.9-1.1-0.9-1.9c0-1.3,0-2.8,0.1-4.2c0.1-1.2,1-2.2,2.2-2.3c3.8-0.5,7.8-1,11.7-1.5
								c0.8-0.1,1.6,0.2,2.2,0.8c0.5,0.6,0.7,1.5,0.5,2.3c-0.4,1.4-0.7,2.9-1.1,4.4c-0.2,1-1.1,1.8-2.2,1.9l-4.6,0.4
								c-1.9,0.2-3.9,0.4-5.9,0.7C317.7,99.8,317.6,99.8,317.5,99.8z M328.2,96.2L328.2,96.2L328.2,96.2z"/>
						</g>
					</g>
					<g>
						<g>
							<path class="st2" d="M458.5,110.9c-9.2-7.2-20.6-10.4-32.2-9c-1.4,0.2-2.4,1.4-2.2,2.9c0.2,1.4,1.4,2.4,2.9,2.2
								c10.2-1.2,20.3,1.6,28.4,7.9c8.1,6.3,13.3,15.5,14.5,25.7c1.2,10.2-1.6,20.3-7.9,28.4c-6.3,8.1-15.5,13.3-25.7,14.5
								s-20.3-1.6-28.4-7.9c-8.1-6.3-13.3-15.5-14.5-25.7c-0.7-5.6-0.1-11.3,1.6-16.6c1.3,0.4,2.7,0.5,4.1,0.3
								c0.8-0.1,1.6-0.3,2.5-0.6c3.2-1.1,6.1-3.6,8.4-7.2c2-3.2,2.7-7.5,2.2-13c-0.4-3.9-1.3-6.9-1.4-7c-0.4-1.2-1.5-1.9-2.8-1.8
								c0,0,0,0,0,0c-0.1,0-3.3,0.5-6.9,1.7c-5.2,1.8-8.8,4.3-10.8,7.5c-2.3,3.6-3.3,7.2-2.9,10.6c0.3,2.7,1.4,5,3.2,6.8
								c-2.2,6.3-3,13-2.1,19.8c1.4,11.6,7.3,21.9,16.4,29.1c9.2,7.2,20.6,10.4,32.2,9c11.6-1.4,21.9-7.3,29.1-16.4
								c7.2-9.2,10.4-20.6,9-32.2C473.6,128.5,467.7,118.1,458.5,110.9L458.5,110.9z M394.5,116.2c2.3-3.6,8.2-5.6,11.9-6.4
								c0.8,3.8,1.5,9.9-0.8,13.5c-1.6,2.6-3.6,4.3-5.8,5.1c-1,0.4-2,0.5-3,0.3c0.9-1.9,2-3.8,3.3-5.6c0.8-1.2,0.5-2.8-0.6-3.6
								c-1.2-0.8-2.8-0.5-3.6,0.6c-1.2,1.7-2.2,3.4-3.2,5.2C391.8,122.9,392.4,119.6,394.5,116.2L394.5,116.2z M394.5,116.2
								 M458.3,150.5c-0.3-0.3-0.7-0.3-1.2-0.3c-0.8,0.1-1.3,0.6-1.6,1.4c-0.1,0.5-0.6,0.9-1.2,0.9l-0.1,0c-0.7-0.1-1.2-0.8-1-1.5
								c0.5-1.7,1.7-2.7,3.7-2.9c1.3-0.2,2.4,0.1,3.2,0.7c0.8,0.6,1.3,1.4,1.4,2.4c0.1,1-0.1,1.9-0.8,2.8c-0.6,0.8-1.6,1.7-3.1,2.9
								c-0.2,0.2-0.1,0.5,0.2,0.5l3.3-0.4c0.7-0.1,1.2,0.4,1.3,1.1c0,0.6-0.4,1.1-1,1.2l-6,0.7c-0.8,0.1-1.5-0.5-1.6-1.3
								c-0.1-0.5,0.1-0.9,0.5-1.3c0.2-0.2,0.4-0.4,0.7-0.6c1.4-1.3,2.4-2.3,3.1-3.1c0.6-0.8,0.9-1.5,0.8-2.1
								C458.8,151.1,458.6,150.8,458.3,150.5z M425.6,156.8c-1.6,1.7-3.7,2.7-6.2,3c-3.1,0.4-5.8-0.4-8.1-2.3
								c-2.2-1.9-3.6-4.8-4.1-8.6c-0.4-3.6,0.2-6.6,1.8-9.2c1.6-2.5,4.1-4,7.4-4.4c4.6-0.6,7.8,1,9.6,4.8c0.8,1.6-0.2,3.5-1.9,3.8
								l-0.3,0c-1.3,0.2-2.5-0.5-3-1.7c-0.7-1.9-2.1-2.7-4-2.4c-2.9,0.4-4,3.1-3.4,8.3c0.4,3,1,5,1.9,5.9c0.9,1,2.1,1.4,3.5,1.2
								c1.8-0.2,2.9-1.3,3.4-3.2c0.3-1.1,1.3-1.9,2.4-2c1.9-0.1,3.3,1.7,2.7,3.5C427.1,154.8,426.5,155.9,425.6,156.8z M438.5,132.6
								c-5.9,0.7-10.1,6.8-9.3,13.6c0.8,6.8,6.3,11.7,12.3,10.9c5.9-0.7,10.1-6.8,9.3-13.6C449.9,136.7,444.4,131.8,438.5,132.6z
								 M441,152c-3.5,0.4-6.7-2.5-7.2-6.4c-0.5-4,2-7.6,5.5-8c3.5-0.4,6.7,2.5,7.2,6.4C446.9,148,444.5,151.5,441,152z"/>
						</g>
						<g>
							<path class="st1" d="M458.5,110.9c-9.2-7.2-20.6-10.4-32.2-9c-1.4,0.2-2.4,1.4-2.2,2.9c0.2,1.4,1.4,2.4,2.9,2.2
								c10.2-1.2,20.3,1.6,28.4,7.9c8.1,6.3,13.3,15.5,14.5,25.7c1.2,10.2-1.6,20.3-7.9,28.4c-6.3,8.1-15.5,13.3-25.7,14.5
								s-20.3-1.6-28.4-7.9c-8.1-6.3-13.3-15.5-14.5-25.7c-0.7-5.6-0.1-11.3,1.6-16.6c1.3,0.4,2.7,0.5,4.1,0.3
								c0.8-0.1,1.6-0.3,2.5-0.6c3.2-1.1,6.1-3.6,8.4-7.2c2-3.2,2.7-7.5,2.2-13c-0.4-3.9-1.3-6.9-1.4-7c-0.4-1.2-1.5-1.9-2.8-1.8
								c0,0,0,0,0,0c-0.1,0-3.3,0.5-6.9,1.7c-5.2,1.8-8.8,4.3-10.8,7.5c-2.3,3.6-3.3,7.2-2.9,10.6c0.3,2.7,1.4,5,3.2,6.8
								c-2.2,6.3-3,13-2.1,19.8c1.4,11.6,7.3,21.9,16.4,29.1c9.2,7.2,20.6,10.4,32.2,9c11.6-1.4,21.9-7.3,29.1-16.4
								c7.2-9.2,10.4-20.6,9-32.2C473.6,128.5,467.7,118.1,458.5,110.9L458.5,110.9z M394.5,116.2c2.3-3.6,8.2-5.6,11.9-6.4
								c0.8,3.8,1.5,9.9-0.8,13.5c-1.6,2.6-3.6,4.3-5.8,5.1c-1,0.4-2,0.5-3,0.3c0.9-1.9,2-3.8,3.3-5.6c0.8-1.2,0.5-2.8-0.6-3.6
								c-1.2-0.8-2.8-0.5-3.6,0.6c-1.2,1.7-2.2,3.4-3.2,5.2C391.8,122.9,392.4,119.6,394.5,116.2L394.5,116.2z M394.5,116.2
								 M458.3,150.5c-0.3-0.3-0.7-0.3-1.2-0.3c-0.8,0.1-1.3,0.6-1.6,1.4c-0.1,0.5-0.6,0.9-1.2,0.9l-0.1,0c-0.7-0.1-1.2-0.8-1-1.5
								c0.5-1.7,1.7-2.7,3.7-2.9c1.3-0.2,2.4,0.1,3.2,0.7c0.8,0.6,1.3,1.4,1.4,2.4c0.1,1-0.1,1.9-0.8,2.8c-0.6,0.8-1.6,1.7-3.1,2.9
								c-0.2,0.2-0.1,0.5,0.2,0.5l3.3-0.4c0.7-0.1,1.2,0.4,1.3,1.1c0,0.6-0.4,1.1-1,1.2l-6,0.7c-0.8,0.1-1.5-0.5-1.6-1.3
								c-0.1-0.5,0.1-0.9,0.5-1.3c0.2-0.2,0.4-0.4,0.7-0.6c1.4-1.3,2.4-2.3,3.1-3.1c0.6-0.8,0.9-1.5,0.8-2.1
								C458.8,151.1,458.6,150.8,458.3,150.5z M425.6,156.8c-1.6,1.7-3.7,2.7-6.2,3c-3.1,0.4-5.8-0.4-8.1-2.3
								c-2.2-1.9-3.6-4.8-4.1-8.6c-0.4-3.6,0.2-6.6,1.8-9.2c1.6-2.5,4.1-4,7.4-4.4c4.6-0.6,7.8,1,9.6,4.8c0.8,1.6-0.2,3.5-1.9,3.8
								l-0.3,0c-1.3,0.2-2.5-0.5-3-1.7c-0.7-1.9-2.1-2.7-4-2.4c-2.9,0.4-4,3.1-3.4,8.3c0.4,3,1,5,1.9,5.9c0.9,1,2.1,1.4,3.5,1.2
								c1.8-0.2,2.9-1.3,3.4-3.2c0.3-1.1,1.3-1.9,2.4-2c1.9-0.1,3.3,1.7,2.7,3.5C427.1,154.8,426.5,155.9,425.6,156.8z M438.5,132.6
								c-5.9,0.7-10.1,6.8-9.3,13.6c0.8,6.8,6.3,11.7,12.3,10.9c5.9-0.7,10.1-6.8,9.3-13.6C449.9,136.7,444.4,131.8,438.5,132.6z
								 M441,152c-3.5,0.4-6.7-2.5-7.2-6.4c-0.5-4,2-7.6,5.5-8c3.5-0.4,6.7,2.5,7.2,6.4C446.9,148,444.5,151.5,441,152z"/>
						</g>
						<g>
							<path class="st3" d="M458.5,110.9c-9.2-7.2-20.6-10.4-32.2-9c-1.4,0.2-2.4,1.4-2.2,2.9c0.2,1.4,1.4,2.4,2.9,2.2
								c10.2-1.2,20.3,1.6,28.4,7.9c8.1,6.3,13.3,15.5,14.5,25.7c1.2,10.2-1.6,20.3-7.9,28.4c-6.3,8.1-15.5,13.3-25.7,14.5
								s-20.3-1.6-28.4-7.9c-8.1-6.3-13.3-15.5-14.5-25.7c-0.7-5.6-0.1-11.3,1.6-16.6c1.3,0.4,2.7,0.5,4.1,0.3
								c0.8-0.1,1.6-0.3,2.5-0.6c3.2-1.1,6.1-3.6,8.4-7.2c2-3.2,2.7-7.5,2.2-13c-0.4-3.9-1.3-6.9-1.4-7c-0.4-1.2-1.5-1.9-2.8-1.8
								c0,0,0,0,0,0c-0.1,0-3.3,0.5-6.9,1.7c-5.2,1.8-8.8,4.3-10.8,7.5c-2.3,3.6-3.3,7.2-2.9,10.6c0.3,2.7,1.4,5,3.2,6.8
								c-2.2,6.3-3,13-2.1,19.8c1.4,11.6,7.3,21.9,16.4,29.1c9.2,7.2,20.6,10.4,32.2,9c11.6-1.4,21.9-7.3,29.1-16.4
								c7.2-9.2,10.4-20.6,9-32.2C473.6,128.5,467.7,118.1,458.5,110.9L458.5,110.9z M394.5,116.2c2.3-3.6,8.2-5.6,11.9-6.4
								c0.8,3.8,1.5,9.9-0.8,13.5c-1.6,2.6-3.6,4.3-5.8,5.1c-1,0.4-2,0.5-3,0.3c0.9-1.9,2-3.8,3.3-5.6c0.8-1.2,0.5-2.8-0.6-3.6
								c-1.2-0.8-2.8-0.5-3.6,0.6c-1.2,1.7-2.2,3.4-3.2,5.2C391.8,122.9,392.4,119.6,394.5,116.2L394.5,116.2z M394.5,116.2
								 M458.3,150.5c-0.3-0.3-0.7-0.3-1.2-0.3c-0.8,0.1-1.3,0.6-1.6,1.4c-0.1,0.5-0.6,0.9-1.2,0.9l-0.1,0c-0.7-0.1-1.2-0.8-1-1.5
								c0.5-1.7,1.7-2.7,3.7-2.9c1.3-0.2,2.4,0.1,3.2,0.7c0.8,0.6,1.3,1.4,1.4,2.4c0.1,1-0.1,1.9-0.8,2.8c-0.6,0.8-1.6,1.7-3.1,2.9
								c-0.2,0.2-0.1,0.5,0.2,0.5l3.3-0.4c0.7-0.1,1.2,0.4,1.3,1.1c0,0.6-0.4,1.1-1,1.2l-6,0.7c-0.8,0.1-1.5-0.5-1.6-1.3
								c-0.1-0.5,0.1-0.9,0.5-1.3c0.2-0.2,0.4-0.4,0.7-0.6c1.4-1.3,2.4-2.3,3.1-3.1c0.6-0.8,0.9-1.5,0.8-2.1
								C458.8,151.1,458.6,150.8,458.3,150.5z M425.6,156.8c-1.6,1.7-3.7,2.7-6.2,3c-3.1,0.4-5.8-0.4-8.1-2.3
								c-2.2-1.9-3.6-4.8-4.1-8.6c-0.4-3.6,0.2-6.6,1.8-9.2c1.6-2.5,4.1-4,7.4-4.4c4.6-0.6,7.8,1,9.6,4.8c0.8,1.6-0.2,3.5-1.9,3.8
								l-0.3,0c-1.3,0.2-2.5-0.5-3-1.7c-0.7-1.9-2.1-2.7-4-2.4c-2.9,0.4-4,3.1-3.4,8.3c0.4,3,1,5,1.9,5.9c0.9,1,2.1,1.4,3.5,1.2
								c1.8-0.2,2.9-1.3,3.4-3.2c0.3-1.1,1.3-1.9,2.4-2c1.9-0.1,3.3,1.7,2.7,3.5C427.1,154.8,426.5,155.9,425.6,156.8z M438.5,132.6
								c-5.9,0.7-10.1,6.8-9.3,13.6c0.8,6.8,6.3,11.7,12.3,10.9c5.9-0.7,10.1-6.8,9.3-13.6C449.9,136.7,444.4,131.8,438.5,132.6z
								 M441,152c-3.5,0.4-6.7-2.5-7.2-6.4c-0.5-4,2-7.6,5.5-8c3.5-0.4,6.7,2.5,7.2,6.4C446.9,148,444.5,151.5,441,152z"/>
						</g>
					</g>
					<g>
						<g>
							<path class="st4" d="M484,66.9c12.8-0.3,25.5-0.6,38.1-0.8c6.2-6.5,12.5-12.5,18.8-18.2l20.2,11.7c-2.2,2-4.2,4-6.1,6.1
								c18.4-0.2,36.3-0.3,53.9-0.3l-1,24.5c-26.1,0.2-51.4,0.4-75.8,0.6c-2.9,3.2-5.7,6.5-8.4,9.9c13.9-3.3,27.7-5.5,41.2-6.6
								c13.1-0.6,22.5,1,28.2,4.9c7.7,3.3,12.1,13.5,13.3,30.6l0.2,4c0.8,15.7-1.1,31.9-5.6,48.8l-25.8-3.5
								c4.6-15.7,6.6-29.8,6-42.2c-0.5-9.9-2.4-16.2-5.7-18.8c-3.7-1.3-8-1.8-12.9-1.6c-4.8,0.2-12.5,1.3-23.2,3.1
								c-5.1,1.1-10.3,2.5-15.4,4.2c13.1,0.4,25.8,1.2,37.9,2.2l-0.8,21c-13.8-0.9-27.1-1.7-39.7-2.4c0.6,3.4,1.1,6.7,1.7,10.2
								c12.6-2.1,24.6-4.3,35.9-6.5l6.9,19.3c-11.9,3.1-25,5.6-39.5,7.6c0.6,2.9,1.2,5.8,1.6,8.4l-26.7,4.4
								c-3.6-19.7-6.8-39.3-9.9-59l-14.9-9.5c7.7-10.2,15.5-19.7,23.2-28.5c-6.2,0-12.2,0.1-18,0.1L484,66.9z"/>
							<path class="st4" d="M671.7,129.7c-14.2,0.1-25.8-2-34.9-6.2c-11.4-7-17.4-17.3-18.1-31c-0.8-16.3,4.2-32.3,15.1-48l8.2,3.6
								c12.6-3.3,26.1-5.3,40.4-6c9.6-0.5,18.5-0.4,26.5,0.2c7.9,1.3,15.7,4.4,23.4,9.3c8.3,6.2,12.7,15,13.2,26.3l0.3,6.4
								c0.5,10.9-2.7,19.7-9.6,26.4c-9.7,10.1-23,16-39.8,17.7c0.2,1.1,0.3,2.1,0.4,3c13.5-1.3,27.2-2.7,41.1-4.2l2.7,19.4
								c-13.6,1.7-27.3,3.2-40.9,4.5c0.3,2,0.5,3.8,0.7,5.5c16.1-1.5,32.3-3.1,48.6-4.9l2.7,19.4c-41.2,4.9-83,8.8-125.6,11.7
								l-2.9-19.5c17.4-1.3,35-2.7,52.8-4.2c-0.3-2-0.6-3.8-1-5.5c-13.5,1.2-27.2,2.2-40.8,3.2l-2.6-19.5c13.4-1,26.8-2.1,40.4-3.3
								C672,132.3,671.9,130.9,671.7,129.7z M645.2,94.5c1.4,5.1,4,8.6,7.8,10.5c4.6,2.1,9.8,3.3,15.7,3.7c-0.7-4.8-1.4-9.6-2-14.2
								C659.4,94.3,652.3,94.3,645.2,94.5z M662.8,66.3c-4.9,1.3-9.9,3.1-15.1,5.2c-0.5,1.2-1,2.4-1.3,3.6
								c5.9-0.2,11.8-0.2,17.6-0.1C663.5,72.1,663.1,69.2,662.8,66.3z M693.5,107.4c9.6-1.4,16.5-4.3,20.9-8.8
								c4.2-4.1,6.1-9.2,5.8-15.3c-0.4-7.4-3.4-12.7-9-15.9c-4.7-2.7-12.8-4.1-24.2-4.2c0.7,4.2,1.3,8.5,1.8,12.7
								c7,0.4,13.7,0.8,20.3,1.4l-0.8,19.1c-5.7-0.4-11.3-0.7-16.7-1C692.3,99.5,693,103.5,693.5,107.4z"/>
						</g>
						<g>
							<path class="st1" d="M484,66.9c12.8-0.3,25.5-0.6,38.1-0.8c6.2-6.5,12.5-12.5,18.8-18.2l20.2,11.7c-2.2,2-4.2,4-6.1,6.1
								c18.4-0.2,36.3-0.3,53.9-0.3l-1,24.5c-26.1,0.2-51.4,0.4-75.8,0.6c-2.9,3.2-5.7,6.5-8.4,9.9c13.9-3.3,27.7-5.5,41.2-6.6
								c13.1-0.6,22.5,1,28.2,4.9c7.7,3.3,12.1,13.5,13.3,30.6l0.2,4c0.8,15.7-1.1,31.9-5.6,48.8l-25.8-3.5
								c4.6-15.7,6.6-29.8,6-42.2c-0.5-9.9-2.4-16.2-5.7-18.8c-3.7-1.3-8-1.8-12.9-1.6c-4.8,0.2-12.5,1.3-23.2,3.1
								c-5.1,1.1-10.3,2.5-15.4,4.2c13.1,0.4,25.8,1.2,37.9,2.2l-0.8,21c-13.8-0.9-27.1-1.7-39.7-2.4c0.6,3.4,1.1,6.7,1.7,10.2
								c12.6-2.1,24.6-4.3,35.9-6.5l6.9,19.3c-11.9,3.1-25,5.6-39.5,7.6c0.6,2.9,1.2,5.8,1.6,8.4l-26.7,4.4
								c-3.6-19.7-6.8-39.3-9.9-59l-14.9-9.5c7.7-10.2,15.5-19.7,23.2-28.5c-6.2,0-12.2,0.1-18,0.1L484,66.9z"/>
							<path class="st1" d="M671.7,129.7c-14.2,0.1-25.8-2-34.9-6.2c-11.4-7-17.4-17.3-18.1-31c-0.8-16.3,4.2-32.3,15.1-48l8.2,3.6
								c12.6-3.3,26.1-5.3,40.4-6c9.6-0.5,18.5-0.4,26.5,0.2c7.9,1.3,15.7,4.4,23.4,9.3c8.3,6.2,12.7,15,13.2,26.3l0.3,6.4
								c0.5,10.9-2.7,19.7-9.6,26.4c-9.7,10.1-23,16-39.8,17.7c0.2,1.1,0.3,2.1,0.4,3c13.5-1.3,27.2-2.7,41.1-4.2l2.7,19.4
								c-13.6,1.7-27.3,3.2-40.9,4.5c0.3,2,0.5,3.8,0.7,5.5c16.1-1.5,32.3-3.1,48.6-4.9l2.7,19.4c-41.2,4.9-83,8.8-125.6,11.7
								l-2.9-19.5c17.4-1.3,35-2.7,52.8-4.2c-0.3-2-0.6-3.8-1-5.5c-13.5,1.2-27.2,2.2-40.8,3.2l-2.6-19.5c13.4-1,26.8-2.1,40.4-3.3
								C672,132.3,671.9,130.9,671.7,129.7z M645.2,94.5c1.4,5.1,4,8.6,7.8,10.5c4.6,2.1,9.8,3.3,15.7,3.7c-0.7-4.8-1.4-9.6-2-14.2
								C659.4,94.3,652.3,94.3,645.2,94.5z M662.8,66.3c-4.9,1.3-9.9,3.1-15.1,5.2c-0.5,1.2-1,2.4-1.3,3.6
								c5.9-0.2,11.8-0.2,17.6-0.1C663.5,72.1,663.1,69.2,662.8,66.3z M693.5,107.4c9.6-1.4,16.5-4.3,20.9-8.8
								c4.2-4.1,6.1-9.2,5.8-15.3c-0.4-7.4-3.4-12.7-9-15.9c-4.7-2.7-12.8-4.1-24.2-4.2c0.7,4.2,1.3,8.5,1.8,12.7
								c7,0.4,13.7,0.8,20.3,1.4l-0.8,19.1c-5.7-0.4-11.3-0.7-16.7-1C692.3,99.5,693,103.5,693.5,107.4z"/>
						</g>
						<g>
							<path class="st5" d="M484,66.9c12.8-0.3,25.5-0.6,38.1-0.8c6.2-6.5,12.5-12.5,18.8-18.2l20.2,11.7c-2.2,2-4.2,4-6.1,6.1
								c18.4-0.2,36.3-0.3,53.9-0.3l-1,24.5c-26.1,0.2-51.4,0.4-75.8,0.6c-2.9,3.2-5.7,6.5-8.4,9.9c13.9-3.3,27.7-5.5,41.2-6.6
								c13.1-0.6,22.5,1,28.2,4.9c7.7,3.3,12.1,13.5,13.3,30.6l0.2,4c0.8,15.7-1.1,31.9-5.6,48.8l-25.8-3.5
								c4.6-15.7,6.6-29.8,6-42.2c-0.5-9.9-2.4-16.2-5.7-18.8c-3.7-1.3-8-1.8-12.9-1.6c-4.8,0.2-12.5,1.3-23.2,3.1
								c-5.1,1.1-10.3,2.5-15.4,4.2c13.1,0.4,25.8,1.2,37.9,2.2l-0.8,21c-13.8-0.9-27.1-1.7-39.7-2.4c0.6,3.4,1.1,6.7,1.7,10.2
								c12.6-2.1,24.6-4.3,35.9-6.5l6.9,19.3c-11.9,3.1-25,5.6-39.5,7.6c0.6,2.9,1.2,5.8,1.6,8.4l-26.7,4.4
								c-3.6-19.7-6.8-39.3-9.9-59l-14.9-9.5c7.7-10.2,15.5-19.7,23.2-28.5c-6.2,0-12.2,0.1-18,0.1L484,66.9z"/>
							<path class="st5" d="M671.7,129.7c-14.2,0.1-25.8-2-34.9-6.2c-11.4-7-17.4-17.3-18.1-31c-0.8-16.3,4.2-32.3,15.1-48l8.2,3.6
								c12.6-3.3,26.1-5.3,40.4-6c9.6-0.5,18.5-0.4,26.5,0.2c7.9,1.3,15.7,4.4,23.4,9.3c8.3,6.2,12.7,15,13.2,26.3l0.3,6.4
								c0.5,10.9-2.7,19.7-9.6,26.4c-9.7,10.1-23,16-39.8,17.7c0.2,1.1,0.3,2.1,0.4,3c13.5-1.3,27.2-2.7,41.1-4.2l2.7,19.4
								c-13.6,1.7-27.3,3.2-40.9,4.5c0.3,2,0.5,3.8,0.7,5.5c16.1-1.5,32.3-3.1,48.6-4.9l2.7,19.4c-41.2,4.9-83,8.8-125.6,11.7
								l-2.9-19.5c17.4-1.3,35-2.7,52.8-4.2c-0.3-2-0.6-3.8-1-5.5c-13.5,1.2-27.2,2.2-40.8,3.2l-2.6-19.5c13.4-1,26.8-2.1,40.4-3.3
								C672,132.3,671.9,130.9,671.7,129.7z M645.2,94.5c1.4,5.1,4,8.6,7.8,10.5c4.6,2.1,9.8,3.3,15.7,3.7c-0.7-4.8-1.4-9.6-2-14.2
								C659.4,94.3,652.3,94.3,645.2,94.5z M662.8,66.3c-4.9,1.3-9.9,3.1-15.1,5.2c-0.5,1.2-1,2.4-1.3,3.6
								c5.9-0.2,11.8-0.2,17.6-0.1C663.5,72.1,663.1,69.2,662.8,66.3z M693.5,107.4c9.6-1.4,16.5-4.3,20.9-8.8
								c4.2-4.1,6.1-9.2,5.8-15.3c-0.4-7.4-3.4-12.7-9-15.9c-4.7-2.7-12.8-4.1-24.2-4.2c0.7,4.2,1.3,8.5,1.8,12.7
								c7,0.4,13.7,0.8,20.3,1.4l-0.8,19.1c-5.7-0.4-11.3-0.7-16.7-1C692.3,99.5,693,103.5,693.5,107.4z"/>
						</g>
					</g>
				</g>
			</g>
			<g>
				<g>
					
						<ellipse transform="matrix(0.5059 -0.8626 0.8626 0.5059 -151.9504 273.8672)" class="st6" cx="163.1" cy="269.6" rx="12.8" ry="28.2"/>
				</g>
				<g>
					<g>
						<path class="st1" d="M167.5,295.9c-8.4,0-16.8-2-24.5-6.1c-8.9-4.7-14.1-11.4-19-17.9c-2.8-3.6-5.4-7-8.7-10.1
							c-1.6-1.5-2.4-3.7-2-5.9c0.3-2.2,1.7-4.1,3.7-5c21.6-10.5,43-11.6,58.8-2.8c11.5,6.4,18.7,17.2,20.1,30.4
							c0.3,2.7-1.1,5.3-3.5,6.6c0,0.8-0.1,1.6-0.3,2.3c-0.6,1.8-1.9,3.3-3.7,4.1C181.6,294.5,174.5,295.9,167.5,295.9z M135.4,264.8
							c4.2,5.4,7.9,10,13.9,13.2c7.9,4.2,16.8,5.5,25.4,3.8c-9.1-9.9-23.4-16.5-37.4-16.8C136.6,265,136,264.9,135.4,264.8z"/>
					</g>
					<g>
						<path class="st7" d="M137.4,258.3c20.1-3,42.5,5.8,51.8,20.9c-2.8-26.2-32.7-40.1-69.3-22.3c9.7,9.1,14,20.4,26.2,26.9
							c12.2,6.5,26.8,7,39.5,1.5C176.7,269.9,157.2,258.7,137.4,258.3L137.4,258.3z"/>
					</g>
				</g>
			</g>
		</g>
	</g>
	<g>
		
			<image style="overflow:visible;opacity:0.5;" width="838" height="330" xlink:href="2453EBFA.png"  transform="matrix(1 0 0 1 435.9999 160)">
		</image>
		<g>
			<g>
				<polygon class="st8" points="1190.7,374.5 463.1,357.4 461.2,279.9 1238.4,260.2 				"/>
			</g>
			<g>
				<g>
					<path class="st9" d="M551.7,205.6l17.4,5.6c-1.3,1.3-2.2,3-2.9,5.1c-0.1,1.4,2,2.4,6.4,3.2c3,0.5,6.8,1,11.4,1.5
						c-0.2-4.4-0.5-8.5-0.7-12.3l20.1-0.2c0.2,4.5,0.5,9.3,0.8,14.2c5.1,0.2,9.3,0,12.7-0.5c2.1-0.3,3.2-1.1,3.3-2.3
						c-0.1-1.8-0.9-3.4-2.4-4.9l18.5-2.8c1.5,4.5,2.1,9.4,1.7,14.5c-0.3,4.1-2.2,6.9-5.5,8.4c-3,1.4-7.3,2.4-12.9,2.8
						c-3,0.2-5.9,0.3-8.7,0.4c0.4,1.1,0.9,2.1,1.4,2.9c7,0.4,13.8,0.9,20.4,1.4l0.4,12.4c-9.2-0.7-18-1.3-26.3-1.7c0,1,0,2,0.1,3.1
						c7.4,0.4,14.9,0.9,22.5,1.5l0.2,10.5c-7.5-0.6-14.9-1.1-22.2-1.4c0,1.1,0,2.1,0.1,3.1c7.5,0.4,15.2,0.9,23.1,1.5l0.4,11.8
						c-7.8-0.6-15.6-1.1-23.2-1.5c0,1,0,1.9,0.1,2.8c8.6,0.5,17.4,1.1,26.3,1.7l0.3,12c-21.1-1.6-42.4-2.6-63.7-2.7
						c-0.1,0.7-0.1,1.3,0,1.9l-18.9,0.3c-0.3-15.1-0.6-28.8-0.8-41.3c-1.1,0.5-2.2,1-3.2,1.4l-5-13.7l0.1,16.1
						c-2.6-0.2-5.2-0.4-7.8-0.5c0,4.7,0,9.5,0.1,14.3c2.1-0.5,4.2-1.1,6.2-1.6l3.9,18.8c-3.2,1.1-6.5,2.2-9.8,3.1
						c0,8.3,0.1,16.6,0.1,25.1l-19.5,0.3c-0.1-7.5-0.2-14.8-0.2-21.9c-2.9,0.5-5.9,0.8-8.9,1.1l-3.2-19.2c4.1-0.6,8.1-1.2,12.1-1.9
						c0-6.1-0.1-12-0.1-17.6c-3.4,0.4-6.7,0.9-10,1.3l-0.2-20.1c3.4-0.6,6.8-1,10.1-1.3c-0.1-6.8-0.1-13.4-0.2-20l19.6-0.1
						c0,6.4,0,12.9,0.1,19.6c2.6,0.1,5.1,0.2,7.6,0.4l0.1,2.7c7.7-3.4,15.1-6.4,22-8.9c-2.7-0.5-5-1.1-7-1.7c-7-2-10.3-5.5-10-10.5
						C548,217.1,549.4,211.7,551.7,205.6z M556.9,298.3c0,1,0.1,1.9,0.2,2.8c5.1-0.7,10.9-1.3,17.4-1.7c10.7-1,22.8-1,36.3,0
						c7.4,0.6,13.8,2.8,19,6.6c4.5,3.9,6.6,9.1,6.3,15.7l-0.1,1.6c-1.2,8.6-3.6,16.5-7.3,23.6l-16.7-5c4.1-7.2,6.3-13.2,6.7-18.1
						c0.1-3.6-0.7-6.4-2.3-8.3c-1.9-1.1-3.9-1.9-6.2-2.4c1.3,1.7,2.5,3.4,3.6,5.3l-4.9,4.5c0.7,0.3,1.2,0.7,1.5,1
						c2.2,1.9,3.2,4.6,2.9,8.1l-0.1,1.3c-0.2,2.2-0.7,4.1-1.6,5.9c-1.9,2.1-4.9,3.2-9,3.3c-2.9,0.6-7,0.6-12.4,0.2l-2.3-0.2
						c-8.7-0.7-14.6-1.7-17.8-3c-4-1.7-5.8-5.4-5.3-11.2c0.1-1.6,0.4-3,0.9-4.2l-5.6-4.6c1.6-1.9,3.2-3.7,4.8-5.4
						c-2.4,0.4-4.6,0.7-6.6,1c1,7.5,2.4,15.1,4.3,22.9l-17.9,3.9c-3.1-12.9-5.1-26.2-5.9-39.9L556.9,298.3z M569.9,255
						c6.1,0.1,12.3,0.2,18.6,0.4c0-1.1,0-2.1-0.1-3c-6.4-0.3-12.6-0.5-18.7-0.6C569.7,253,569.8,254,569.9,255z M588.9,269.4
						c0-1.1,0-2.2,0-3.3c-6.3-0.1-12.5-0.2-18.7-0.3c0,1.1,0,2.1,0.1,3.1C576.2,269,582.5,269.2,588.9,269.4z M589.2,284
						c0-1,0-1.9-0.1-2.8c-6.4-0.2-12.7-0.3-18.9-0.4c0,1,0,2,0.1,3C576.5,283.7,582.8,283.8,589.2,284z M575.4,239.7
						c5.5,0.1,10.9,0.3,16.2,0.5c-0.3-1-0.6-2-0.9-3c-6.6-0.5-12.2-1-16.9-1.6L575.4,239.7z M591.4,328c-3.8-0.2-7.9,0.2-12.3,1.1
						c0.1,1.4,0.3,2.2,0.7,2.4c2.5,0.8,5.2,1.3,8.1,1.5l7.5,0.6c1.7-0.1,2.7-0.3,3.2-0.8c0.3-0.5,0.6-0.8,0.7-1.1
						c0.1-1.5-0.6-2.4-2.3-2.8C595.4,328.5,593.6,328.2,591.4,328z M581.2,319.1c4-0.5,7.8-0.6,11.5-0.3c1.6,0.1,3,0.3,4.4,0.5
						c-2.1-2.4-4.2-4.7-6.4-6.8c-1.2,0-2.3,0-3.3,0C585.3,314.7,583.2,316.9,581.2,319.1z"/>
				</g>
				<g>
					<path class="st1" d="M551.7,205.6l17.4,5.6c-1.3,1.3-2.2,3-2.9,5.1c-0.1,1.4,2,2.4,6.4,3.2c3,0.5,6.8,1,11.4,1.5
						c-0.2-4.4-0.5-8.5-0.7-12.3l20.1-0.2c0.2,4.5,0.5,9.3,0.8,14.2c5.1,0.2,9.3,0,12.7-0.5c2.1-0.3,3.2-1.1,3.3-2.3
						c-0.1-1.8-0.9-3.4-2.4-4.9l18.5-2.8c1.5,4.5,2.1,9.4,1.7,14.5c-0.3,4.1-2.2,6.9-5.5,8.4c-3,1.4-7.3,2.4-12.9,2.8
						c-3,0.2-5.9,0.3-8.7,0.4c0.4,1.1,0.9,2.1,1.4,2.9c7,0.4,13.8,0.9,20.4,1.4l0.4,12.4c-9.2-0.7-18-1.3-26.3-1.7c0,1,0,2,0.1,3.1
						c7.4,0.4,14.9,0.9,22.5,1.5l0.2,10.5c-7.5-0.6-14.9-1.1-22.2-1.4c0,1.1,0,2.1,0.1,3.1c7.5,0.4,15.2,0.9,23.1,1.5l0.4,11.8
						c-7.8-0.6-15.6-1.1-23.2-1.5c0,1,0,1.9,0.1,2.8c8.6,0.5,17.4,1.1,26.3,1.7l0.3,12c-21.1-1.6-42.4-2.6-63.7-2.7
						c-0.1,0.7-0.1,1.3,0,1.9l-18.9,0.3c-0.3-15.1-0.6-28.8-0.8-41.3c-1.1,0.5-2.2,1-3.2,1.4l-5-13.7l0.1,16.1
						c-2.6-0.2-5.2-0.4-7.8-0.5c0,4.7,0,9.5,0.1,14.3c2.1-0.5,4.2-1.1,6.2-1.6l3.9,18.8c-3.2,1.1-6.5,2.2-9.8,3.1
						c0,8.3,0.1,16.6,0.1,25.1l-19.5,0.3c-0.1-7.5-0.2-14.8-0.2-21.9c-2.9,0.5-5.9,0.8-8.9,1.1l-3.2-19.2c4.1-0.6,8.1-1.2,12.1-1.9
						c0-6.1-0.1-12-0.1-17.6c-3.4,0.4-6.7,0.9-10,1.3l-0.2-20.1c3.4-0.6,6.8-1,10.1-1.3c-0.1-6.8-0.1-13.4-0.2-20l19.6-0.1
						c0,6.4,0,12.9,0.1,19.6c2.6,0.1,5.1,0.2,7.6,0.4l0.1,2.7c7.7-3.4,15.1-6.4,22-8.9c-2.7-0.5-5-1.1-7-1.7c-7-2-10.3-5.5-10-10.5
						C548,217.1,549.4,211.7,551.7,205.6z M556.9,298.3c0,1,0.1,1.9,0.2,2.8c5.1-0.7,10.9-1.3,17.4-1.7c10.7-1,22.8-1,36.3,0
						c7.4,0.6,13.8,2.8,19,6.6c4.5,3.9,6.6,9.1,6.3,15.7l-0.1,1.6c-1.2,8.6-3.6,16.5-7.3,23.6l-16.7-5c4.1-7.2,6.3-13.2,6.7-18.1
						c0.1-3.6-0.7-6.4-2.3-8.3c-1.9-1.1-3.9-1.9-6.2-2.4c1.3,1.7,2.5,3.4,3.6,5.3l-4.9,4.5c0.7,0.3,1.2,0.7,1.5,1
						c2.2,1.9,3.2,4.6,2.9,8.1l-0.1,1.3c-0.2,2.2-0.7,4.1-1.6,5.9c-1.9,2.1-4.9,3.2-9,3.3c-2.9,0.6-7,0.6-12.4,0.2l-2.3-0.2
						c-8.7-0.7-14.6-1.7-17.8-3c-4-1.7-5.8-5.4-5.3-11.2c0.1-1.6,0.4-3,0.9-4.2l-5.6-4.6c1.6-1.9,3.2-3.7,4.8-5.4
						c-2.4,0.4-4.6,0.7-6.6,1c1,7.5,2.4,15.1,4.3,22.9l-17.9,3.9c-3.1-12.9-5.1-26.2-5.9-39.9L556.9,298.3z M569.9,255
						c6.1,0.1,12.3,0.2,18.6,0.4c0-1.1,0-2.1-0.1-3c-6.4-0.3-12.6-0.5-18.7-0.6C569.7,253,569.8,254,569.9,255z M588.9,269.4
						c0-1.1,0-2.2,0-3.3c-6.3-0.1-12.5-0.2-18.7-0.3c0,1.1,0,2.1,0.1,3.1C576.2,269,582.5,269.2,588.9,269.4z M589.2,284
						c0-1,0-1.9-0.1-2.8c-6.4-0.2-12.7-0.3-18.9-0.4c0,1,0,2,0.1,3C576.5,283.7,582.8,283.8,589.2,284z M575.4,239.7
						c5.5,0.1,10.9,0.3,16.2,0.5c-0.3-1-0.6-2-0.9-3c-6.6-0.5-12.2-1-16.9-1.6L575.4,239.7z M591.4,328c-3.8-0.2-7.9,0.2-12.3,1.1
						c0.1,1.4,0.3,2.2,0.7,2.4c2.5,0.8,5.2,1.3,8.1,1.5l7.5,0.6c1.7-0.1,2.7-0.3,3.2-0.8c0.3-0.5,0.6-0.8,0.7-1.1
						c0.1-1.5-0.6-2.4-2.3-2.8C595.4,328.5,593.6,328.2,591.4,328z M581.2,319.1c4-0.5,7.8-0.6,11.5-0.3c1.6,0.1,3,0.3,4.4,0.5
						c-2.1-2.4-4.2-4.7-6.4-6.8c-1.2,0-2.3,0-3.3,0C585.3,314.7,583.2,316.9,581.2,319.1z"/>
				</g>
				<g>
					<path class="st10" d="M551.7,205.6l17.4,5.6c-1.3,1.3-2.2,3-2.9,5.1c-0.1,1.4,2,2.4,6.4,3.2c3,0.5,6.8,1,11.4,1.5
						c-0.2-4.4-0.5-8.5-0.7-12.3l20.1-0.2c0.2,4.5,0.5,9.3,0.8,14.2c5.1,0.2,9.3,0,12.7-0.5c2.1-0.3,3.2-1.1,3.3-2.3
						c-0.1-1.8-0.9-3.4-2.4-4.9l18.5-2.8c1.5,4.5,2.1,9.4,1.7,14.5c-0.3,4.1-2.2,6.9-5.5,8.4c-3,1.4-7.3,2.4-12.9,2.8
						c-3,0.2-5.9,0.3-8.7,0.4c0.4,1.1,0.9,2.1,1.4,2.9c7,0.4,13.8,0.9,20.4,1.4l0.4,12.4c-9.2-0.7-18-1.3-26.3-1.7c0,1,0,2,0.1,3.1
						c7.4,0.4,14.9,0.9,22.5,1.5l0.2,10.5c-7.5-0.6-14.9-1.1-22.2-1.4c0,1.1,0,2.1,0.1,3.1c7.5,0.4,15.2,0.9,23.1,1.5l0.4,11.8
						c-7.8-0.6-15.6-1.1-23.2-1.5c0,1,0,1.9,0.1,2.8c8.6,0.5,17.4,1.1,26.3,1.7l0.3,12c-21.1-1.6-42.4-2.6-63.7-2.7
						c-0.1,0.7-0.1,1.3,0,1.9l-18.9,0.3c-0.3-15.1-0.6-28.8-0.8-41.3c-1.1,0.5-2.2,1-3.2,1.4l-5-13.7l0.1,16.1
						c-2.6-0.2-5.2-0.4-7.8-0.5c0,4.7,0,9.5,0.1,14.3c2.1-0.5,4.2-1.1,6.2-1.6l3.9,18.8c-3.2,1.1-6.5,2.2-9.8,3.1
						c0,8.3,0.1,16.6,0.1,25.1l-19.5,0.3c-0.1-7.5-0.2-14.8-0.2-21.9c-2.9,0.5-5.9,0.8-8.9,1.1l-3.2-19.2c4.1-0.6,8.1-1.2,12.1-1.9
						c0-6.1-0.1-12-0.1-17.6c-3.4,0.4-6.7,0.9-10,1.3l-0.2-20.1c3.4-0.6,6.8-1,10.1-1.3c-0.1-6.8-0.1-13.4-0.2-20l19.6-0.1
						c0,6.4,0,12.9,0.1,19.6c2.6,0.1,5.1,0.2,7.6,0.4l0.1,2.7c7.7-3.4,15.1-6.4,22-8.9c-2.7-0.5-5-1.1-7-1.7c-7-2-10.3-5.5-10-10.5
						C548,217.1,549.4,211.7,551.7,205.6z M556.9,298.3c0,1,0.1,1.9,0.2,2.8c5.1-0.7,10.9-1.3,17.4-1.7c10.7-1,22.8-1,36.3,0
						c7.4,0.6,13.8,2.8,19,6.6c4.5,3.9,6.6,9.1,6.3,15.7l-0.1,1.6c-1.2,8.6-3.6,16.5-7.3,23.6l-16.7-5c4.1-7.2,6.3-13.2,6.7-18.1
						c0.1-3.6-0.7-6.4-2.3-8.3c-1.9-1.1-3.9-1.9-6.2-2.4c1.3,1.7,2.5,3.4,3.6,5.3l-4.9,4.5c0.7,0.3,1.2,0.7,1.5,1
						c2.2,1.9,3.2,4.6,2.9,8.1l-0.1,1.3c-0.2,2.2-0.7,4.1-1.6,5.9c-1.9,2.1-4.9,3.2-9,3.3c-2.9,0.6-7,0.6-12.4,0.2l-2.3-0.2
						c-8.7-0.7-14.6-1.7-17.8-3c-4-1.7-5.8-5.4-5.3-11.2c0.1-1.6,0.4-3,0.9-4.2l-5.6-4.6c1.6-1.9,3.2-3.7,4.8-5.4
						c-2.4,0.4-4.6,0.7-6.6,1c1,7.5,2.4,15.1,4.3,22.9l-17.9,3.9c-3.1-12.9-5.1-26.2-5.9-39.9L556.9,298.3z M569.9,255
						c6.1,0.1,12.3,0.2,18.6,0.4c0-1.1,0-2.1-0.1-3c-6.4-0.3-12.6-0.5-18.7-0.6C569.7,253,569.8,254,569.9,255z M588.9,269.4
						c0-1.1,0-2.2,0-3.3c-6.3-0.1-12.5-0.2-18.7-0.3c0,1.1,0,2.1,0.1,3.1C576.2,269,582.5,269.2,588.9,269.4z M589.2,284
						c0-1,0-1.9-0.1-2.8c-6.4-0.2-12.7-0.3-18.9-0.4c0,1,0,2,0.1,3C576.5,283.7,582.8,283.8,589.2,284z M575.4,239.7
						c5.5,0.1,10.9,0.3,16.2,0.5c-0.3-1-0.6-2-0.9-3c-6.6-0.5-12.2-1-16.9-1.6L575.4,239.7z M591.4,328c-3.8-0.2-7.9,0.2-12.3,1.1
						c0.1,1.4,0.3,2.2,0.7,2.4c2.5,0.8,5.2,1.3,8.1,1.5l7.5,0.6c1.7-0.1,2.7-0.3,3.2-0.8c0.3-0.5,0.6-0.8,0.7-1.1
						c0.1-1.5-0.6-2.4-2.3-2.8C595.4,328.5,593.6,328.2,591.4,328z M581.2,319.1c4-0.5,7.8-0.6,11.5-0.3c1.6,0.1,3,0.3,4.4,0.5
						c-2.1-2.4-4.2-4.7-6.4-6.8c-1.2,0-2.3,0-3.3,0C585.3,314.7,583.2,316.9,581.2,319.1z"/>
				</g>
			</g>
			<g>
				<g>
					<path class="st9" d="M911.7,258.3c0.1,1,0.1,1.9,0.2,2.8c7.5-1.5,15.2-2.1,22.9-1.8c7.5,0.3,14.1,2.7,19.9,7
						c6.6,5.1,9.6,13.8,9,26l-0.2,4.9c-0.4,8.4-1.4,18.1-3.2,29c-1.6,9.9-3.5,17.8-5.6,23.6l-22-5.7c2.9-10.5,5.1-20.9,6.5-31.1
						c1.3-8.9,2-15.6,2.2-20.2c0.2-5.5-1.1-9.2-4.1-11.2c-2-1.1-5.1-1.7-9.3-1.9c-4.5,0.4-9.4,1.1-14.5,2c0.1,0.8,0.1,1.5,0.2,2.2
						c8.1,0.6,16.3,1.7,24.5,3.3l-2.6,18.7c-6.7-1.1-13.5-2-20.4-2.8c0.4,2.9,0.7,5.7,1,8.6c5-0.9,9.9-1.9,14.6-3.2l5.1,19.1
						c-5.6,1.8-11.5,3.3-17.9,4.4c0.3,4.2,0.7,8.4,1.1,12.6l-22.3,1.4c-3.1-28.7-5.6-57.5-7.6-86.2L911.7,258.3z M938.3,215.8
						c0.8,6.3,2.4,12.7,4.8,19.2c9.5,0.7,18.8,1.6,28,2.7c4.3-8.4,8.1-15.8,11.4-22.3l21.9,8.6c-3.3,5.6-6.2,11-8.7,16.4
						c7.8,0.9,15.6,1.9,23.3,3.1l-4.4,20.6c-45.7-5.3-85.3-9-118.7-11l4.6-20.6c5.9,0.3,11.8,0.6,17.6,0.9c-1-4-1.8-8-2.4-12
						L938.3,215.8z M988.9,271.2c1,18.8,2,39.5,3.2,62l-22.6,1.2c-1.2-23.3-2.2-44-3.2-62L988.9,271.2z M1017.2,267.1
						c1.5,4.7,2.5,16.7,3.2,36.1c1.4,24.2,2,39.9,1.7,47.1l-22.6,1.5c0.2-22.2-0.4-38.9-1.7-50.2c-0.5-11.5-1.4-22.6-2.8-33.3
						L1017.2,267.1z"/>
				</g>
				<g>
					<path class="st11" d="M911.7,258.3c0.1,1,0.1,1.9,0.2,2.8c7.5-1.5,15.2-2.1,22.9-1.8c7.5,0.3,14.1,2.7,19.9,7
						c6.6,5.1,9.6,13.8,9,26l-0.2,4.9c-0.4,8.4-1.4,18.1-3.2,29c-1.6,9.9-3.5,17.8-5.6,23.6l-22-5.7c2.9-10.5,5.1-20.9,6.5-31.1
						c1.3-8.9,2-15.6,2.2-20.2c0.2-5.5-1.1-9.2-4.1-11.2c-2-1.1-5.1-1.7-9.3-1.9c-4.5,0.4-9.4,1.1-14.5,2c0.1,0.8,0.1,1.5,0.2,2.2
						c8.1,0.6,16.3,1.7,24.5,3.3l-2.6,18.7c-6.7-1.1-13.5-2-20.4-2.8c0.4,2.9,0.7,5.7,1,8.6c5-0.9,9.9-1.9,14.6-3.2l5.1,19.1
						c-5.6,1.8-11.5,3.3-17.9,4.4c0.3,4.2,0.7,8.4,1.1,12.6l-22.3,1.4c-3.1-28.7-5.6-57.5-7.6-86.2L911.7,258.3z M938.3,215.8
						c0.8,6.3,2.4,12.7,4.8,19.2c9.5,0.7,18.8,1.6,28,2.7c4.3-8.4,8.1-15.8,11.4-22.3l21.9,8.6c-3.3,5.6-6.2,11-8.7,16.4
						c7.8,0.9,15.6,1.9,23.3,3.1l-4.4,20.6c-45.7-5.3-85.3-9-118.7-11l4.6-20.6c5.9,0.3,11.8,0.6,17.6,0.9c-1-4-1.8-8-2.4-12
						L938.3,215.8z M988.9,271.2c1,18.8,2,39.5,3.2,62l-22.6,1.2c-1.2-23.3-2.2-44-3.2-62L988.9,271.2z M1017.2,267.1
						c1.5,4.7,2.5,16.7,3.2,36.1c1.4,24.2,2,39.9,1.7,47.1l-22.6,1.5c0.2-22.2-0.4-38.9-1.7-50.2c-0.5-11.5-1.4-22.6-2.8-33.3
						L1017.2,267.1z"/>
				</g>
				<g>
					<path class="st12" d="M911.7,258.3c0.1,1,0.1,1.9,0.2,2.8c7.5-1.5,15.2-2.1,22.9-1.8c7.5,0.3,14.1,2.7,19.9,7
						c6.6,5.1,9.6,13.8,9,26l-0.2,4.9c-0.4,8.4-1.4,18.1-3.2,29c-1.6,9.9-3.5,17.8-5.6,23.6l-22-5.7c2.9-10.5,5.1-20.9,6.5-31.1
						c1.3-8.9,2-15.6,2.2-20.2c0.2-5.5-1.1-9.2-4.1-11.2c-2-1.1-5.1-1.7-9.3-1.9c-4.5,0.4-9.4,1.1-14.5,2c0.1,0.8,0.1,1.5,0.2,2.2
						c8.1,0.6,16.3,1.7,24.5,3.3l-2.6,18.7c-6.7-1.1-13.5-2-20.4-2.8c0.4,2.9,0.7,5.7,1,8.6c5-0.9,9.9-1.9,14.6-3.2l5.1,19.1
						c-5.6,1.8-11.5,3.3-17.9,4.4c0.3,4.2,0.7,8.4,1.1,12.6l-22.3,1.4c-3.1-28.7-5.6-57.5-7.6-86.2L911.7,258.3z M938.3,215.8
						c0.8,6.3,2.4,12.7,4.8,19.2c9.5,0.7,18.8,1.6,28,2.7c4.3-8.4,8.1-15.8,11.4-22.3l21.9,8.6c-3.3,5.6-6.2,11-8.7,16.4
						c7.8,0.9,15.6,1.9,23.3,3.1l-4.4,20.6c-45.7-5.3-85.3-9-118.7-11l4.6-20.6c5.9,0.3,11.8,0.6,17.6,0.9c-1-4-1.8-8-2.4-12
						L938.3,215.8z M988.9,271.2c1,18.8,2,39.5,3.2,62l-22.6,1.2c-1.2-23.3-2.2-44-3.2-62L988.9,271.2z M1017.2,267.1
						c1.5,4.7,2.5,16.7,3.2,36.1c1.4,24.2,2,39.9,1.7,47.1l-22.6,1.5c0.2-22.2-0.4-38.9-1.7-50.2c-0.5-11.5-1.4-22.6-2.8-33.3
						L1017.2,267.1z"/>
				</g>
				<g>
					<path class="st13" d="M911.7,258.3c0.1,1,0.1,1.9,0.2,2.8c7.5-1.5,15.2-2.1,22.9-1.8c7.5,0.3,14.1,2.7,19.9,7
						c6.6,5.1,9.6,13.8,9,26l-0.2,4.9c-0.4,8.4-1.4,18.1-3.2,29c-1.6,9.9-3.5,17.8-5.6,23.6l-22-5.7c2.9-10.5,5.1-20.9,6.5-31.1
						c1.3-8.9,2-15.6,2.2-20.2c0.2-5.5-1.1-9.2-4.1-11.2c-2-1.1-5.1-1.7-9.3-1.9c-4.5,0.4-9.4,1.1-14.5,2c0.1,0.8,0.1,1.5,0.2,2.2
						c8.1,0.6,16.3,1.7,24.5,3.3l-2.6,18.7c-6.7-1.1-13.5-2-20.4-2.8c0.4,2.9,0.7,5.7,1,8.6c5-0.9,9.9-1.9,14.6-3.2l5.1,19.1
						c-5.6,1.8-11.5,3.3-17.9,4.4c0.3,4.2,0.7,8.4,1.1,12.6l-22.3,1.4c-3.1-28.7-5.6-57.5-7.6-86.2L911.7,258.3z M938.3,215.8
						c0.8,6.3,2.4,12.7,4.8,19.2c9.5,0.7,18.8,1.6,28,2.7c4.3-8.4,8.1-15.8,11.4-22.3l21.9,8.6c-3.3,5.6-6.2,11-8.7,16.4
						c7.8,0.9,15.6,1.9,23.3,3.1l-4.4,20.6c-45.7-5.3-85.3-9-118.7-11l4.6-20.6c5.9,0.3,11.8,0.6,17.6,0.9c-1-4-1.8-8-2.4-12
						L938.3,215.8z M988.9,271.2c1,18.8,2,39.5,3.2,62l-22.6,1.2c-1.2-23.3-2.2-44-3.2-62L988.9,271.2z M1017.2,267.1
						c1.5,4.7,2.5,16.7,3.2,36.1c1.4,24.2,2,39.9,1.7,47.1l-22.6,1.5c0.2-22.2-0.4-38.9-1.7-50.2c-0.5-11.5-1.4-22.6-2.8-33.3
						L1017.2,267.1z"/>
				</g>
			</g>
			<g>
				<g>
					<path class="st9" d="M866.6,221.8l4.8,20.7c-14.9,0.5-29.9,1-45,1.4c2.9,4.6,5.4,9.2,7.5,13.9c11,0.8,22,1.9,33,3.1l0,22.7
						c-8.6-1-17.1-1.8-25.6-2.6c0.3,3.1,0.5,6.3,0.5,9.7c10,0,20,0,30.2,0l-0.4,24.3c-10.6,0.1-21.1,0.1-31.6,0
						c-2.2,12.5-6.3,21.5-12.2,27.1c-8.9,7.7-19.3,10.9-31.4,9.5c-10.6-1.2-19.1-2.7-25.5-4.7l-0.2-25.5c9.4,2.2,17.6,3.8,24.4,4.5
						c5.6,0.6,10-0.7,13.4-4.1c2.3-1.6,4-4,5.3-7.3c-25.1-0.7-50.2-2-75.4-3.9l0.2-24.3c25.5,1.9,51.4,3.2,77.9,3.9
						c-0.1-4-0.7-7.7-1.6-11.1c-22.4-1.4-44.9-2.1-67.5-2l0-22.4c18.4-0.3,37.2,0.1,56.5,1.2c-2.3-3.9-4.9-7.6-7.7-10.9
						c-14,0.5-28.2,1-42.5,1.4l-3.6-21C791,223.6,829.9,222.4,866.6,221.8z"/>
				</g>
				<g>
					<path class="st1" d="M866.6,221.8l4.8,20.7c-14.9,0.5-29.9,1-45,1.4c2.9,4.6,5.4,9.2,7.5,13.9c11,0.8,22,1.9,33,3.1l0,22.7
						c-8.6-1-17.1-1.8-25.6-2.6c0.3,3.1,0.5,6.3,0.5,9.7c10,0,20,0,30.2,0l-0.4,24.3c-10.6,0.1-21.1,0.1-31.6,0
						c-2.2,12.5-6.3,21.5-12.2,27.1c-8.9,7.7-19.3,10.9-31.4,9.5c-10.6-1.2-19.1-2.7-25.5-4.7l-0.2-25.5c9.4,2.2,17.6,3.8,24.4,4.5
						c5.6,0.6,10-0.7,13.4-4.1c2.3-1.6,4-4,5.3-7.3c-25.1-0.7-50.2-2-75.4-3.9l0.2-24.3c25.5,1.9,51.4,3.2,77.9,3.9
						c-0.1-4-0.7-7.7-1.6-11.1c-22.4-1.4-44.9-2.1-67.5-2l0-22.4c18.4-0.3,37.2,0.1,56.5,1.2c-2.3-3.9-4.9-7.6-7.7-10.9
						c-14,0.5-28.2,1-42.5,1.4l-3.6-21C791,223.6,829.9,222.4,866.6,221.8z"/>
				</g>
				<g>
					<path class="st10" d="M866.6,221.8l4.8,20.7c-14.9,0.5-29.9,1-45,1.4c2.9,4.6,5.4,9.2,7.5,13.9c11,0.8,22,1.9,33,3.1l0,22.7
						c-8.6-1-17.1-1.8-25.6-2.6c0.3,3.1,0.5,6.3,0.5,9.7c10,0,20,0,30.2,0l-0.4,24.3c-10.6,0.1-21.1,0.1-31.6,0
						c-2.2,12.5-6.3,21.5-12.2,27.1c-8.9,7.7-19.3,10.9-31.4,9.5c-10.6-1.2-19.1-2.7-25.5-4.7l-0.2-25.5c9.4,2.2,17.6,3.8,24.4,4.5
						c5.6,0.6,10-0.7,13.4-4.1c2.3-1.6,4-4,5.3-7.3c-25.1-0.7-50.2-2-75.4-3.9l0.2-24.3c25.5,1.9,51.4,3.2,77.9,3.9
						c-0.1-4-0.7-7.7-1.6-11.1c-22.4-1.4-44.9-2.1-67.5-2l0-22.4c18.4-0.3,37.2,0.1,56.5,1.2c-2.3-3.9-4.9-7.6-7.7-10.9
						c-14,0.5-28.2,1-42.5,1.4l-3.6-21C791,223.6,829.9,222.4,866.6,221.8z"/>
				</g>
			</g>
			<g>
				<g>
					<path class="st1" d="M692.9,347.4c-0.9-0.4-1.8-0.7-2.8-1.1c-0.2-0.1-0.5-0.1-0.7,0c-4.2,1.3-6.9,0-8.5-4
						c0-0.1-0.1-0.1-0.2-0.2c-1.8,1.2-3.7,1.5-5.8,0.8c-2.1-0.8-3.3-2.3-3.9-4.4c-2.7,1.6-5.4,1.7-7.8-0.4c-2.3-2-2.6-4.6-1.4-7.4
						c-0.1-0.1-0.3-0.2-0.4-0.2c-2.5-0.9-3.9-2.7-4.3-5.4c0-0.3-0.3-0.7-0.5-1c-1.8-1.6-3.3-3.5-4.6-5.6c-0.2-0.4-0.9-0.6-1.4-1
						c-0.1,0.5-0.2,0.8-0.3,1.1c-0.2,1-0.8,1.5-1.8,1.4c-2.5-0.3-5-0.6-7.5-0.9c-1.1-0.1-1.6-0.9-1.4-2c1-8.2,2.1-16.5,3.1-24.7
						c0.3-2.7,0.7-5.4,1-8.2c0.2-1.8,0.7-2.2,2.5-2c2,0.3,4,0.5,6,0.8c2.1,0.3,2.4,0.6,2.1,2.7c0,0.3-0.1,0.6-0.1,0.9
						c2.3,0.4,4.5,0.7,6.9,0.1c5-1.1,10.1-2.1,15.1-3.1c2.4-0.5,4.7-0.2,7,0.6c1.1,0.4,2.2,0.9,3.4,1.2c0.5,0.1,1.1,0.1,1.6-0.1
						c2.1-0.8,4.2-1.8,6.3-2.5c2.5-0.8,5.1-0.2,7.6,0.1c4.5,0.4,8.9,1,13.4,1.3c1.6,0.1,3.3-0.4,5.1-0.7c-0.2-0.7-0.3-1.2-0.4-1.8
						c-0.2-1.1,0.1-1.8,1.2-2.1c2.4-0.6,4.8-1.2,7.2-1.7c1.3-0.3,1.9,0.2,2.2,1.5c1.1,4.8,2.2,9.7,3.3,14.5c1.3,5.9,2.7,11.7,4,17.6
						c0,0.1,0.1,0.2,0.2,0.3c0,0.5,0,0.9,0.1,1.4c-0.4,0.3-0.8,0.9-1.3,1c-2.4,0.6-4.9,1.2-7.3,1.7c-0.9,0.2-1.6-0.2-1.9-1.1
						c-0.1-0.3-0.2-0.5-0.3-0.8c-0.9,0-1.3,0.5-1.7,1.2c-1.1,1.9-2.4,3.6-3.6,5.5c-0.3,0.4-0.5,0.9-0.6,1.4c-0.1,2.7-1.7,5-4.2,5.7
						c-1,0.3-2,0.3-3.1,0.4c0,1.9-0.7,3.5-2.2,4.8c-1.5,1.3-3.3,1.7-5.2,1.5c0,2-0.7,3.7-2.2,5c-1.5,1.3-3.3,1.7-5.2,1.4
						c0,2-0.5,3.7-2,4.8c-0.9,0.7-1.9,1.1-2.9,1.6C694.2,347.4,693.6,347.4,692.9,347.4z M687.8,331.4c0.2-0.1,0.3-0.1,0.3-0.2
						c4.2-2.4,8.7-0.2,9.5,4.6c0,0.3,0.3,0.6,0.5,0.8c0.4,0.3,0.8,0.5,1.2,0.7c1.6,0.9,3.4,0.4,4.3-1.1c0.9-1.5,0.4-3.3-1.2-4.3
						c-1.1-0.7-2.2-1.3-3.3-2c-1.5-0.9-3-1.8-4.5-2.7c-0.6-0.4-1.1-1-0.8-1.7c0.2-0.5,0.7-1,1.2-1.2c0.4-0.1,1,0.2,1.4,0.4
						c3.3,1.9,6.7,3.9,10,5.9c1.7,1,3.6,0.6,4.5-1c0.9-1.6,0.3-3.3-1.4-4.4c-1.9-1.1-3.8-2.2-5.7-3.4c-1.6-0.9-3.2-1.8-4.7-2.9
						c-0.4-0.3-0.8-1-0.7-1.5c0-0.4,0.6-1.1,1-1.2c0.5-0.2,1.1,0.1,1.6,0.3c3,1.8,6.1,3.6,9.1,5.4c1.4,0.8,2.7,1.6,4.1,2.4
						c1.2,0.6,2.3,0.5,3.4-0.3c1-0.8,1.3-1.9,1-3.2c-0.2-1-0.9-1.6-1.8-2.1c-5.5-3.3-11-6.5-16.6-9.8c-0.4-0.2-0.9-0.4-1.3-0.5
						c-4.3-0.9-7.4-3.3-9.3-7.3c-0.1-0.3-0.3-0.5-0.4-0.8c-1.7,0.4-3.3,0.8-4.9,1.3c-0.4,0.1-0.8,0.5-1,0.8
						c-0.8,1.2-1.4,2.4-2.2,3.6c-1.8,2.7-4.3,4-7.6,3.6c-5-0.6-6.4-4.8-4.2-8.1c1.6-2.3,2.9-4.7,4.2-7.2c1.2-2.2,2.9-3.8,5.2-4.8
						c1.6-0.6,3-1.5,4.7-2.3c-2.3-1-4.4-1.4-6.7-1c-4.7,0.9-9.5,1.9-14.2,2.9c-2.4,0.5-4.8,0.9-7.2,0.4c-0.5-0.1-1-0.1-1.6-0.2
						c-1,8.3-2.1,16.6-3.1,24.9c0.3,0.1,0.6,0.2,0.8,0.1c1.5,0,2.4,0.6,3,2c0.7,1.7,1.9,3.1,3.2,4.3c1.2-1.2,2.4-2.3,3.6-3.4
						c1.2-1.1,2.4-2.3,3.6-3.3c3.4-2.8,8.6-1.1,9.7,3.1c0.3,1.1,0.1,2.3,0.2,3.5c3.1,0.6,4.9,2.6,5.3,5.7
						C684.9,326.8,686.4,327.8,687.8,331.4z M727.2,310.8c-1.9-8.2-3.7-16.3-5.6-24.5c-0.4,0.1-0.8,0.2-1.1,0.2
						c-1.4,0.3-2.7,0.8-4.1,0.7c-5.1-0.4-10.2-1-15.3-1.5c-2.8-0.3-5.6-0.5-8.3,0.8c-4.5,2.2-9,4.3-13.4,6.6c-0.8,0.4-1.7,1.2-2.2,2
						c-1.8,2.9-3.5,5.8-5.2,8.7c-0.7,1.2-0.4,2,0.8,2.6c2.1,1,4.6,0.3,5.9-1.7c0.9-1.4,1.7-3,2.7-4.4c0.3-0.5,0.9-1,1.5-1.2
						c2.2-0.7,4.5-1.2,6.7-1.8c1.5-0.4,2.1-0.1,2.5,1.4c1.7,5.2,6.9,8.1,12.3,6.8c1.9-0.5,3.5-1.5,5.1-2.7c0.4-0.3,0.7-0.6,1.1-0.8
						c0.8-0.5,1.7-0.4,2.2,0.3c0.5,0.7,0.4,1.6-0.4,2.2c-2.1,1.6-4.1,3.2-6.9,3.9c5.2,3.3,10.4,6,15.4,9.4c1.3-1.4,2.3-3.2,3-5.2
						c0.3-0.8,0.7-1.3,1.6-1.5C726,311.1,726.5,311,727.2,310.8z M646.8,285.3c-1.3,10.3-2.6,20.5-3.8,30.8c1.6,0.2,3.1,0.4,4.6,0.6
						c1.3-10.3,2.6-20.5,3.8-30.8C649.9,285.7,648.4,285.5,646.8,285.3z M723.8,282.2c2.3,10.1,4.6,20.1,6.9,30.2
						c1.5-0.4,3-0.7,4.5-1c-2.3-10.2-4.6-20.2-6.9-30.2C726.8,281.6,725.4,281.9,723.8,282.2z M677.5,327.1c-0.1,0-0.2-0.1-0.3-0.1
						c-0.1-1.2-0.7-2.2-1.8-2.6c-1.2-0.5-2.4-0.4-3.3,0.5c-2.3,2.1-4.5,4.1-6.7,6.3c-1.3,1.3-1.4,3.2-0.2,4.4c1.2,1.2,3,1.3,4.3,0.1
						c2.3-2.1,4.5-4.1,6.7-6.3C676.9,328.8,677.1,327.9,677.5,327.1z M672.2,319.5c-0.2-1.7-0.7-2.6-1.9-3.1
						c-1.2-0.5-2.4-0.3-3.4,0.6c-1.9,1.7-3.7,3.5-5.6,5.2c-1.3,1.2-1.4,3.1-0.2,4.4c1.2,1.3,3,1.4,4.4,0.2c1.9-1.7,3.8-3.5,5.6-5.3
						C671.7,320.8,672,319.9,672.2,319.5z M683.8,340.5c0.1,1.5,0.7,2.5,1.8,3c1.2,0.5,2.3,0.4,3.3-0.5c1.6-1.4,3.1-2.8,4.6-4.3
						c1.3-1.2,1.3-3.1,0.1-4.3c-1.2-1.3-3-1.4-4.4-0.1c-1.5,1.4-3,2.8-4.5,4.1C684.1,339.1,683.8,339.9,683.8,340.5z M677.4,340.2
						c0.6-0.2,1.2-0.4,1.6-0.7c1.7-1.5,3.4-3,5-4.7c1.1-1.1,1-3-0.1-4.1c-1.1-1.1-2.9-1.4-4.1-0.3c-1.7,1.5-3.3,3-4.9,4.6
						c-0.9,0.9-1,2.3-0.5,3.4C675,339.6,676,340.2,677.4,340.2z M692.4,344c1.5,0.5,2.6,0.2,3.5-0.8c0.8-0.9,0.9-2,0.5-2.9
						C695.1,341.5,693.8,342.7,692.4,344z"/>
				</g>
				<g>
					<path class="st1" d="M693,348.4c-0.1,0-0.3,0-0.4-0.1l-0.7-0.3c-0.7-0.3-1.3-0.5-2-0.8c-0.1,0-0.1,0-0.1,0
						c-4.4,1.3-7.5,0.1-9.3-3.8c-1.8,0.9-3.8,1-5.7,0.3c-1.9-0.7-3.3-2-4.1-4c-2.9,1.3-5.6,1-7.9-1.1c-2.3-2-2.9-4.6-2-7.6
						c-2.6-1.1-4.1-3.1-4.4-6c0-0.1-0.1-0.3-0.2-0.3c-1.8-1.6-3.4-3.5-4.7-5.7c-0.4,1.3-1.5,2-2.8,1.8c-2.5-0.3-5-0.6-7.5-0.9
						c-1.6-0.2-2.5-1.4-2.3-3.1l3.1-24.7c0.3-2.7,0.7-5.4,1-8.2c0.1-0.9,0.3-1.9,1.1-2.4c0.7-0.6,1.7-0.5,2.6-0.4
						c1.6,0.2,3.1,0.4,4.7,0.6l1.4,0.2c2.6,0.3,3.3,1.2,3,3.8v0c2,0.3,3.8,0.4,5.6,0c3.7-0.8,7.6-1.6,11.3-2.4
						c1.3-0.3,2.6-0.5,3.9-0.8c2.4-0.5,5-0.3,7.6,0.6c0.5,0.2,0.9,0.3,1.3,0.5c0.7,0.3,1.3,0.5,2,0.7c0.3,0.1,0.7,0.1,1,0
						c0.8-0.3,1.6-0.7,2.5-1c1.3-0.5,2.6-1.1,3.9-1.5c2.2-0.7,4.3-0.4,6.4-0.1c0.5,0.1,1.1,0.1,1.6,0.2c1.5,0.1,3,0.3,4.6,0.5
						c2.9,0.3,5.9,0.6,8.8,0.8c1,0.1,2.1-0.2,3.2-0.4c0.2,0,0.4-0.1,0.7-0.1c-0.1-0.3-0.1-0.5-0.2-0.8c-0.4-1.6,0.4-2.9,1.9-3.2
						c2.5-0.6,4.9-1.2,7.3-1.7c1.2-0.3,2.8-0.1,3.3,2.2c0.8,3.3,1.5,6.6,2.2,9.8l1.1,4.7c1.3,5.8,2.7,11.6,4,17.4
						c0,0.1,0.1,0.1,0.1,0.1c0.1,0.1,0.1,0.3,0.1,0.5l0.1,1.4c0,0.3-0.1,0.6-0.4,0.8c-0.1,0.1-0.2,0.2-0.3,0.3
						c-0.3,0.3-0.8,0.7-1.4,0.9c-2.2,0.6-4.4,1.1-6.6,1.6l-0.8,0.2c-1.3,0.3-2.5-0.3-3-1.6c-0.1,0.1-0.1,0.2-0.2,0.4
						c-0.7,1.2-1.5,2.4-2.3,3.5c-0.5,0.7-0.9,1.3-1.4,2c-0.3,0.5-0.4,0.8-0.4,0.9c-0.1,3.2-2,5.8-5,6.7c-0.8,0.2-1.5,0.3-2.3,0.4
						c-0.1,0-0.1,0-0.2,0c-0.2,1.9-1,3.4-2.4,4.7c-1.3,1.2-3,1.8-4.9,1.8c0,0,0,0-0.1,0c-0.2,1.9-1,3.5-2.5,4.7
						c-1.4,1.2-3,1.8-5,1.7c-0.2,2-1,3.5-2.3,4.5c-0.7,0.5-1.4,0.9-2.2,1.3c-0.3,0.1-0.6,0.3-0.9,0.5c-0.1,0.1-0.3,0.1-0.4,0.1
						L693,348.4C693.1,348.4,693.1,348.4,693,348.4z M689.7,345.3c0.4,0,0.7,0.1,0.8,0.1c0.7,0.2,1.4,0.5,2.1,0.8l0.5,0.2l1.5-0.1
						c0.3-0.1,0.5-0.3,0.8-0.4c0.7-0.3,1.3-0.6,1.8-1c1.1-0.9,1.6-2.2,1.6-4.1c0-0.3,0.1-0.6,0.3-0.7s0.5-0.3,0.8-0.2
						c1.8,0.3,3.2-0.1,4.4-1.2c1.2-1.1,1.8-2.4,1.8-4.3c0-0.3,0.1-0.5,0.3-0.7c0.2-0.2,0.5-0.3,0.8-0.2c1.8,0.2,3.3-0.2,4.5-1.2
						c1.2-1,1.8-2.4,1.8-4.1c0-0.5,0.4-0.9,0.9-1c0.4,0,0.7-0.1,1.1-0.1c0.7-0.1,1.3-0.1,1.9-0.3c2.1-0.6,3.5-2.5,3.5-4.8
						c0-0.6,0.3-1.2,0.7-1.9c0.4-0.7,0.9-1.4,1.4-2.1c0.8-1.1,1.5-2.2,2.2-3.4c0.4-0.7,1-1.8,2.6-1.7c0.4,0,0.8,0.3,0.9,0.7l0.1,0.2
						c0.1,0.2,0.1,0.4,0.2,0.6c0.2,0.5,0.4,0.6,0.8,0.5l0.8-0.2c2.2-0.5,4.4-1,6.5-1.5c0.1,0,0.3-0.3,0.5-0.4c0,0,0,0,0.1-0.1l0-0.6
						c-0.1-0.1-0.1-0.3-0.2-0.4c-1.3-5.8-2.7-11.7-4-17.6l-1.1-4.7c-0.7-3.3-1.5-6.6-2.2-9.8c-0.2-0.8-0.3-0.8-1-0.7
						c-2.3,0.5-4.7,1.1-7.2,1.7c-0.4,0.1-0.6,0.2-0.5,0.9c0.1,0.4,0.2,0.7,0.3,1.2l0.1,0.6c0.1,0.3,0,0.6-0.1,0.8
						c-0.2,0.2-0.4,0.4-0.7,0.4c-0.5,0.1-1.1,0.2-1.6,0.3c-1.2,0.2-2.5,0.5-3.7,0.4c-3-0.2-6-0.5-8.9-0.8c-1.5-0.2-3-0.3-4.5-0.5
						c-0.5-0.1-1.1-0.1-1.6-0.2c-1.9-0.2-3.8-0.5-5.5,0.1c-1.3,0.4-2.5,0.9-3.8,1.5c-0.8,0.4-1.7,0.7-2.5,1
						c-0.7,0.3-1.5,0.3-2.2,0.1c-0.7-0.2-1.4-0.5-2.1-0.7c-0.4-0.2-0.8-0.3-1.3-0.5c-2.3-0.8-4.4-0.9-6.5-0.5
						c-1.3,0.3-2.6,0.5-3.9,0.8c-3.7,0.7-7.5,1.5-11.2,2.3c-2.4,0.5-4.6,0.3-7.2-0.1c-0.5-0.1-0.9-0.6-0.8-1.1l0.1-0.9
						c0.1-1,0-1.3,0-1.4c0,0-0.3-0.2-1.3-0.3l-1.4-0.2c-1.6-0.2-3.1-0.4-4.7-0.6c-0.9-0.1-1.1,0-1.1,0c0,0-0.2,0.2-0.3,1.1
						c-0.3,2.7-0.7,5.4-1,8.2l-3.1,24.7c-0.1,0.8,0.2,0.9,0.6,0.9c2.5,0.3,5,0.6,7.5,0.9c0.3,0,0.6,0,0.7-0.6l0.3-1.1
						c0.1-0.3,0.3-0.6,0.6-0.7c0.3-0.1,0.6-0.1,0.9,0.1c0.2,0.1,0.3,0.2,0.5,0.3c0.4,0.2,0.9,0.5,1.2,1c1.3,2.1,2.7,3.9,4.4,5.3
						c0.4,0.4,0.8,1,0.8,1.6c0.3,2.3,1.4,3.7,3.6,4.6c0.1,0.1,0.3,0.1,0.4,0.2l0.1,0.1c0.4,0.2,0.6,0.8,0.4,1.3
						c-1.1,2.6-0.7,4.6,1.2,6.3c1.9,1.7,4.1,1.8,6.6,0.3c0.3-0.2,0.6-0.2,0.9-0.1c0.3,0.1,0.5,0.4,0.6,0.7c0.6,1.9,1.6,3.2,3.3,3.8
						c1.7,0.6,3.3,0.4,4.9-0.7c0.4-0.3,1-0.2,1.3,0.2c0.1,0.1,0.2,0.2,0.3,0.4c1.4,3.5,3.6,4.6,7.3,3.4
						C689.4,345.3,689.5,345.3,689.7,345.3z M693.7,345.3c-0.5,0-1-0.1-1.6-0.3c-0.3-0.1-0.6-0.4-0.7-0.7c-0.1-0.3,0-0.7,0.3-0.9
						l4-3.7c0.2-0.2,0.5-0.3,0.8-0.3c0.3,0.1,0.6,0.2,0.7,0.5c0.7,1.3,0.4,2.9-0.6,4C695.8,344.8,694.9,345.3,693.7,345.3z
						 M687,344.8c-0.6,0-1.2-0.1-1.8-0.4c-1.5-0.7-2.3-1.9-2.4-3.8c-0.1-1,0.4-2.1,1.3-2.9l0.5-0.5c1.3-1.2,2.6-2.4,3.9-3.6
						c1.8-1.6,4.2-1.5,5.8,0.2c1.5,1.7,1.5,4.1-0.2,5.7c-1.3,1.3-2.8,2.7-4.6,4.3C688.8,344.4,687.9,344.8,687,344.8z M691.5,334.4
						c-0.5,0-1.1,0.2-1.5,0.6c-1.3,1.2-2.6,2.4-3.9,3.6l-0.5,0.5c-0.5,0.5-0.7,1-0.7,1.3c0,0,0,0,0,0c0.1,1.4,0.6,1.8,1.2,2.1
						c0.8,0.4,1.6,0.3,2.3-0.3c1.8-1.6,3.3-3,4.6-4.2c0.9-0.8,0.9-2.1,0.1-3C692.6,334.6,692,334.4,691.5,334.4z M677.4,341.2
						C677.4,341.2,677.3,341.2,677.4,341.2c-1.8-0.1-3.1-0.9-3.8-2.4c-0.8-1.6-0.5-3.4,0.7-4.6c1.9-1.8,3.4-3.3,5-4.6
						c1.6-1.3,4-1.2,5.5,0.4c1.5,1.6,1.5,4,0.1,5.5c-1.7,1.8-3.5,3.4-5.1,4.7c-0.4,0.4-1,0.6-1.4,0.7c-0.2,0.1-0.3,0.1-0.5,0.2
						C677.6,341.2,677.5,341.2,677.4,341.2z M681.7,330.7c-0.4,0-0.9,0.1-1.2,0.4c-1.5,1.3-3.1,2.8-4.9,4.6
						c-0.6,0.6-0.7,1.5-0.3,2.3c0.4,0.8,1,1.2,1.9,1.3c0.1,0,0.2-0.1,0.4-0.1c0.3-0.1,0.6-0.2,0.8-0.3c1.5-1.3,3.3-2.9,5-4.6
						c0.7-0.7,0.6-2-0.1-2.8C682.8,331,682.2,330.7,681.7,330.7z M701,338.8c-0.7,0-1.4-0.2-2.1-0.6l-0.2-0.1
						c-0.4-0.2-0.8-0.4-1.2-0.7c-0.4-0.3-0.8-0.8-0.9-1.4c-0.3-1.9-1.4-3.5-2.9-4.2c-1.5-0.7-3.4-0.6-5.1,0.4
						c-0.1,0-0.2,0.1-0.3,0.1l-0.1,0.1c-0.2,0.1-0.5,0.1-0.8,0s-0.5-0.3-0.6-0.6c-1.3-3.3-2.4-4-6.4-4.1c-0.5,0-0.9-0.4-1-0.9
						c-0.4-2.8-1.9-4.4-4.5-4.9c-0.4-0.1-0.8-0.5-0.8-0.9c0-0.4,0-0.8,0-1.2c0-0.8,0-1.5-0.2-2.1c-0.4-1.7-1.7-3-3.3-3.5
						c-1.7-0.5-3.5-0.2-4.8,0.9c-0.9,0.7-1.8,1.6-2.7,2.4c-0.3,0.3-0.6,0.6-0.9,0.9c-0.8,0.8-1.6,1.5-2.4,2.3l-1.1,1.1
						c-0.4,0.4-1,0.4-1.3,0c-1.6-1.4-2.8-3-3.5-4.6c-0.5-1-1-1.4-2.1-1.4c0,0-0.1,0-0.1,0c-0.3,0-0.5-0.1-0.7-0.1
						c-0.1,0-0.2,0-0.3-0.1c-0.5-0.1-0.9-0.6-0.8-1.1l3.1-24.9c0.1-0.5,0.5-0.9,1.1-0.9c0.2,0,0.4,0,0.5,0c0.4,0,0.8,0.1,1.2,0.1
						c2.3,0.5,4.5,0.1,6.8-0.4c4.2-0.9,8.8-1.8,14.2-2.9c2.3-0.5,4.7-0.1,7.3,1c0.4,0.2,0.6,0.5,0.6,0.9c0,0.4-0.2,0.7-0.6,0.9
						c-0.5,0.3-1,0.5-1.5,0.8c-1.1,0.6-2.1,1.1-3.2,1.6c-2.1,0.9-3.6,2.2-4.7,4.3c-1.3,2.4-2.7,4.9-4.3,7.2
						c-0.9,1.3-1.1,2.9-0.6,4.1c0.6,1.4,2,2.2,4,2.5c2.8,0.3,5-0.7,6.6-3.2c0.4-0.6,0.7-1.2,1.1-1.7c0.4-0.6,0.7-1.2,1.1-1.8
						c0.3-0.5,0.9-1,1.5-1.2c1.2-0.4,2.4-0.6,3.6-1l1.3-0.3c0.4-0.1,0.9,0.1,1.1,0.5l0.1,0.2c0.1,0.2,0.2,0.4,0.3,0.6
						c1.8,3.7,4.6,5.9,8.6,6.7c0.6,0.1,1.2,0.3,1.6,0.6c3.1,1.8,6.2,3.6,9.2,5.5c2.4,1.4,4.9,2.9,7.3,4.3c0.8,0.5,1.9,1.2,2.2,2.7
						c0.4,1.7-0.1,3.2-1.4,4.2c-1.3,1.1-3,1.2-4.4,0.4c-1-0.6-2.1-1.2-3-1.8l-3.6-2.1c-2.2-1.3-4.4-2.6-6.6-3.9
						c-0.3-0.2-0.7-0.3-0.8-0.2c-0.1,0-0.3,0.3-0.3,0.4c0,0.1,0.2,0.5,0.3,0.6c1.1,0.7,2.3,1.4,3.4,2.1c0.4,0.2,0.8,0.5,1.3,0.7
						l2,1.2c1.2,0.7,2.5,1.5,3.7,2.2c2.2,1.3,2.9,3.7,1.7,5.7c-0.5,1-1.4,1.6-2.4,1.9c-1.1,0.3-2.3,0.1-3.5-0.6
						c-1.3-0.8-2.6-1.5-3.9-2.3c-2-1.2-4.1-2.4-6.1-3.6c-0.4-0.2-0.6-0.3-0.7-0.3c-0.2,0.1-0.5,0.4-0.6,0.6
						c-0.1,0.2,0.3,0.4,0.4,0.5c1.1,0.7,2.3,1.4,3.4,2.1l2.1,1.2c0.8,0.5,1.6,0.9,2.3,1.4c2,1.3,2.7,3.6,1.5,5.6
						C703.7,338.1,702.4,338.8,701,338.8z M691.6,329.3c1,0,2,0.2,3,0.7c2.1,1,3.6,3.1,4,5.7c0,0,0.1,0.1,0.2,0.2
						c0.2,0.2,0.5,0.3,0.8,0.5l0.3,0.1c1.1,0.6,2.4,0.3,3-0.7c0.6-1.1,0.3-2.2-0.8-2.9c-0.7-0.5-1.5-0.9-2.3-1.4l-2.1-1.2
						c-1.2-0.7-2.3-1.4-3.5-2.1c-1.2-0.7-1.6-1.9-1.2-2.9c0.3-0.7,1.1-1.4,1.8-1.7c0.6-0.2,1.3,0,2.2,0.5c2.1,1.2,4.1,2.4,6.1,3.6
						c1.3,0.8,2.6,1.5,3.9,2.3c0.7,0.4,1.3,0.5,2,0.4c0.5-0.1,0.9-0.5,1.2-1c0.6-1.1,0.2-2.3-1-3c-1.2-0.7-2.4-1.5-3.7-2.2l-2-1.2
						c-0.4-0.2-0.8-0.5-1.2-0.7c-1.2-0.7-2.4-1.4-3.5-2.2c-0.7-0.5-1.2-1.6-1.2-2.4c0.1-0.8,0.8-1.8,1.7-2.1c0.8-0.3,1.8,0,2.4,0.4
						c2.2,1.3,4.4,2.6,6.6,3.9l3.6,2.1c1,0.6,2,1.2,3,1.7c0.8,0.4,1.5,0.4,2.3-0.2c0.7-0.6,0.9-1.3,0.7-2.2c-0.1-0.6-0.5-1-1.3-1.5
						c-2.4-1.4-4.9-2.9-7.3-4.3c-3.1-1.8-6.1-3.6-9.2-5.5c-0.3-0.2-0.6-0.3-1-0.4c-4.6-1-8-3.6-10-7.8c0,0,0,0,0,0l-0.6,0.1
						c-1.2,0.3-2.4,0.6-3.5,0.9c-0.1,0-0.3,0.2-0.4,0.4c-0.4,0.6-0.7,1.2-1,1.7c-0.4,0.6-0.7,1.2-1.1,1.8c-2,3.1-5,4.5-8.5,4.1
						c-2.7-0.3-4.7-1.6-5.6-3.6c-0.9-1.9-0.6-4.1,0.7-6.1c1.6-2.3,2.9-4.8,4.2-7.1c1.4-2.5,3.2-4.2,5.7-5.2c0.9-0.4,1.7-0.8,2.6-1.2
						c-1.4-0.4-2.7-0.4-4-0.1c-5.4,1.1-9.9,2-14.2,2.9c-2.5,0.5-5,1-7.7,0.4c-0.2,0-0.3-0.1-0.5-0.1l-2.9,23
						c1.7,0.1,2.9,0.9,3.7,2.6c0.5,1.2,1.3,2.3,2.3,3.3l0.4-0.4c0.8-0.8,1.6-1.6,2.5-2.3c0.3-0.3,0.6-0.6,0.9-0.9
						c0.9-0.8,1.8-1.7,2.8-2.5c1.9-1.5,4.4-2,6.7-1.2c2.3,0.7,4,2.6,4.6,4.9c0.2,0.9,0.2,1.7,0.2,2.6c0,0.1,0,0.2,0,0.3
						c2.8,0.8,4.5,2.7,5.2,5.6c3.8,0.2,5.6,1.3,7,4.4C689.4,329.6,690.5,329.3,691.6,329.3z M667.4,337.5c-1.1,0-2.1-0.4-2.9-1.3
						c-0.8-0.8-1.2-1.8-1.1-2.9c0-1.1,0.5-2.1,1.3-2.9c2.3-2.2,4.7-4.4,6.7-6.3c1.2-1.1,2.8-1.4,4.4-0.7c1.3,0.5,2.1,1.6,2.4,3
						c0.3,0.3,0.4,0.8,0.2,1.1c-0.1,0.2-0.2,0.5-0.3,0.7c-0.3,0.6-0.6,1.3-1.1,1.8c-2.2,2.2-4.5,4.3-6.7,6.3
						C669.4,337.1,668.4,337.5,667.4,337.5z M674.1,325c-0.5,0-0.9,0.2-1.3,0.6c-2,1.9-4.4,4.1-6.7,6.2c-0.4,0.4-0.7,1-0.7,1.5
						c0,0.5,0.2,1.1,0.6,1.5c0.8,0.9,2.1,0.9,3,0.1c2.2-2,4.5-4.1,6.7-6.2c0.3-0.3,0.5-0.7,0.7-1.2c0-0.1,0-0.1,0.1-0.2
						c0-0.1,0-0.2-0.1-0.3c-0.1-0.9-0.4-1.5-1.2-1.8C674.7,325.1,674.4,325,674.1,325z M663.4,328.6c-0.1,0-0.1,0-0.2,0
						c-1.1-0.1-2.1-0.5-2.8-1.4c-1.5-1.7-1.4-4.1,0.3-5.7c1.9-1.8,3.9-3.7,5.6-5.2c1.3-1.2,2.9-1.5,4.5-0.8c1.9,0.8,2.3,2.7,2.5,3.9
						c0,0.2,0,0.4-0.1,0.6c0,0.1-0.1,0.2-0.2,0.4c-0.2,0.5-0.5,1.2-1.1,1.8c-1.8,1.8-3.7,3.6-5.7,5.3
						C665.4,328.2,664.4,328.6,663.4,328.6z M669,317.1c-0.5,0-1,0.2-1.4,0.6c-1.7,1.6-3.7,3.4-5.6,5.2c-0.9,0.8-0.9,2.1-0.2,3
						c0.4,0.4,0.9,0.7,1.4,0.7c0.6,0,1.1-0.2,1.6-0.6c1.9-1.8,3.8-3.5,5.6-5.3c0.3-0.3,0.5-0.8,0.7-1.2c0-0.1,0.1-0.1,0.1-0.2
						c-0.2-1.3-0.6-1.8-1.3-2.1C669.6,317.1,669.3,317.1,669,317.1z M720.8,318.9c-0.2,0-0.4-0.1-0.6-0.2c-2.8-1.9-5.7-3.6-8.8-5.4
						c-2.2-1.3-4.4-2.6-6.6-4c-0.3-0.2-0.5-0.6-0.4-1s0.4-0.7,0.7-0.8c2.5-0.6,4.4-2,6.4-3.6l0.2-0.1c0.2-0.1,0.3-0.3,0.3-0.5
						c0-0.1,0-0.3-0.1-0.4c-0.3-0.3-0.6-0.2-0.8-0.1c-0.4,0.2-0.7,0.5-1,0.7c-1.3,1-3.2,2.3-5.5,2.9c-5.8,1.4-11.6-1.8-13.5-7.4
						c-0.3-1-0.4-1-1.3-0.7c-0.6,0.2-1.2,0.3-1.9,0.5c-1.6,0.4-3.2,0.8-4.8,1.3c-0.3,0.1-0.8,0.4-1,0.8c-0.5,0.8-1,1.6-1.5,2.4
						c-0.4,0.7-0.8,1.3-1.2,2c-1.5,2.4-4.5,3.3-7.1,2.1c-0.9-0.4-1.4-1-1.6-1.7c-0.2-0.7-0.1-1.5,0.4-2.3l1-1.7
						c1.4-2.3,2.8-4.7,4.2-7c0.6-0.9,1.6-1.8,2.6-2.3c2.5-1.3,5.1-2.5,7.6-3.8c1.9-0.9,3.9-1.9,5.8-2.8c2.9-1.4,5.9-1.3,8.9-0.9
						l0.2,0c4.9,0.5,10,1.1,15,1.5c0.7,0.1,1.6-0.2,2.5-0.4c0.5-0.1,0.9-0.2,1.3-0.3l1.1-0.2c0.5-0.1,1,0.2,1.2,0.8l5.6,24.5
						c0.1,0.5-0.2,1.1-0.7,1.2c-0.2,0-0.4,0.1-0.6,0.1c-0.4,0.1-0.8,0.2-1.3,0.3c-0.4,0.1-0.6,0.2-0.8,0.8c-0.7,2-1.8,3.9-3.2,5.5
						C721.4,318.7,721.1,318.9,720.8,318.9z M707.7,308.8c1.6,1,3.2,1.9,4.8,2.8c2.7,1.6,5.5,3.2,8.1,5c0.9-1.2,1.7-2.7,2.3-4.2
						c0.4-1.2,1.2-1.9,2.4-2.1c0.2,0,0.5-0.1,0.7-0.2l-5.1-22.6l-0.2,0c-0.4,0.1-0.8,0.2-1.2,0.3c-1,0.3-2,0.5-3.1,0.5
						c-5.1-0.4-10.2-1-15.1-1.5l-0.2,0c-2.8-0.3-5.3-0.5-7.8,0.7c-1.9,1-3.9,1.9-5.8,2.8c-2.5,1.2-5.1,2.5-7.6,3.8
						c-0.7,0.4-1.4,1-1.8,1.6c-1.4,2.3-2.8,4.7-4.2,7l-1,1.7c-0.2,0.3-0.3,0.6-0.2,0.7c0,0.2,0.3,0.3,0.6,0.5
						c1.7,0.8,3.6,0.2,4.6-1.4c0.4-0.6,0.8-1.3,1.1-1.9c0.5-0.8,1-1.7,1.5-2.5c0.5-0.7,1.3-1.3,2.1-1.6c1.6-0.5,3.3-0.9,4.9-1.3
						c0.6-0.2,1.2-0.3,1.9-0.5c2-0.5,3.1,0.1,3.7,2.1c1.5,4.7,6.3,7.3,11.1,6.1c1.9-0.5,3.5-1.5,4.7-2.5c0.4-0.3,0.8-0.6,1.2-0.8
						c1.2-0.8,2.6-0.6,3.5,0.5c0.4,0.5,0.6,1.2,0.5,1.8c-0.1,0.7-0.5,1.3-1.1,1.8l-0.2,0.1C711.2,306.7,709.7,307.9,707.7,308.8z
						 M647.6,317.6c0,0-0.1,0-0.1,0l-4.6-0.6c-0.3,0-0.5-0.2-0.7-0.4c-0.2-0.2-0.2-0.5-0.2-0.7l3.8-30.8c0-0.3,0.2-0.5,0.4-0.7
						c0.2-0.2,0.5-0.2,0.7-0.2l4.6,0.6c0.5,0.1,0.9,0.6,0.9,1.1l-3.8,30.8C648.5,317.3,648.1,317.6,647.6,317.6z M644.1,315.2
						l2.6,0.3l3.6-28.8l-2.6-0.3L644.1,315.2z M730.7,313.5c-0.2,0-0.4-0.1-0.5-0.2c-0.2-0.1-0.4-0.4-0.4-0.6l-6.9-30.2
						c-0.1-0.5,0.2-1.1,0.7-1.2l4.5-1c0.3-0.1,0.5,0,0.7,0.1c0.2,0.1,0.4,0.4,0.4,0.6l6.9,30.2c0.1,0.5-0.2,1.1-0.7,1.2l-4.5,1
						C730.9,313.5,730.8,313.5,730.7,313.5z M725,283l6.5,28.3l2.6-0.6l-6.5-28.3L725,283z"/>
				</g>
			</g>
			<g>
				<g>
					<g>
						<path class="st12" d="M1143.6,454.2C1143.6,454.2,1143.6,454.2,1143.6,454.2l-26.1-0.1c-4.2,0-7.6-3.4-7.7-7.6
							c-0.3-17.3-1.4-106.2-1.4-137.5c-7.3,0-14.6,0.3-21.7,0.8c-2.2,0.1-4.3-0.6-5.8-2.1c-1.1-1-1.8-2.3-2.2-3.6
							c-0.2,0-0.4,0.1-0.6,0.1c0,12.3-0.1,25-0.1,38.1c0,2.1-0.8,4-2.3,5.5s-3.5,2.2-5.5,2.2l-24.9-0.3c-4.2,0-7.6-3.5-7.7-7.7
							c0-10.5,0-21.1,0-31.6c-1.3-0.1-2.5-0.6-3.5-1.3c-1.7-1.2-2.9-3-3.2-5l-4.4-24.2c-0.8-4.2,2-8.2,6.2-9c2.5-0.5,5-0.9,7.5-1.3
							c-0.1-0.2-0.2-0.5-0.3-0.7l-7-20.9c-0.7-2-0.5-4.3,0.6-6.2c1-1.9,2.8-3.3,4.9-3.8c12.6-3.2,24.6-5.7,35.7-7.5
							c3.8-0.6,7.4,1.6,8.6,5.3l1.6,4.9l3.4-12c1.1-3.8,4.8-6.2,8.7-5.5c25,4.1,49.4,8.6,72.5,13.5c4.2,0.9,6.8,4.9,6,9.1l-4.4,21.6
							c-0.4,2-1.6,3.7-3.2,4.8c0.4,0,0.8,0.1,1.2,0.1c4,0.4,7,3.8,7,7.8l-0.2,24.3c0,2.2-1,4.2-2.6,5.7c-1.6,1.5-3.8,2.2-5.9,1.9
							c-5.7-0.6-11.3-1.1-17-1.5c0.1,19,0.6,58.6,0.9,91.5c0.2,20.1,0.4,37.5,0.5,44.5c0,2.1-0.8,4.1-2.3,5.5
							C1147.6,453.4,1145.7,454.2,1143.6,454.2z M1125.2,438.7l10.6,0c-0.1-8.8-0.2-22-0.4-36.7c-0.4-39.1-1-87.8-1-100
							c0-2.1,0.9-4.2,2.5-5.7c1.6-1.5,3.6-2.2,5.8-2.1c5.7,0.4,11.5,0.8,17.4,1.4l0.1-8.7c-21-1.7-43.1-2.3-66.1-1.6l-0.1,8.6
							c7.4-0.3,14.8-0.4,22.3-0.3c4.3,0.1,7.7,3.6,7.6,7.8C1123.7,319.1,1124.7,407.9,1125.2,438.7z M1053.1,334.3l9.4,0.1
							c0-12.7,0.1-25,0.1-36.9c0-3.8,2.8-7,6.5-7.6c1.3-0.2,2.6-0.4,4-0.6l-2-8.8c-9,1.2-18.3,2.6-28,4.3l1.6,8.9
							c2.1-0.2,4.1,0.4,5.7,1.8c1.8,1.5,2.8,3.7,2.8,6C1053.1,312.2,1053.1,323.3,1053.1,334.3z M1112.4,269.5c12,0,23.8,0.3,35.3,1
							c-20.1-4-39.5-7.7-58-11.1c-0.1,0.9-0.4,1.9-0.9,2.7c-1.1,1.9-2.8,3.2-4.9,3.7c-0.5,0.1-1,0.2-1.4,0.3c1.1,1,1.9,2.4,2.2,3.9
							l0,0.1c0.4-0.1,0.9-0.2,1.4-0.2C1094.9,269.7,1103.7,269.5,1112.4,269.5z M1050.4,250.9l2.1,6.3c6.9-1.5,13.4-3,19.6-4.5
							l-1.9-6C1063.8,247.9,1057.2,249.3,1050.4,250.9z M1099.1,245.4c18.5,3.5,37.9,7.2,57.8,11.2l1.3-6.5
							c-18.5-3.8-37.7-7.4-57.4-10.7L1099.1,245.4z"/>
					</g>
				</g>
				<g>
					<g>
						<path class="st1" d="M1143.6,451.5C1143.6,451.5,1143.6,451.5,1143.6,451.5l-26.1-0.1c-2.7,0-4.9-2.2-5-4.9
							c-0.3-17.9-1.5-111.9-1.4-140.2c-8.4,0-16.6,0.3-24.7,0.8c-1.4,0.1-2.7-0.4-3.8-1.3c-1-1-1.6-2.3-1.6-3.7l0-1.1
							c-2,0.3-3.9,0.5-5.8,0.8c0,13-0.1,26.5-0.1,40.5c0,1.3-0.5,2.6-1.5,3.5c-0.9,0.9-2.2,1.4-3.5,1.4c0,0,0,0-0.1,0l-24.9-0.3
							c-2.7,0-4.9-2.2-4.9-5c0-11.6,0-23.2,0.1-34.6l-1,0.2c-1.3,0.2-2.6,0-3.7-0.8c-1.1-0.8-1.8-1.9-2.1-3.2l-4.4-24.2
							c-0.5-2.7,1.3-5.3,4-5.8c4.5-0.8,9-1.6,13.4-2.3c-1.8-0.3-3.4-1.5-4-3.4l-7-20.9c-0.4-1.3-0.3-2.7,0.4-4s1.8-2.1,3.1-2.4
							c12.5-3.2,24.4-5.7,35.5-7.4c2.4-0.4,4.8,1.1,5.5,3.4l4.4,13.5l5.9-20.7c0.7-2.4,3.1-4,5.6-3.6c25,4.1,49.3,8.6,72.3,13.5
							c2.7,0.6,4.4,3.2,3.9,5.9l-4.4,21.6c-0.5,2.7-3.2,4.4-5.9,3.9c-25.6-5.1-50.4-9.9-73.6-14.2c-0.8-0.1-1.5-0.5-2.1-0.9l0.4,1.4
							c0.4,1.3,0.3,2.8-0.4,4c-0.7,1.2-1.8,2.1-3.2,2.4c-9.3,2.2-19.8,4.6-31,7.1c8.4-1.3,16.5-2.5,24.3-3.4
							c2.5-0.3,4.9,1.3,5.5,3.8l0.8,3.6c0.9-0.9,2.1-1.5,3.4-1.5c28.8-1.1,56.4-0.4,82.2,2.1c2.6,0.2,4.5,2.4,4.5,5l-0.2,24.3
							c0,1.4-0.6,2.7-1.7,3.7c-1,0.9-2.4,1.4-3.8,1.2c-6.7-0.7-13.4-1.3-20-1.7c0.1,17.5,0.6,59.8,1,94.6
							c0.2,20.1,0.4,37.5,0.5,44.5c0,1.3-0.5,2.6-1.5,3.6C1146.2,450.9,1144.9,451.5,1143.6,451.5z M1122.4,441.4l16.1,0.1
							c-0.1-8.7-0.2-23.2-0.4-39.5c-0.4-39.1-1-87.8-1-100c0-1.4,0.6-2.7,1.6-3.6c1-0.9,2.4-1.4,3.7-1.3c6.7,0.4,13.5,1,20.3,1.6
							l0.1-14.3c-22.6-2-46.7-2.6-71.6-1.8l-0.1,14.2c8.2-0.4,16.6-0.6,25.1-0.5c2.7,0,4.9,2.3,4.9,5
							C1120.9,319.6,1122,413.5,1122.4,441.4z M1050.3,337l14.9,0.2c0.1-13.7,0.1-26.9,0.1-39.7c0-2.4,1.8-4.5,4.2-4.9
							c2.3-0.4,4.6-0.7,6.9-1l-3.2-14.2c-10.6,1.4-21.8,3.1-33.3,5.1l2.6,14.4l2-0.4c1.5-0.3,3,0.1,4.1,1.1c1.1,1,1.8,2.4,1.8,3.9
							C1050.3,313.1,1050.3,325.1,1050.3,337z M1046.8,248.9l3.9,11.6c8.9-2,17.2-3.9,25-5.7l-3.6-11.1
							C1064,245,1055.6,246.8,1046.8,248.9z M1095.6,247.6c20.2,3.8,41.5,7.9,63.5,12.3l2.4-11.9c-20.1-4.2-41.1-8.1-62.7-11.7
							L1095.6,247.6z"/>
					</g>
				</g>
				<g>
					<g>
						<path class="st12" d="M1077.1,271.9l5.5,23.9c-4.1,0.5-8.2,1.1-12.2,1.7c0,14.3-0.1,29.2-0.1,44.7l-24.9-0.3
							c0-13.6,0-27.2,0.1-40.6c-2.3,0.4-4.6,0.9-7,1.3l-4.4-24.2C1049.3,275.7,1063.6,273.5,1077.1,271.9z M1075.4,238.1l6.6,20.3
							c-10.4,2.5-21.9,5.1-34.7,7.9l-7-20.9C1052.8,242.2,1064.5,239.8,1075.4,238.1z M1095.2,230.7c25,4.1,49.1,8.6,72.1,13.4
							l-4.4,21.6c-25.9-5.2-50.4-9.9-73.7-14.2L1095.2,230.7z M1167.9,279.9l-0.2,24.3c-8.6-0.9-17.1-1.6-25.5-2.1
							c0,18.6,1.3,124,1.5,144.5l-26.1-0.1c-0.3-19.8-1.6-125.4-1.4-145.1c-10.2-0.2-20.2,0.1-30,0.8l0.2-24.3
							C1115,276.7,1142.2,277.4,1167.9,279.9z"/>
					</g>
				</g>
				<g>
					<g>
						<path class="st1" d="M1143.6,448.7C1143.6,448.7,1143.6,448.7,1143.6,448.7l-26.1-0.1c-1.2,0-2.2-1-2.2-2.2
							c-0.3-18.5-1.5-118.6-1.4-142.9c-9.3-0.1-18.6,0.2-27.6,0.8c-0.6,0-1.2-0.2-1.7-0.6c-0.4-0.4-0.7-1-0.7-1.6l0-4.6
							c-0.3,0.3-0.7,0.4-1.1,0.5c-3.4,0.4-6.9,0.9-10.3,1.4c0,13.7-0.1,28-0.1,42.8c0,0.6-0.2,1.2-0.7,1.6c-0.4,0.4-1,0.6-1.6,0.6
							l-24.9-0.3c-1.2,0-2.2-1-2.2-2.2c0-12.7,0-25.4,0.1-37.9l-4.3,0.8c-0.6,0.1-1.2,0-1.7-0.4c-0.5-0.3-0.8-0.8-0.9-1.4l-4.4-24.2
							c-0.2-1.2,0.6-2.4,1.8-2.6c15.1-2.7,29.5-4.9,43.1-6.6c1.1-0.1,2.2,0.6,2.4,1.7l4.8,20.8l0.1-14.4c0-1.2,0.9-2.1,2.1-2.2
							c28.6-1.1,56.2-0.4,81.8,2.1c1.1,0.1,2,1.1,2,2.2l-0.2,24.3c0,0.6-0.3,1.2-0.7,1.6c-0.5,0.4-1.1,0.6-1.7,0.6
							c-7.7-0.8-15.5-1.4-23.1-2c0,15.2,0.6,60.6,1,97.6c0.2,20.1,0.4,37.5,0.5,44.5c0,0.6-0.2,1.2-0.6,1.6
							C1144.7,448.5,1144.2,448.7,1143.6,448.7z M1119.7,444.2l21.6,0.1c-0.1-8.1-0.3-24.1-0.5-42.3c-0.4-39.1-1-87.8-1-100
							c0-0.6,0.3-1.2,0.7-1.6s1-0.6,1.7-0.6c7.7,0.5,15.4,1.1,23.2,1.9l0.2-19.8c-24.3-2.3-50.2-2.9-77.1-1.9l-0.2,19.8
							c9.1-0.6,18.5-0.8,27.8-0.6c1.2,0,2.2,1,2.2,2.2C1118.1,320.2,1119.3,420.3,1119.7,444.2z M1047.6,339.7l20.4,0.2
							c0.1-14.7,0.1-28.9,0.1-42.5c0-1.1,0.8-2,1.9-2.2c3.2-0.5,6.5-1,9.8-1.4l-4.5-19.6c-12.2,1.5-25.2,3.5-38.7,5.9l3.6,19.8
							l4.8-0.9c0.6-0.1,1.3,0.1,1.8,0.5c0.5,0.4,0.8,1.1,0.8,1.7C1047.6,314,1047.5,326.9,1047.6,339.7z M1047.4,268.5
							c-0.9,0-1.8-0.6-2.1-1.5l-7-20.9c-0.2-0.6-0.1-1.2,0.2-1.8s0.8-0.9,1.4-1.1c12.4-3.2,24.3-5.6,35.2-7.4
							c1.1-0.2,2.1,0.5,2.4,1.5l6.6,20.3c0.2,0.6,0.1,1.2-0.2,1.8c-0.3,0.5-0.8,0.9-1.4,1.1c-10.4,2.5-22,5.2-34.7,8
							C1047.7,268.5,1047.5,268.5,1047.4,268.5z M1043.2,246.9l5.6,16.8c11-2.4,21.1-4.8,30.4-7l-5.3-16.2
							C1064.3,242.1,1054,244.3,1043.2,246.9z M1163,267.9c-0.1,0-0.3,0-0.4,0c-25.6-5.1-50.4-9.9-73.6-14.2c-0.6-0.1-1.1-0.5-1.5-1
							c-0.3-0.5-0.4-1.2-0.2-1.8l5.9-20.8c0.3-1.1,1.4-1.8,2.5-1.6c24.9,4.1,49.2,8.6,72.2,13.5c1.2,0.3,2,1.4,1.7,2.6l-4.4,21.6
							C1164.9,267.2,1164,267.9,1163,267.9z M1092.1,249.7c21.9,4.1,45.1,8.5,69.1,13.3l3.5-17.3c-21.7-4.5-44.5-8.8-67.9-12.7
							L1092.1,249.7z"/>
					</g>
				</g>
			</g>
			<g>
				<g>
					<path class="st1" d="M1113.4,451.2c-12.7,0-25.1-4.6-34.8-13.1c-7.7-6.8-11.2-14.5-14.5-21.9c-1.8-4.1-3.5-7.9-5.9-11.6
						c-1.4-2.1-1.7-4.8-0.7-7.2c1-2.4,3-4.1,5.5-4.7c23.6-5.3,44.8-1.2,58.2,11c9.9,9,14.4,21.4,12.7,34.8c-0.4,2.9-2.4,5.3-5,6.3
						c-0.2,0.7-0.5,1.3-0.8,1.9c-1.2,1.9-3.1,3.2-5.2,3.6C1119.7,451,1116.5,451.2,1113.4,451.2z M1079.8,413.3
						c2.3,5,4.8,9.4,9,13.1c5.9,5.2,13.2,8.3,20.8,9.1C1103.2,425.2,1092.1,416.6,1079.8,413.3z"/>
				</g>
				<g>
					<path class="st7" d="M1081.1,405.7c20.1,1.7,39.6,15.4,45.1,32c3.3-25.9-22.3-46.1-61.6-37.3c7.2,11,8.8,22.8,19.1,31.9
						c10.3,9,24.2,12.9,37.7,10.5C1116.3,425.8,1100.1,410.5,1081.1,405.7L1081.1,405.7z"/>
				</g>
			</g>
		</g>
	</g>
</g>
</svg>
