<?xml version="1.0" encoding="UTF-8"?>
<svg id="_圖層_2" data-name="圖層 2" xmlns="http://www.w3.org/2000/svg" width="498.33" height="186.04" xmlns:xlink="http://www.w3.org/1999/xlink" viewBox="0 0 498.33 186.04">
  <defs>
    <filter id="drop-shadow-1" filterUnits="userSpaceOnUse">
      <feOffset dx="4.96" dy="4.96"/>
      <feGaussianBlur result="blur" stdDeviation="4.96"/>
      <feFlood flood-color="#002f3d" flood-opacity=".5"/>
      <feComposite in2="blur" operator="in"/>
      <feComposite in="SourceGraphic"/>
    </filter>
    <filter id="drop-shadow-2" filterUnits="userSpaceOnUse">
      <feOffset dx="4.46" dy="4.46"/>
      <feGaussianBlur result="blur-2" stdDeviation="8.92"/>
      <feFlood flood-color="#005272" flood-opacity=".5"/>
      <feComposite in2="blur-2" operator="in"/>
      <feComposite in="SourceGraphic"/>
    </filter>
  </defs>
  <g id="inside_logo">
    <g>
      <g style="filter: url(#drop-shadow-1);">
        <g>
          <polygon points="28.77 110.03 412.58 75.3 411.16 37.75 0 56.55 28.77 110.03" style="fill: #1398d9;"/>
          <g>
            <g>
              <path d="M422.12,62.78l-27.71,3.39c-.34-.33-.8-.61-1-1.02-.38-.76,.33-1.68,1.48-1.81,8.02-.94,16.03-1.94,24.04-2.91,.35-.04,.69-.08,1.04-.13-.22-1.78-.42-3.43-.62-5.09-21.04,2.57-42.03,5.13-63.03,7.7,.21,1.7,.41,3.35,.62,5.09l1.09-.13c7.92-.97,15.85-1.93,23.77-2.92,.81-.1,1.55-.03,1.97,.68,.45,.78-.04,1.39-.63,1.91-9.59,1.17-19.19,2.34-28.78,3.52-.03-.24-.06-.48-.09-.71,.04-.13,.14-.26,.12-.38-.68-5.53-1.37-11.06-2.05-16.6,.26-.86,.99-1.01,1.73-1.1,4.59-.57,9.17-1.13,13.76-1.69l.97-.12c-.25-2.02-.48-3.93-.7-5.7-1.85-.03-3.62,0-5.39-.09-3.39-.18-5.93-1.73-7.46-4.82-1.17-2.37-1.66-4.9-1.6-7.52,.01-.56,.38-1.48,.77-1.59,2.48-.73,5.04-1.06,7.64-.71,2.49,.33,4.51,1.48,6.1,3.51,.85-2.16,2.34-3.64,4.36-4.59,2.39-1.12,4.92-1.39,7.53-1.46,.94-.02,1.54,.23,1.75,1.09,.51,2.01,.73,4.05,.61,6.15-.28,5.07-3.69,8.13-8.35,8.94-1.04,.18-2.08,.43-3.12,.65l.7,5.72c9.93-1.21,19.8-2.42,29.7-3.63-.24-1.96-.47-3.87-.7-5.77-1.63,.06-3.2,.21-4.77,.16-2.62-.08-4.93-.91-6.72-2.98-1.34-1.54-2.06-3.37-2.46-5.29-.32-1.53-.34-3.13-.39-4.7-.02-.49,.21-1.08,.88-1.17,1.97-.25,3.94-.65,5.91-.69,3.05-.06,5.74,.91,7.45,3.33,1-1.14,1.86-2.51,3.08-3.42,2.86-2.14,6.3-2.39,9.73-2.35,.33,0,.88,.58,.94,.95,.33,1.98,.7,3.98,.73,5.98,.03,2.14-.59,4.23-2.05,5.89-1.61,1.82-3.72,2.83-6.09,3.3-1.1,.22-2.19,.44-3.28,.66,.24,1.95,.47,3.84,.71,5.81,.36-.04,.68-.08,1-.12,4.5-.55,8.99-1.1,13.49-1.65,1.65-.2,2.11,.15,2.3,1.74,.59,4.82,1.14,9.64,1.8,14.44,.13,.98-.12,1.65-.82,2.24Zm-3.72-15.51c-21.07,2.57-42.05,5.14-63.03,7.7,.21,1.71,.41,3.36,.61,4.99,21.04-2.57,42.02-5.13,63.03-7.7-.21-1.68-.4-3.3-.61-4.99Zm-6.37-20.88c-2.76-.11-5.29,.34-7.32,2.21-1.83,1.68-2.58,5.05-1.68,7.23,.29-.29,.58-.53,.82-.82,.72-.88,1.41-1.79,2.11-2.68,.55-.7,1.66-.96,2.18-.52,.61,.52,.61,1.32-.02,2.11-.79,.99-1.6,1.97-2.41,2.96,.05,.07,.11,.15,.16,.22,.58-.15,1.19-.24,1.75-.46,1.53-.58,2.89-1.35,3.75-2.88,1.32-2.36,1.04-4.82,.67-7.38Zm-22.84,2.63c-.13,2.53,.38,4.87,1.94,6.83,1.44,1.82,4.82,2.81,6.55,2-1.1-.82-2.16-1.6-3.2-2.41-.79-.61-.89-1.26-.37-1.99,.3-.43,1.51-.48,2.03-.07,1.14,.88,2.26,1.77,3.4,2.64,.16,.13,.36,.21,.62,.35-.78-6.39-3.72-8.7-10.98-7.36Zm-32.68,3.94c-.05,7.18,4.72,10.06,8.52,8.88-.62-.42-1.13-.72-1.59-1.09-.65-.52-1.33-1.03-1.86-1.65-.26-.3-.37-.92-.25-1.29,.11-.31,.64-.63,1.01-.66,.48-.03,1.07,.1,1.46,.38,1.11,.76,2.14,1.64,3.21,2.46,.16,.13,.36,.21,.66,.38-.27-1.15-.45-2.13-.75-3.08-.64-2.07-1.82-3.63-4.05-4.27-2.12-.61-4.21-.4-6.37-.07Zm13.78,6.71c.08,.03,.15,.07,.23,.1,.18-.22,.37-.43,.55-.65,.8-1.01,1.59-2.03,2.39-3.03,.37-.47,1.47-.65,1.93-.35,.71,.47,.67,1.14,.41,1.81-.12,.3-.36,.55-.56,.81-.67,.86-1.35,1.71-2.02,2.57,.67,.01,1.25-.08,1.79-.29,1.34-.54,2.71-1.15,3.5-2.4,1.59-2.52,1.44-5.26,.79-8.15-1.47,.27-2.83,.45-4.14,.79-1.28,.34-2.47,.9-3.36,1.97-1.7,2.04-1.71,4.41-1.5,6.83Z" style="fill: none; stroke: #1398d9; stroke-linecap: round; stroke-linejoin: round; stroke-width: 5.34px;"/>
              <path d="M422.12,62.78l-27.71,3.39c-.34-.33-.8-.61-1-1.02-.38-.76,.33-1.68,1.48-1.81,8.02-.94,16.03-1.94,24.04-2.91,.35-.04,.69-.08,1.04-.13-.22-1.78-.42-3.43-.62-5.09-21.04,2.57-42.03,5.13-63.03,7.7,.21,1.7,.41,3.35,.62,5.09l1.09-.13c7.92-.97,15.85-1.93,23.77-2.92,.81-.1,1.55-.03,1.97,.68,.45,.78-.04,1.39-.63,1.91-9.59,1.17-19.19,2.34-28.78,3.52-.03-.24-.06-.48-.09-.71,.04-.13,.14-.26,.12-.38-.68-5.53-1.37-11.06-2.05-16.6,.26-.86,.99-1.01,1.73-1.1,4.59-.57,9.17-1.13,13.76-1.69l.97-.12c-.25-2.02-.48-3.93-.7-5.7-1.85-.03-3.62,0-5.39-.09-3.39-.18-5.93-1.73-7.46-4.82-1.17-2.37-1.66-4.9-1.6-7.52,.01-.56,.38-1.48,.77-1.59,2.48-.73,5.04-1.06,7.64-.71,2.49,.33,4.51,1.48,6.1,3.51,.85-2.16,2.34-3.64,4.36-4.59,2.39-1.12,4.92-1.39,7.53-1.46,.94-.02,1.54,.23,1.75,1.09,.51,2.01,.73,4.05,.61,6.15-.28,5.07-3.69,8.13-8.35,8.94-1.04,.18-2.08,.43-3.12,.65l.7,5.72c9.93-1.21,19.8-2.42,29.7-3.63-.24-1.96-.47-3.87-.7-5.77-1.63,.06-3.2,.21-4.77,.16-2.62-.08-4.93-.91-6.72-2.98-1.34-1.54-2.06-3.37-2.46-5.29-.32-1.53-.34-3.13-.39-4.7-.02-.49,.21-1.08,.88-1.17,1.97-.25,3.94-.65,5.91-.69,3.05-.06,5.74,.91,7.45,3.33,1-1.14,1.86-2.51,3.08-3.42,2.86-2.14,6.3-2.39,9.73-2.35,.33,0,.88,.58,.94,.95,.33,1.98,.7,3.98,.73,5.98,.03,2.14-.59,4.23-2.05,5.89-1.61,1.82-3.72,2.83-6.09,3.3-1.1,.22-2.19,.44-3.28,.66,.24,1.95,.47,3.84,.71,5.81,.36-.04,.68-.08,1-.12,4.5-.55,8.99-1.1,13.49-1.65,1.65-.2,2.11,.15,2.3,1.74,.59,4.82,1.14,9.64,1.8,14.44,.13,.98-.12,1.65-.82,2.24Zm-3.72-15.51c-21.07,2.57-42.05,5.14-63.03,7.7,.21,1.71,.41,3.36,.61,4.99,21.04-2.57,42.02-5.13,63.03-7.7-.21-1.68-.4-3.3-.61-4.99Zm-6.37-20.88c-2.76-.11-5.29,.34-7.32,2.21-1.83,1.68-2.58,5.05-1.68,7.23,.29-.29,.58-.53,.82-.82,.72-.88,1.41-1.79,2.11-2.68,.55-.7,1.66-.96,2.18-.52,.61,.52,.61,1.32-.02,2.11-.79,.99-1.6,1.97-2.41,2.96,.05,.07,.11,.15,.16,.22,.58-.15,1.19-.24,1.75-.46,1.53-.58,2.89-1.35,3.75-2.88,1.32-2.36,1.04-4.82,.67-7.38Zm-22.84,2.63c-.13,2.53,.38,4.87,1.94,6.83,1.44,1.82,4.82,2.81,6.55,2-1.1-.82-2.16-1.6-3.2-2.41-.79-.61-.89-1.26-.37-1.99,.3-.43,1.51-.48,2.03-.07,1.14,.88,2.26,1.77,3.4,2.64,.16,.13,.36,.21,.62,.35-.78-6.39-3.72-8.7-10.98-7.36Zm-32.68,3.94c-.05,7.18,4.72,10.06,8.52,8.88-.62-.42-1.13-.72-1.59-1.09-.65-.52-1.33-1.03-1.86-1.65-.26-.3-.37-.92-.25-1.29,.11-.31,.64-.63,1.01-.66,.48-.03,1.07,.1,1.46,.38,1.11,.76,2.14,1.64,3.21,2.46,.16,.13,.36,.21,.66,.38-.27-1.15-.45-2.13-.75-3.08-.64-2.07-1.82-3.63-4.05-4.27-2.12-.61-4.21-.4-6.37-.07Zm13.78,6.71c.08,.03,.15,.07,.23,.1,.18-.22,.37-.43,.55-.65,.8-1.01,1.59-2.03,2.39-3.03,.37-.47,1.47-.65,1.93-.35,.71,.47,.67,1.14,.41,1.81-.12,.3-.36,.55-.56,.81-.67,.86-1.35,1.71-2.02,2.57,.67,.01,1.25-.08,1.79-.29,1.34-.54,2.71-1.15,3.5-2.4,1.59-2.52,1.44-5.26,.79-8.15-1.47,.27-2.83,.45-4.14,.79-1.28,.34-2.47,.9-3.36,1.97-1.7,2.04-1.71,4.41-1.5,6.83Z" style="fill: #fff;"/>
            </g>
            <g>
              <path d="M88.46,27.85l3.43,8.67c-5.68,1.8-11.73,3.41-18.16,4.84,1.26,2.88,2.94,5.53,5.03,7.95l-5.7,3.46c1.48-.18,2.94-.33,4.37-.45,.74-.06,1.45-.1,2.13-.1,4.08,0,7.25,1.14,9.51,3.42,1.94,1.81,3.32,4.58,4.13,8.32,1.58-.09,3.17-.16,4.76-.2l-.04,8.68c-1.4,.03-2.74,.07-4.04,.14-.28,3.4-1.25,5.87-2.9,7.41-2.48,2.58-6.3,4.33-11.47,5.27,.61,3.08,6.21,34.17,6.82,37.25l-11.46,2.09c-.75-3.65-6.44-35.14-7.07-38.46-4.77-.02-9.02-.32-12.74-.91l.39-8.78c3.53,.66,7.05,1,10.58,1.03-.25-1.18-.47-2.32-.66-3.41-4.65,.31-9.25,.66-13.79,1.06l.04-8.68c4.07-.36,8.09-.68,12.06-.98-.17-.85-.34-1.66-.5-2.42-2.7,.57-5.54,1.21-8.51,1.9l-2.11-8.42c1.22-.35,2.47-.67,3.75-.98-2.06-2.09-3.76-4.42-5.1-7l7.95-4.17h.07c1.33,2.53,3.1,4.86,5.31,6.98l-6.11,3.72c3.93-.82,7.9-1.49,11.9-1.98-1.99-2.38-3.65-5.11-4.98-8.17l5.6-2.95c-3.83,.91-7.76,1.72-11.8,2.41-2.08,.42-4.22,.8-6.41,1.14l-3.17-8.98c13.9-2.61,26.86-5.5,38.87-8.68m-13.04,36.94c2.4-.16,4.77-.3,7.12-.41-.2-.61-.41-1.15-.65-1.61-.93-1.16-2.4-1.74-4.4-1.74-.33,0-.67,.02-1.03,.05-.57,.05-1.17,.1-1.79,.16,.25,1.18,.5,2.37,.74,3.55m7.59,8.23c-2.01,.13-3.98,.25-5.9,.37,.19,1.04,.4,2.06,.63,3.05,1.65-.43,3.04-1.06,4.17-1.88,.49-.43,.86-.94,1.09-1.54M33.32,36.8c2.19,0,6.02,1.08,11.51,3.25,3.73,1.84,5.73,4.3,5.99,7.36,.22,2.54-.64,4.78-2.59,6.74-2.39,2.48-4.04,4.23-4.96,5.28-1.06,1.06-1.57,1.92-1.51,2.59,.15,1.72,3.18,3.31,9.1,4.77l-3.39,8.32c-.06,0-.11,0-.17,0-4.86,0-9.72-1.89-14.57-5.66-1.67-1.98-2.6-4.11-2.8-6.41-.2-2.3,.99-4.69,3.57-7.18,.96-1.1,2.49-2.68,4.58-4.74,.75-.74,1.11-1.35,1.07-1.83-.08-.91-.84-1.64-2.29-2.19-2.18-.68-4.51-1.44-7-2.28l3.35-8.03s.09,0,.13,0m51.24,2.75l9.46,2.35c-1.55,3.8-2.83,7.58-3.86,11.33l-9.46-2.36c1.45-4.37,2.73-8.14,3.86-11.33m13.4,24.21h0m-48.69,14.74l4.08,10.27c-4.67,2.82-10.07,5.05-16.19,6.69l-3.83-10.73c5.68-1.75,10.99-3.83,15.94-6.24M88.46,22.52c-.45,0-.91,.06-1.36,.18-11.83,3.12-24.78,6.01-38.5,8.59-1.53,.29-2.85,1.23-3.63,2.58-.08,.14-.16,.29-.23,.44-5.21-1.95-8.78-2.84-11.42-2.84h-.24c-2.11,.05-3.99,1.33-4.81,3.28l-3.35,8.03c-.57,1.36-.55,2.9,.06,4.24,.61,1.34,1.74,2.38,3.14,2.85,.94,.32,1.87,.63,2.77,.93-.49,.51-.91,.98-1.28,1.39-3.67,3.61-5.35,7.41-5.01,11.32,.3,3.4,1.66,6.56,4.04,9.38,.24,.28,.51,.54,.8,.77,2.35,1.82,4.74,3.28,7.14,4.37-1.58,.57-3.2,1.1-4.83,1.61-1.39,.43-2.54,1.4-3.19,2.7s-.74,2.81-.25,4.18l3.83,10.73c.77,2.16,2.81,3.54,5.01,3.54,.46,0,.92-.06,1.38-.18,6.58-1.77,12.49-4.22,17.56-7.28,.94-.57,1.66-1.39,2.09-2.34,1.64,.17,3.36,.29,5.15,.37,.32,1.77,.72,3.95,1.16,6.36,1.96,10.74,4.64,25.45,5.15,27.94,.52,2.51,2.73,4.25,5.21,4.25,.32,0,.64-.03,.96-.09l11.46-2.09c1.4-.26,2.64-1.06,3.45-2.24s1.1-2.63,.82-4.03c-.3-1.51-1.88-10.21-3.41-18.63-.93-5.14-1.84-10.11-2.49-13.66,3.75-1.26,6.79-3.07,9.07-5.41,1.62-1.56,2.82-3.57,3.58-6.02,2.76-.2,4.92-2.49,4.94-5.29l.04-8.52c0-.06,0-.12,0-.19,0-2.94-2.38-5.32-5.32-5.33h-.01s-.03,0-.05,0h0s0,0,0,0c-.04,0-.07,0-.11,0-.23,0-.46,.01-.69,.02-.53-1.33-1.14-2.55-1.85-3.64,.02-.06,.04-.12,.05-.18,.96-3.52,2.19-7.13,3.65-10.72,.58-1.43,.52-3.04-.18-4.42-.39-.78-.97-1.43-1.66-1.93,.2-1,.11-2.04-.27-3l-3.43-8.67c-.82-2.07-2.81-3.37-4.95-3.37h0Z" style="fill: #1398d9;"/>
              <path d="M33.19,36.8c2.17-.04,6.04,1.04,11.64,3.25,3.73,1.84,5.73,4.3,5.99,7.36,.22,2.54-.64,4.78-2.59,6.74-2.39,2.48-4.04,4.23-4.96,5.28-1.06,1.06-1.57,1.92-1.51,2.59,.15,1.72,3.18,3.31,9.1,4.77l-3.39,8.32c-4.91,.04-9.83-1.84-14.74-5.65-1.67-1.98-2.6-4.11-2.8-6.41-.2-2.3,.99-4.69,3.57-7.18,.96-1.1,2.49-2.68,4.58-4.74,.75-.74,1.11-1.35,1.07-1.83-.08-.91-.84-1.64-2.29-2.19-2.18-.68-4.51-1.44-7-2.28l3.35-8.03Zm16.08,41.7l4.08,10.27c-4.67,2.82-10.07,5.05-16.19,6.69l-3.83-10.73c5.68-1.75,10.99-3.83,15.94-6.24ZM88.46,27.85l3.43,8.67c-5.68,1.8-11.73,3.41-18.16,4.84,1.26,2.88,2.94,5.53,5.03,7.95l-5.7,3.46c1.48-.18,2.94-.33,4.37-.45,5.12-.45,9,.66,11.64,3.32,1.94,1.81,3.32,4.58,4.13,8.32,1.58-.09,3.17-.16,4.76-.2l-.04,8.68c-1.4,.03-2.74,.07-4.04,.14-.28,3.4-1.25,5.87-2.9,7.41-2.48,2.58-6.3,4.33-11.47,5.27,.61,3.08,6.21,34.17,6.82,37.25l-11.46,2.09c-.75-3.65-6.44-35.14-7.07-38.46-4.77-.02-9.02-.32-12.74-.91l.39-8.78c3.53,.66,7.05,1,10.58,1.03-.25-1.18-.47-2.32-.66-3.41-4.65,.31-9.25,.66-13.79,1.06l.04-8.68c4.07-.36,8.09-.68,12.06-.98-.17-.85-.34-1.66-.5-2.42-2.7,.57-5.54,1.21-8.51,1.9l-2.11-8.42c1.22-.35,2.47-.67,3.75-.98-2.06-2.09-3.76-4.42-5.1-7l7.95-4.17h.07c1.33,2.53,3.1,4.86,5.31,6.98l-6.11,3.72c3.93-.82,7.9-1.49,11.9-1.98-1.99-2.38-3.65-5.11-4.98-8.17l5.6-2.95c-3.83,.91-7.76,1.72-11.8,2.41-2.08,.42-4.22,.8-6.41,1.14l-3.17-8.98c13.9-2.61,26.86-5.5,38.87-8.68Zm-13.79,33.39c.25,1.18,.5,2.37,.74,3.55,2.4-.16,4.77-.3,7.12-.41-.2-.61-.41-1.15-.65-1.61-1.08-1.35-2.89-1.92-5.43-1.69-.57,.05-1.17,.1-1.79,.16Zm2.44,12.15c.19,1.04,.4,2.06,.63,3.05,1.65-.43,3.04-1.06,4.17-1.88,.49-.43,.86-.94,1.09-1.54-2.01,.13-3.98,.25-5.9,.37Zm7.46-33.85l9.46,2.35c-1.55,3.8-2.83,7.58-3.86,11.33l-9.46-2.36c1.45-4.37,2.73-8.14,3.86-11.33Z" style="fill: none; stroke: #fff; stroke-linecap: round; stroke-linejoin: round; stroke-width: 3.87px;"/>
              <path d="M33.19,36.8c2.17-.04,6.04,1.04,11.64,3.25,3.73,1.84,5.73,4.3,5.99,7.36,.22,2.54-.64,4.78-2.59,6.74-2.39,2.48-4.04,4.23-4.96,5.28-1.06,1.06-1.57,1.92-1.51,2.59,.15,1.72,3.18,3.31,9.1,4.77l-3.39,8.32c-4.91,.04-9.83-1.84-14.74-5.65-1.67-1.98-2.6-4.11-2.8-6.41-.2-2.3,.99-4.69,3.57-7.18,.96-1.1,2.49-2.68,4.58-4.74,.75-.74,1.11-1.35,1.07-1.83-.08-.91-.84-1.64-2.29-2.19-2.18-.68-4.51-1.44-7-2.28l3.35-8.03Zm16.08,41.7l4.08,10.27c-4.67,2.82-10.07,5.05-16.19,6.69l-3.83-10.73c5.68-1.75,10.99-3.83,15.94-6.24ZM88.46,27.85l3.43,8.67c-5.68,1.8-11.73,3.41-18.16,4.84,1.26,2.88,2.94,5.53,5.03,7.95l-5.7,3.46c1.48-.18,2.94-.33,4.37-.45,5.12-.45,9,.66,11.64,3.32,1.94,1.81,3.32,4.58,4.13,8.32,1.58-.09,3.17-.16,4.76-.2l-.04,8.68c-1.4,.03-2.74,.07-4.04,.14-.28,3.4-1.25,5.87-2.9,7.41-2.48,2.58-6.3,4.33-11.47,5.27,.61,3.08,6.21,34.17,6.82,37.25l-11.46,2.09c-.75-3.65-6.44-35.14-7.07-38.46-4.77-.02-9.02-.32-12.74-.91l.39-8.78c3.53,.66,7.05,1,10.58,1.03-.25-1.18-.47-2.32-.66-3.41-4.65,.31-9.25,.66-13.79,1.06l.04-8.68c4.07-.36,8.09-.68,12.06-.98-.17-.85-.34-1.66-.5-2.42-2.7,.57-5.54,1.21-8.51,1.9l-2.11-8.42c1.22-.35,2.47-.67,3.75-.98-2.06-2.09-3.76-4.42-5.1-7l7.95-4.17h.07c1.33,2.53,3.1,4.86,5.31,6.98l-6.11,3.72c3.93-.82,7.9-1.49,11.9-1.98-1.99-2.38-3.65-5.11-4.98-8.17l5.6-2.95c-3.83,.91-7.76,1.72-11.8,2.41-2.08,.42-4.22,.8-6.41,1.14l-3.17-8.98c13.9-2.61,26.86-5.5,38.87-8.68Zm-13.79,33.39c.25,1.18,.5,2.37,.74,3.55,2.4-.16,4.77-.3,7.12-.41-.2-.61-.41-1.15-.65-1.61-1.08-1.35-2.89-1.92-5.43-1.69-.57,.05-1.17,.1-1.79,.16Zm2.44,12.15c.19,1.04,.4,2.06,.63,3.05,1.65-.43,3.04-1.06,4.17-1.88,.49-.43,.86-.94,1.09-1.54-2.01,.13-3.98,.25-5.9,.37Zm7.46-33.85l9.46,2.35c-1.55,3.8-2.83,7.58-3.86,11.33l-9.46-2.36c1.45-4.37,2.73-8.14,3.86-11.33Z" style="fill: #1398d9;"/>
              <path d="M33.19,36.8c2.17-.04,6.04,1.04,11.64,3.25,3.73,1.84,5.73,4.3,5.99,7.36,.22,2.54-.64,4.78-2.59,6.74-2.39,2.48-4.04,4.23-4.96,5.28-1.06,1.06-1.57,1.92-1.51,2.59,.15,1.72,3.18,3.31,9.1,4.77l-3.39,8.32c-4.91,.04-9.83-1.84-14.74-5.65-1.67-1.98-2.6-4.11-2.8-6.41-.2-2.3,.99-4.69,3.57-7.18,.96-1.1,2.49-2.68,4.58-4.74,.75-.74,1.11-1.35,1.07-1.83-.08-.91-.84-1.64-2.29-2.19-2.18-.68-4.51-1.44-7-2.28l3.35-8.03Zm16.08,41.7l4.08,10.27c-4.67,2.82-10.07,5.05-16.19,6.69l-3.83-10.73c5.68-1.75,10.99-3.83,15.94-6.24ZM88.46,27.85l3.43,8.67c-5.68,1.8-11.73,3.41-18.16,4.84,1.26,2.88,2.94,5.53,5.03,7.95l-5.7,3.46c1.48-.18,2.94-.33,4.37-.45,5.12-.45,9,.66,11.64,3.32,1.94,1.81,3.32,4.58,4.13,8.32,1.58-.09,3.17-.16,4.76-.2l-.04,8.68c-1.4,.03-2.74,.07-4.04,.14-.28,3.4-1.25,5.87-2.9,7.41-2.48,2.58-6.3,4.33-11.47,5.27,.61,3.08,6.21,34.17,6.82,37.25l-11.46,2.09c-.75-3.65-6.44-35.14-7.07-38.46-4.77-.02-9.02-.32-12.74-.91l.39-8.78c3.53,.66,7.05,1,10.58,1.03-.25-1.18-.47-2.32-.66-3.41-4.65,.31-9.25,.66-13.79,1.06l.04-8.68c4.07-.36,8.09-.68,12.06-.98-.17-.85-.34-1.66-.5-2.42-2.7,.57-5.54,1.21-8.51,1.9l-2.11-8.42c1.22-.35,2.47-.67,3.75-.98-2.06-2.09-3.76-4.42-5.1-7l7.95-4.17h.07c1.33,2.53,3.1,4.86,5.31,6.98l-6.11,3.72c3.93-.82,7.9-1.49,11.9-1.98-1.99-2.38-3.65-5.11-4.98-8.17l5.6-2.95c-3.83,.91-7.76,1.72-11.8,2.41-2.08,.42-4.22,.8-6.41,1.14l-3.17-8.98c13.9-2.61,26.86-5.5,38.87-8.68Zm-13.79,33.39c.25,1.18,.5,2.37,.74,3.55,2.4-.16,4.77-.3,7.12-.41-.2-.61-.41-1.15-.65-1.61-1.08-1.35-2.89-1.92-5.43-1.69-.57,.05-1.17,.1-1.79,.16Zm2.44,12.15c.19,1.04,.4,2.06,.63,3.05,1.65-.43,3.04-1.06,4.17-1.88,.49-.43,.86-.94,1.09-1.54-2.01,.13-3.98,.25-5.9,.37Zm7.46-33.85l9.46,2.35c-1.55,3.8-2.83,7.58-3.86,11.33l-9.46-2.36c1.45-4.37,2.73-8.14,3.86-11.33Z" style="fill: none; stroke: #fff; stroke-linecap: round; stroke-linejoin: round; stroke-width: 2.42px;"/>
            </g>
            <g>
              <path d="M161.81,21.73l1.69,8.53c-3.49,.31-6.96,.66-10.39,1.05l4.76,.67c-.18,.69-.39,1.38-.61,2.08,1.74,.09,3.35,.29,4.82,.59,4.36,1.31,6.64,3.16,6.85,5.55l.11,1.29c.06,4-.59,7.57-1.96,10.73l-11.01-.99c1.4-2.15,2.14-4.48,2.21-6.99-.08-.96-.98-1.55-2.69-1.79-.48,2.79-.83,5.67-1.05,8.63l-10.18-1.42c.14-2.28,.35-4.52,.64-6.71l-1.29,.11c-.91,.08-1.74,.18-2.51,.29-.03,2.94,.05,5.88,.26,8.8,9.48,.86,18.82,2.19,28.05,3.99l-.73,9.03c-5.68-1.05-11.38-1.95-17.09-2.7l1.15,5.76c-11.01,.96-22.03,2.79-33.08,5.49l-.91-4.62c-3.46,1.75-6.99,3.55-10.59,5.41l-4.42-7.5c9.32-5.3,18.17-9.98,26.54-14.04-.19-2.68-.29-5.28-.32-7.78-1.23,.25-2.41,.52-3.54,.82,.67,2.21,1.4,4.43,2.18,6.68l-10.01,2.1c-.71-2.01-1.36-3.98-1.96-5.9-.7,.25-1.43,.51-2.18,.77,1.13,2.46,2.39,4.95,3.76,7.48l-9.22,3.7c-3.26-5.84-5.82-12-7.69-18.49l9.22-3.7c.22,.9,.47,1.77,.73,2.61,.94-.32,1.85-.62,2.74-.89-.33-1.03-.64-2.06-.92-3.1-1.95,.36-3.87,.72-5.76,1.08l-1.54-8.54c17.33-3.64,35.97-6.32,55.92-8.07m-14.65,10.25c-1.91,.22-3.79,.45-5.65,.71-.04,.68-.05,1.33-.05,1.96,1-.14,1.98-.25,2.94-.33l2.23-.19c.18-.74,.35-1.45,.54-2.14m-16.79,2.33c-2.38,.35-4.76,.73-7.13,1.13,.21,.75,.47,1.48,.77,2.17,2.08-.52,4.16-.97,6.25-1.34,.03-.73,.07-1.38,.12-1.96m-2.17,29.84c5.36-1.05,10.9-1.92,16.62-2.61-3.27-.44-6.48-.81-9.64-1.11-2.35,1.27-4.68,2.51-6.98,3.72m24.17,5.76c2.33,0,4.28,.27,5.84,.8,2.36,1.1,3.73,2.98,4.11,5.64,0,1.59-1.04,3.59-3.09,5.98,.19,.03,.34,.07,.44,.11l-1.88,8.26c-8.5-1.81-16.82-3.01-24.98-3.6l1.71-6.95c-6.22,1.65-11.99,3.72-17.32,6.21l-2.99-6.9c9.9-4.72,21.54-7.86,34.9-9.41,1.16-.1,2.25-.15,3.26-.15m-.64,11.13c.48-.52,.83-1.01,1.03-1.46-.13-1.53-1.42-2.29-3.85-2.29-.39,0-.81,.02-1.26,.06-3.47,.55-6.79,1.2-9.95,1.95,4.81,.45,9.49,1.03,14.04,1.74m10.08-64.64c-.16,0-.31,0-.47,.02-20.07,1.75-39.1,4.5-56.55,8.16-2.82,.59-4.66,3.32-4.15,6.16l1.04,5.75-2.25,.9c-2.54,1.02-3.89,3.79-3.14,6.42,1.74,6.04,4.08,11.88,6.97,17.41-.68,.38-1.35,.76-2.03,1.15-1.24,.7-2.15,1.88-2.51,3.26s-.17,2.85,.56,4.08l4.42,7.5c.99,1.68,2.76,2.62,4.59,2.62,.2,0,.41-.01,.61-.04,.04,.61,.18,1.22,.43,1.8l2.99,6.9c.57,1.32,1.65,2.35,3,2.86,.61,.23,1.25,.35,1.89,.35,.77,0,1.54-.17,2.26-.5,2.57-1.2,5.27-2.31,8.09-3.31,.12,.84,.45,1.65,.96,2.35,.92,1.27,2.36,2.07,3.92,2.18,7.87,.57,16.03,1.75,24.25,3.5,.37,.08,.75,.12,1.12,.12,2.43,0,4.63-1.68,5.19-4.14l1.83-8.05c1.89-2.66,2.82-5.11,2.83-7.47,0-.26-.02-.51-.05-.76-.3-2.13-1.05-4.04-2.18-5.65,.81,.14,1.61,.29,2.41,.43,.32,.06,.64,.09,.96,.09,1.16,0,2.3-.38,3.24-1.1,1.2-.92,1.95-2.3,2.07-3.8l.73-9.03c.15-1.81-.64-3.5-1.97-4.58,1.05-3.23,1.56-6.78,1.5-10.57,0-.13,0-.26-.02-.38l-.11-1.29c-.22-2.47-1.45-5.6-5.6-8.06,.22-.79,.25-1.63,.09-2.45l-1.69-8.53c-.5-2.51-2.7-4.29-5.22-4.29h0Zm-12.36,66.25h0Z" style="fill: #1398d9;"/>
              <path d="M161.81,21.73l1.69,8.53c-3.49,.31-6.96,.66-10.39,1.05l4.76,.67c-.18,.69-.38,1.38-.61,2.08,1.74,.09,3.35,.29,4.82,.59,4.36,1.31,6.64,3.16,6.85,5.55l.11,1.29c.06,4-.59,7.57-1.96,10.73l-11.01-.99c1.4-2.15,2.14-4.48,2.21-6.99-.08-.96-.98-1.55-2.69-1.79-.48,2.79-.83,5.67-1.05,8.63l-10.18-1.42c.14-2.28,.35-4.52,.64-6.71l-1.29,.11c-.91,.08-1.74,.18-2.51,.29-.03,2.94,.05,5.88,.26,8.8,9.48,.86,18.82,2.19,28.05,3.99l-.73,9.03c-5.68-1.05-11.38-1.95-17.09-2.7l1.15,5.76c-11.01,.96-22.03,2.79-33.08,5.49l-.91-4.62c-3.46,1.75-6.99,3.55-10.59,5.41l-4.42-7.5c9.32-5.3,18.17-9.98,26.54-14.04-.19-2.68-.29-5.28-.32-7.78-1.23,.25-2.41,.52-3.55,.82,.67,2.21,1.4,4.43,2.18,6.68l-10.01,2.1c-.71-2.01-1.36-3.98-1.96-5.9-.7,.25-1.43,.51-2.17,.77,1.13,2.46,2.39,4.95,3.76,7.48l-9.22,3.7c-3.26-5.84-5.82-12-7.69-18.49l9.22-3.7c.22,.9,.47,1.77,.73,2.61,.94-.32,1.85-.62,2.74-.89-.33-1.03-.64-2.06-.92-3.1-1.95,.36-3.87,.72-5.76,1.08l-1.54-8.54c17.33-3.64,35.97-6.32,55.92-8.07Zm-12.7,48.33c3.83-.33,6.86-.12,9.1,.65,2.36,1.1,3.73,2.98,4.11,5.64,0,1.59-1.04,3.59-3.09,5.98,.19,.03,.34,.07,.44,.11l-1.88,8.26c-8.5-1.81-16.82-3.01-24.98-3.6l1.71-6.95c-6.22,1.65-11.99,3.72-17.32,6.21l-2.99-6.9c9.9-4.72,21.54-7.86,34.9-9.41Zm-25.88-34.62c.21,.75,.47,1.48,.77,2.17,2.08-.52,4.16-.97,6.25-1.34,.03-.73,.07-1.38,.12-1.96-2.38,.35-4.76,.73-7.13,1.13Zm4.97,28.71c5.36-1.05,10.9-1.92,16.62-2.61-3.27-.44-6.48-.81-9.64-1.11-2.35,1.27-4.68,2.51-6.98,3.72Zm9.5,15.15c4.81,.45,9.49,1.03,14.04,1.74,.48-.52,.83-1.01,1.03-1.46-.15-1.77-1.86-2.51-5.11-2.23-3.47,.55-6.79,1.2-9.95,1.95Zm8.92-45.18c.18-.74,.35-1.45,.54-2.14-1.91,.22-3.79,.45-5.65,.71-.04,.68-.05,1.33-.05,1.96,1-.14,1.98-.25,2.94-.33l2.23-.19Z" style="fill: none; stroke: #fff; stroke-linecap: round; stroke-linejoin: round; stroke-width: 3.87px;"/>
              <path d="M161.81,21.73l1.69,8.53c-3.49,.31-6.96,.66-10.39,1.05l4.76,.67c-.18,.69-.38,1.38-.61,2.08,1.74,.09,3.35,.29,4.82,.59,4.36,1.31,6.64,3.16,6.85,5.55l.11,1.29c.06,4-.59,7.57-1.96,10.73l-11.01-.99c1.4-2.15,2.14-4.48,2.21-6.99-.08-.96-.98-1.55-2.69-1.79-.48,2.79-.83,5.67-1.05,8.63l-10.18-1.42c.14-2.28,.35-4.52,.64-6.71l-1.29,.11c-.91,.08-1.74,.18-2.51,.29-.03,2.94,.05,5.88,.26,8.8,9.48,.86,18.82,2.19,28.05,3.99l-.73,9.03c-5.68-1.05-11.38-1.95-17.09-2.7l1.15,5.76c-11.01,.96-22.03,2.79-33.08,5.49l-.91-4.62c-3.46,1.75-6.99,3.55-10.59,5.41l-4.42-7.5c9.32-5.3,18.17-9.98,26.54-14.04-.19-2.68-.29-5.28-.32-7.78-1.23,.25-2.41,.52-3.55,.82,.67,2.21,1.4,4.43,2.18,6.68l-10.01,2.1c-.71-2.01-1.36-3.98-1.96-5.9-.7,.25-1.43,.51-2.17,.77,1.13,2.46,2.39,4.95,3.76,7.48l-9.22,3.7c-3.26-5.84-5.82-12-7.69-18.49l9.22-3.7c.22,.9,.47,1.77,.73,2.61,.94-.32,1.85-.62,2.74-.89-.33-1.03-.64-2.06-.92-3.1-1.95,.36-3.87,.72-5.76,1.08l-1.54-8.54c17.33-3.64,35.97-6.32,55.92-8.07Zm-12.7,48.33c3.83-.33,6.86-.12,9.1,.65,2.36,1.1,3.73,2.98,4.11,5.64,0,1.59-1.04,3.59-3.09,5.98,.19,.03,.34,.07,.44,.11l-1.88,8.26c-8.5-1.81-16.82-3.01-24.98-3.6l1.71-6.95c-6.22,1.65-11.99,3.72-17.32,6.21l-2.99-6.9c9.9-4.72,21.54-7.86,34.9-9.41Zm-25.88-34.62c.21,.75,.47,1.48,.77,2.17,2.08-.52,4.16-.97,6.25-1.34,.03-.73,.07-1.38,.12-1.96-2.38,.35-4.76,.73-7.13,1.13Zm4.97,28.71c5.36-1.05,10.9-1.92,16.62-2.61-3.27-.44-6.48-.81-9.64-1.11-2.35,1.27-4.68,2.51-6.98,3.72Zm9.5,15.15c4.81,.45,9.49,1.03,14.04,1.74,.48-.52,.83-1.01,1.03-1.46-.15-1.77-1.86-2.51-5.11-2.23-3.47,.55-6.79,1.2-9.95,1.95Zm8.92-45.18c.18-.74,.35-1.45,.54-2.14-1.91,.22-3.79,.45-5.65,.71-.04,.68-.05,1.33-.05,1.96,1-.14,1.98-.25,2.94-.33l2.23-.19Z" style="fill: #1398d9;"/>
              <path d="M161.81,21.73l1.69,8.53c-3.49,.31-6.96,.66-10.39,1.05l4.76,.67c-.18,.69-.38,1.38-.61,2.08,1.74,.09,3.35,.29,4.82,.59,4.36,1.31,6.64,3.16,6.85,5.55l.11,1.29c.06,4-.59,7.57-1.96,10.73l-11.01-.99c1.4-2.15,2.14-4.48,2.21-6.99-.08-.96-.98-1.55-2.69-1.79-.48,2.79-.83,5.67-1.05,8.63l-10.18-1.42c.14-2.28,.35-4.52,.64-6.71l-1.29,.11c-.91,.08-1.74,.18-2.51,.29-.03,2.94,.05,5.88,.26,8.8,9.48,.86,18.82,2.19,28.05,3.99l-.73,9.03c-5.68-1.05-11.38-1.95-17.09-2.7l1.15,5.76c-11.01,.96-22.03,2.79-33.08,5.49l-.91-4.62c-3.46,1.75-6.99,3.55-10.59,5.41l-4.42-7.5c9.32-5.3,18.17-9.98,26.54-14.04-.19-2.68-.29-5.28-.32-7.78-1.23,.25-2.41,.52-3.55,.82,.67,2.21,1.4,4.43,2.18,6.68l-10.01,2.1c-.71-2.01-1.36-3.98-1.96-5.9-.7,.25-1.43,.51-2.17,.77,1.13,2.46,2.39,4.95,3.76,7.48l-9.22,3.7c-3.26-5.84-5.82-12-7.69-18.49l9.22-3.7c.22,.9,.47,1.77,.73,2.61,.94-.32,1.85-.62,2.74-.89-.33-1.03-.64-2.06-.92-3.1-1.95,.36-3.87,.72-5.76,1.08l-1.54-8.54c17.33-3.64,35.97-6.32,55.92-8.07Zm-12.7,48.33c3.83-.33,6.86-.12,9.1,.65,2.36,1.1,3.73,2.98,4.11,5.64,0,1.59-1.04,3.59-3.09,5.98,.19,.03,.34,.07,.44,.11l-1.88,8.26c-8.5-1.81-16.82-3.01-24.98-3.6l1.71-6.95c-6.22,1.65-11.99,3.72-17.32,6.21l-2.99-6.9c9.9-4.72,21.54-7.86,34.9-9.41Zm-25.88-34.62c.21,.75,.47,1.48,.77,2.17,2.08-.52,4.16-.97,6.25-1.34,.03-.73,.07-1.38,.12-1.96-2.38,.35-4.76,.73-7.13,1.13Zm4.97,28.71c5.36-1.05,10.9-1.92,16.62-2.61-3.27-.44-6.48-.81-9.64-1.11-2.35,1.27-4.68,2.51-6.98,3.72Zm9.5,15.15c4.81,.45,9.49,1.03,14.04,1.74,.48-.52,.83-1.01,1.03-1.46-.15-1.77-1.86-2.51-5.11-2.23-3.47,.55-6.79,1.2-9.95,1.95Zm8.92-45.18c.18-.74,.35-1.45,.54-2.14-1.91,.22-3.79,.45-5.65,.71-.04,.68-.05,1.33-.05,1.96,1-.14,1.98-.25,2.94-.33l2.23-.19Z" style="fill: none; stroke: #fff; stroke-linecap: round; stroke-linejoin: round; stroke-width: 2.42px;"/>
            </g>
            <g>
              <path d="M209.75,41.26c-4.45-3.48-9.99-5.02-15.59-4.33-.68,.08-1.16,.7-1.08,1.38s.7,1.16,1.38,1.08c4.95-.6,9.84,.75,13.77,3.83,3.93,3.07,6.42,7.49,7.03,12.44s-.75,9.84-3.83,13.77c-3.07,3.93-7.49,6.42-12.44,7.03s-9.84-.75-13.77-3.83c-3.93-3.07-6.42-7.49-7.03-12.44-.33-2.73-.06-5.46,.77-8.02,.64,.18,1.32,.23,2,.15,.4-.05,.8-.14,1.19-.28,1.56-.55,2.96-1.74,4.06-3.47,.97-1.53,1.33-3.64,1.06-6.28-.19-1.87-.64-3.34-.66-3.4-.18-.57-.74-.93-1.33-.86h-.02c-.06,.01-1.58,.22-3.36,.84-2.5,.87-4.27,2.08-5.24,3.61-1.1,1.72-1.59,3.5-1.42,5.14,.13,1.3,.67,2.43,1.53,3.28-1.07,3.04-1.44,6.32-1.04,9.58,.69,5.61,3.51,10.61,7.96,14.09,4.45,3.48,9.99,5.02,15.59,4.33s10.61-3.51,14.09-7.96c3.48-4.45,5.02-9.99,4.33-15.59-.69-5.61-3.51-10.61-7.96-14.09h0Zm-31,2.55c1.1-1.73,3.95-2.71,5.77-3.12,.39,1.82,.71,4.81-.39,6.55-.8,1.25-1.76,2.1-2.79,2.46-.5,.17-.99,.22-1.45,.14,.45-.93,.98-1.83,1.58-2.69,.39-.56,.26-1.33-.3-1.73-.56-.4-1.33-.26-1.73,.3-.57,.81-1.09,1.66-1.53,2.53-.47-1.18-.2-2.8,.83-4.43h0Zm30.86,16.62c-.15-.12-.34-.17-.57-.14-.4,.05-.65,.28-.75,.69-.06,.26-.31,.45-.58,.42h-.04c-.34-.04-.57-.38-.47-.71,.25-.83,.84-1.31,1.78-1.42,.65-.08,1.16,.03,1.55,.33,.39,.3,.61,.68,.67,1.15s-.07,.94-.38,1.37c-.27,.37-.77,.84-1.48,1.41-.1,.08-.03,.23,.09,.22l1.59-.19c.32-.04,.6,.2,.62,.53,.01,.29-.2,.53-.48,.57l-2.9,.35c-.39,.05-.74-.23-.79-.62-.03-.23,.06-.45,.22-.61,.1-.09,.21-.19,.34-.31,.69-.63,1.18-1.13,1.48-1.52,.3-.39,.43-.73,.4-1.02-.03-.21-.12-.38-.27-.5Zm-15.8,3.02c-.77,.82-1.78,1.31-3.02,1.46-1.52,.19-2.83-.19-3.91-1.12-1.08-.94-1.74-2.33-1.96-4.19-.21-1.74,.07-3.22,.86-4.44,.79-1.22,1.98-1.93,3.58-2.12,2.21-.27,3.77,.5,4.67,2.32,.38,.77-.09,1.69-.93,1.85l-.13,.02c-.61,.11-1.22-.22-1.45-.8-.36-.9-1.01-1.3-1.94-1.19-1.41,.17-1.96,1.51-1.66,4.01,.18,1.45,.49,2.4,.93,2.87,.45,.47,1.01,.66,1.7,.58,.86-.11,1.42-.62,1.65-1.53,.14-.54,.63-.93,1.19-.96,.91-.05,1.6,.82,1.32,1.68-.19,.6-.49,1.12-.9,1.55Zm6.23-11.72c-2.88,.35-4.88,3.29-4.48,6.57,.4,3.28,3.06,5.65,5.93,5.3,2.88-.35,4.88-3.29,4.48-6.57-.4-3.28-3.06-5.65-5.93-5.3Zm1.22,9.4c-1.69,.21-3.26-1.19-3.5-3.12s.95-3.67,2.64-3.87,3.26,1.19,3.5,3.12-.95,3.67-2.64,3.87Z" style="fill: none; stroke: #1398d9; stroke-linecap: round; stroke-linejoin: round; stroke-width: 6.78px;"/>
              <path d="M209.75,41.26c-4.45-3.48-9.99-5.02-15.59-4.33-.68,.08-1.16,.7-1.08,1.38s.7,1.16,1.38,1.08c4.95-.6,9.84,.75,13.77,3.83,3.93,3.07,6.42,7.49,7.03,12.44s-.75,9.84-3.83,13.77c-3.07,3.93-7.49,6.42-12.44,7.03s-9.84-.75-13.77-3.83c-3.93-3.07-6.42-7.49-7.03-12.44-.33-2.73-.06-5.46,.77-8.02,.64,.18,1.32,.23,2,.15,.4-.05,.8-.14,1.19-.28,1.56-.55,2.96-1.74,4.06-3.47,.97-1.53,1.33-3.64,1.06-6.28-.19-1.87-.64-3.34-.66-3.4-.18-.57-.74-.93-1.33-.86h-.02c-.06,.01-1.58,.22-3.36,.84-2.5,.87-4.27,2.08-5.24,3.61-1.1,1.72-1.59,3.5-1.42,5.14,.13,1.3,.67,2.43,1.53,3.28-1.07,3.04-1.44,6.32-1.04,9.58,.69,5.61,3.51,10.61,7.96,14.09,4.45,3.48,9.99,5.02,15.59,4.33s10.61-3.51,14.09-7.96c3.48-4.45,5.02-9.99,4.33-15.59-.69-5.61-3.51-10.61-7.96-14.09h0Zm-31,2.55c1.1-1.73,3.95-2.71,5.77-3.12,.39,1.82,.71,4.81-.39,6.55-.8,1.25-1.76,2.1-2.79,2.46-.5,.17-.99,.22-1.45,.14,.45-.93,.98-1.83,1.58-2.69,.39-.56,.26-1.33-.3-1.73-.56-.4-1.33-.26-1.73,.3-.57,.81-1.09,1.66-1.53,2.53-.47-1.18-.2-2.8,.83-4.43h0Zm30.86,16.62c-.15-.12-.34-.17-.57-.14-.4,.05-.65,.28-.75,.69-.06,.26-.31,.45-.58,.42h-.04c-.34-.04-.57-.38-.47-.71,.25-.83,.84-1.31,1.78-1.42,.65-.08,1.16,.03,1.55,.33,.39,.3,.61,.68,.67,1.15s-.07,.94-.38,1.37c-.27,.37-.77,.84-1.48,1.41-.1,.08-.03,.23,.09,.22l1.59-.19c.32-.04,.6,.2,.62,.53,.01,.29-.2,.53-.48,.57l-2.9,.35c-.39,.05-.74-.23-.79-.62-.03-.23,.06-.45,.22-.61,.1-.09,.21-.19,.34-.31,.69-.63,1.18-1.13,1.48-1.52,.3-.39,.43-.73,.4-1.02-.03-.21-.12-.38-.27-.5Zm-15.8,3.02c-.77,.82-1.78,1.31-3.02,1.46-1.52,.19-2.83-.19-3.91-1.12-1.08-.94-1.74-2.33-1.96-4.19-.21-1.74,.07-3.22,.86-4.44,.79-1.22,1.98-1.93,3.58-2.12,2.21-.27,3.77,.5,4.67,2.32,.38,.77-.09,1.69-.93,1.85l-.13,.02c-.61,.11-1.22-.22-1.45-.8-.36-.9-1.01-1.3-1.94-1.19-1.41,.17-1.96,1.51-1.66,4.01,.18,1.45,.49,2.4,.93,2.87,.45,.47,1.01,.66,1.7,.58,.86-.11,1.42-.62,1.65-1.53,.14-.54,.63-.93,1.19-.96,.91-.05,1.6,.82,1.32,1.68-.19,.6-.49,1.12-.9,1.55Zm6.23-11.72c-2.88,.35-4.88,3.29-4.48,6.57,.4,3.28,3.06,5.65,5.93,5.3,2.88-.35,4.88-3.29,4.48-6.57-.4-3.28-3.06-5.65-5.93-5.3Zm1.22,9.4c-1.69,.21-3.26-1.19-3.5-3.12s.95-3.67,2.64-3.87,3.26,1.19,3.5,3.12-.95,3.67-2.64,3.87Z" style="fill: #fff;"/>
              <path d="M209.75,41.26c-4.45-3.48-9.99-5.02-15.59-4.33-.68,.08-1.16,.7-1.08,1.38s.7,1.16,1.38,1.08c4.95-.6,9.84,.75,13.77,3.83,3.93,3.07,6.42,7.49,7.03,12.44s-.75,9.84-3.83,13.77c-3.07,3.93-7.49,6.42-12.44,7.03s-9.84-.75-13.77-3.83c-3.93-3.07-6.42-7.49-7.03-12.44-.33-2.73-.06-5.46,.77-8.02,.64,.18,1.32,.23,2,.15,.4-.05,.8-.14,1.19-.28,1.56-.55,2.96-1.74,4.06-3.47,.97-1.53,1.33-3.64,1.06-6.28-.19-1.87-.64-3.34-.66-3.4-.18-.57-.74-.93-1.33-.86h-.02c-.06,.01-1.58,.22-3.36,.84-2.5,.87-4.27,2.08-5.24,3.61-1.1,1.72-1.59,3.5-1.42,5.14,.13,1.3,.67,2.43,1.53,3.28-1.07,3.04-1.44,6.32-1.04,9.58,.69,5.61,3.51,10.61,7.96,14.09,4.45,3.48,9.99,5.02,15.59,4.33s10.61-3.51,14.09-7.96c3.48-4.45,5.02-9.99,4.33-15.59-.69-5.61-3.51-10.61-7.96-14.09h0Zm-31,2.55c1.1-1.73,3.95-2.71,5.77-3.12,.39,1.82,.71,4.81-.39,6.55-.8,1.25-1.76,2.1-2.79,2.46-.5,.17-.99,.22-1.45,.14,.45-.93,.98-1.83,1.58-2.69,.39-.56,.26-1.33-.3-1.73-.56-.4-1.33-.26-1.73,.3-.57,.81-1.09,1.66-1.53,2.53-.47-1.18-.2-2.8,.83-4.43h0Zm30.86,16.62c-.15-.12-.34-.17-.57-.14-.4,.05-.65,.28-.75,.69-.06,.26-.31,.45-.58,.42h-.04c-.34-.04-.57-.38-.47-.71,.25-.83,.84-1.31,1.78-1.42,.65-.08,1.16,.03,1.55,.33,.39,.3,.61,.68,.67,1.15s-.07,.94-.38,1.37c-.27,.37-.77,.84-1.48,1.41-.1,.08-.03,.23,.09,.22l1.59-.19c.32-.04,.6,.2,.62,.53,.01,.29-.2,.53-.48,.57l-2.9,.35c-.39,.05-.74-.23-.79-.62-.03-.23,.06-.45,.22-.61,.1-.09,.21-.19,.34-.31,.69-.63,1.18-1.13,1.48-1.52,.3-.39,.43-.73,.4-1.02-.03-.21-.12-.38-.27-.5Zm-15.8,3.02c-.77,.82-1.78,1.31-3.02,1.46-1.52,.19-2.83-.19-3.91-1.12-1.08-.94-1.74-2.33-1.96-4.19-.21-1.74,.07-3.22,.86-4.44,.79-1.22,1.98-1.93,3.58-2.12,2.21-.27,3.77,.5,4.67,2.32,.38,.77-.09,1.69-.93,1.85l-.13,.02c-.61,.11-1.22-.22-1.45-.8-.36-.9-1.01-1.3-1.94-1.19-1.41,.17-1.96,1.51-1.66,4.01,.18,1.45,.49,2.4,.93,2.87,.45,.47,1.01,.66,1.7,.58,.86-.11,1.42-.62,1.65-1.53,.14-.54,.63-.93,1.19-.96,.91-.05,1.6,.82,1.32,1.68-.19,.6-.49,1.12-.9,1.55Zm6.23-11.72c-2.88,.35-4.88,3.29-4.48,6.57,.4,3.28,3.06,5.65,5.93,5.3,2.88-.35,4.88-3.29,4.48-6.57-.4-3.28-3.06-5.65-5.93-5.3Zm1.22,9.4c-1.69,.21-3.26-1.19-3.5-3.12s.95-3.67,2.64-3.87,3.26,1.19,3.5,3.12-.95,3.67-2.64,3.87Z" style="fill: none; stroke: #fff; stroke-linecap: round; stroke-linejoin: round; stroke-width: .48px;"/>
            </g>
            <g>
              <g>
                <path d="M222.03,19.96c6.2-.16,12.34-.29,18.45-.4,3.02-3.13,6.05-6.07,9.09-8.81l9.8,5.65c-1.06,.97-2.04,1.95-2.96,2.96,8.89-.1,17.59-.14,26.11-.13l-.5,11.85c-12.64,.09-24.88,.19-36.7,.29-1.41,1.56-2.78,3.17-4.09,4.82,6.75-1.58,13.41-2.65,19.97-3.22,6.33-.31,10.89,.48,13.68,2.36,3.73,1.59,5.88,6.54,6.43,14.83l.1,1.94c.37,7.58-.54,15.46-2.73,23.65l-12.49-1.69c2.22-7.61,3.19-14.41,2.89-20.41-.24-4.8-1.15-7.83-2.75-9.1-1.81-.63-3.89-.89-6.24-.78-2.3,.11-6.05,.61-11.25,1.49-2.47,.55-4.97,1.23-7.47,2.03,6.36,.22,12.48,.57,18.37,1.04l-.37,10.19c-6.71-.44-13.12-.82-19.24-1.15,.27,1.62,.54,3.27,.82,4.94,6.1-1.02,11.9-2.07,17.37-3.16l3.34,9.36c-5.75,1.48-12.13,2.71-19.15,3.68,.31,1.43,.57,2.79,.78,4.07l-12.95,2.15c-1.72-9.53-3.32-19.05-4.79-28.54l-7.22-4.62c3.75-4.95,7.49-9.55,11.22-13.82-2.98,0-5.89,.03-8.73,.07l1.24-11.53Z" style="fill: none; stroke: #1398d9; stroke-linecap: round; stroke-linejoin: round; stroke-width: 5.33px;"/>
                <path d="M312.94,50.34c-6.88,.05-12.5-.95-16.88-2.99-5.5-3.38-8.42-8.39-8.74-15.01-.39-7.92,2.04-15.65,7.3-23.22l3.98,1.75c6.12-1.6,12.64-2.57,19.55-2.91,4.65-.23,8.94-.2,12.84,.09,3.83,.63,7.61,2.13,11.33,4.49,3.99,3.03,6.13,7.27,6.4,12.74l.15,3.1c.26,5.28-1.29,9.54-4.64,12.78-4.71,4.9-11.14,7.76-19.27,8.59,.07,.53,.15,1,.21,1.43,6.56-.61,13.18-1.3,19.88-2.06l1.33,9.38c-6.6,.8-13.2,1.54-19.8,2.2,.14,.96,.26,1.84,.35,2.65,7.8-.72,15.65-1.51,23.54-2.38l1.33,9.38c-19.94,2.37-40.21,4.26-60.82,5.65l-1.4-9.45c8.43-.61,16.96-1.29,25.58-2.05-.14-.95-.31-1.83-.49-2.64-6.56,.56-13.15,1.08-19.76,1.55l-1.26-9.46c6.47-.46,12.98-1,19.54-1.61-.08-.72-.16-1.39-.24-2.01Zm-12.81-17.04c.7,2.47,1.96,4.16,3.78,5.08,2.21,1,4.74,1.6,7.59,1.79-.36-2.34-.69-4.63-.99-6.88-3.51-.07-6.98-.07-10.39,0Zm8.49-13.62c-2.37,.65-4.81,1.49-7.31,2.52-.26,.59-.47,1.18-.63,1.76,2.88-.09,5.72-.11,8.51-.06-.21-1.43-.4-2.84-.57-4.23Zm14.9,19.9c4.63-.66,8-2.08,10.11-4.25,2.02-1.97,2.96-4.45,2.81-7.42-.18-3.6-1.63-6.17-4.35-7.72-2.28-1.33-6.18-2-11.71-2.02,.34,2.05,.63,4.1,.88,6.16,3.37,.17,6.66,.39,9.84,.67l-.41,9.25c-2.75-.2-5.45-.36-8.1-.47,.34,1.96,.65,3.89,.93,5.8Z" style="fill: none; stroke: #1398d9; stroke-linecap: round; stroke-linejoin: round; stroke-width: 5.33px;"/>
              </g>
              <g>
                <path d="M222.03,19.96c6.2-.16,12.34-.29,18.45-.4,3.02-3.13,6.05-6.07,9.09-8.81l9.8,5.65c-1.06,.97-2.04,1.95-2.96,2.96,8.89-.1,17.59-.14,26.11-.13l-.5,11.85c-12.64,.09-24.88,.19-36.7,.29-1.41,1.56-2.78,3.17-4.09,4.82,6.75-1.58,13.41-2.65,19.97-3.22,6.33-.31,10.89,.48,13.68,2.36,3.73,1.59,5.88,6.54,6.43,14.83l.1,1.94c.37,7.58-.54,15.46-2.73,23.65l-12.49-1.69c2.22-7.61,3.19-14.41,2.89-20.41-.24-4.8-1.15-7.83-2.75-9.1-1.81-.63-3.89-.89-6.24-.78-2.3,.11-6.05,.61-11.25,1.49-2.47,.55-4.97,1.23-7.47,2.03,6.36,.22,12.48,.57,18.37,1.04l-.37,10.19c-6.71-.44-13.12-.82-19.24-1.15,.27,1.62,.54,3.27,.82,4.94,6.1-1.02,11.9-2.07,17.37-3.16l3.34,9.36c-5.75,1.48-12.13,2.71-19.15,3.68,.31,1.43,.57,2.79,.78,4.07l-12.95,2.15c-1.72-9.53-3.32-19.05-4.79-28.54l-7.22-4.62c3.75-4.95,7.49-9.55,11.22-13.82-2.98,0-5.89,.03-8.73,.07l1.24-11.53Z" style="fill: #fff;"/>
                <path d="M312.94,50.34c-6.88,.05-12.5-.95-16.88-2.99-5.5-3.38-8.42-8.39-8.74-15.01-.39-7.92,2.04-15.65,7.3-23.22l3.98,1.75c6.12-1.6,12.64-2.57,19.55-2.91,4.65-.23,8.94-.2,12.84,.09,3.83,.63,7.61,2.13,11.33,4.49,3.99,3.03,6.13,7.27,6.4,12.74l.15,3.1c.26,5.28-1.29,9.54-4.64,12.78-4.71,4.9-11.14,7.76-19.27,8.59,.07,.53,.15,1,.21,1.43,6.56-.61,13.18-1.3,19.88-2.06l1.33,9.38c-6.6,.8-13.2,1.54-19.8,2.2,.14,.96,.26,1.84,.35,2.65,7.8-.72,15.65-1.51,23.54-2.38l1.33,9.38c-19.94,2.37-40.21,4.26-60.82,5.65l-1.4-9.45c8.43-.61,16.96-1.29,25.58-2.05-.14-.95-.31-1.83-.49-2.64-6.56,.56-13.15,1.08-19.76,1.55l-1.26-9.46c6.47-.46,12.98-1,19.54-1.61-.08-.72-.16-1.39-.24-2.01Zm-12.81-17.04c.7,2.47,1.96,4.16,3.78,5.08,2.21,1,4.74,1.6,7.59,1.79-.36-2.34-.69-4.63-.99-6.88-3.51-.07-6.98-.07-10.39,0Zm8.49-13.62c-2.37,.65-4.81,1.49-7.31,2.52-.26,.59-.47,1.18-.63,1.76,2.88-.09,5.72-.11,8.51-.06-.21-1.43-.4-2.84-.57-4.23Zm14.9,19.9c4.63-.66,8-2.08,10.11-4.25,2.02-1.97,2.96-4.45,2.81-7.42-.18-3.6-1.63-6.17-4.35-7.72-2.28-1.33-6.18-2-11.71-2.02,.34,2.05,.63,4.1,.88,6.16,3.37,.17,6.66,.39,9.84,.67l-.41,9.25c-2.75-.2-5.45-.36-8.1-.47,.34,1.96,.65,3.89,.93,5.8Z" style="fill: #fff;"/>
              </g>
              <g>
                <path d="M222.03,19.96c6.2-.16,12.34-.29,18.45-.4,3.02-3.13,6.05-6.07,9.09-8.81l9.8,5.65c-1.06,.97-2.04,1.95-2.96,2.96,8.89-.1,17.59-.14,26.11-.13l-.5,11.85c-12.64,.09-24.88,.19-36.7,.29-1.41,1.56-2.78,3.17-4.09,4.82,6.75-1.58,13.41-2.65,19.97-3.22,6.33-.31,10.89,.48,13.68,2.36,3.73,1.59,5.88,6.54,6.43,14.83l.1,1.94c.37,7.58-.54,15.46-2.73,23.65l-12.49-1.69c2.22-7.61,3.19-14.41,2.89-20.41-.24-4.8-1.15-7.83-2.75-9.1-1.81-.63-3.89-.89-6.24-.78-2.3,.11-6.05,.61-11.25,1.49-2.47,.55-4.97,1.23-7.47,2.03,6.36,.22,12.48,.57,18.37,1.04l-.37,10.19c-6.71-.44-13.12-.82-19.24-1.15,.27,1.62,.54,3.27,.82,4.94,6.1-1.02,11.9-2.07,17.37-3.16l3.34,9.36c-5.75,1.48-12.13,2.71-19.15,3.68,.31,1.43,.57,2.79,.78,4.07l-12.95,2.15c-1.72-9.53-3.32-19.05-4.79-28.54l-7.22-4.62c3.75-4.95,7.49-9.55,11.22-13.82-2.98,0-5.89,.03-8.73,.07l1.24-11.53Z" style="fill: none; stroke: #1398d9; stroke-linecap: round; stroke-linejoin: round; stroke-width: 2.91px;"/>
                <path d="M312.94,50.34c-6.88,.05-12.5-.95-16.88-2.99-5.5-3.38-8.42-8.39-8.74-15.01-.39-7.92,2.04-15.65,7.3-23.22l3.98,1.75c6.12-1.6,12.64-2.57,19.55-2.91,4.65-.23,8.94-.2,12.84,.09,3.83,.63,7.61,2.13,11.33,4.49,3.99,3.03,6.13,7.27,6.4,12.74l.15,3.1c.26,5.28-1.29,9.54-4.64,12.78-4.71,4.9-11.14,7.76-19.27,8.59,.07,.53,.15,1,.21,1.43,6.56-.61,13.18-1.3,19.88-2.06l1.33,9.38c-6.6,.8-13.2,1.54-19.8,2.2,.14,.96,.26,1.84,.35,2.65,7.8-.72,15.65-1.51,23.54-2.38l1.33,9.38c-19.94,2.37-40.21,4.26-60.82,5.65l-1.4-9.45c8.43-.61,16.96-1.29,25.58-2.05-.14-.95-.31-1.83-.49-2.64-6.56,.56-13.15,1.08-19.76,1.55l-1.26-9.46c6.47-.46,12.98-1,19.54-1.61-.08-.72-.16-1.39-.24-2.01Zm-12.81-17.04c.7,2.47,1.96,4.16,3.78,5.08,2.21,1,4.74,1.6,7.59,1.79-.36-2.34-.69-4.63-.99-6.88-3.51-.07-6.98-.07-10.39,0Zm8.49-13.62c-2.37,.65-4.81,1.49-7.31,2.52-.26,.59-.47,1.18-.63,1.76,2.88-.09,5.72-.11,8.51-.06-.21-1.43-.4-2.84-.57-4.23Zm14.9,19.9c4.63-.66,8-2.08,10.11-4.25,2.02-1.97,2.96-4.45,2.81-7.42-.18-3.6-1.63-6.17-4.35-7.72-2.28-1.33-6.18-2-11.71-2.02,.34,2.05,.63,4.1,.88,6.16,3.37,.17,6.66,.39,9.84,.67l-.41,9.25c-2.75-.2-5.45-.36-8.1-.47,.34,1.96,.65,3.89,.93,5.8Z" style="fill: none; stroke: #1398d9; stroke-linecap: round; stroke-linejoin: round; stroke-width: 2.91px;"/>
              </g>
            </g>
          </g>
        </g>
        <g>
          <ellipse cx="66.68" cy="118.07" rx="6.21" ry="13.67" transform="translate(-68.9 115.86) rotate(-59.61)" style="fill: #fff;"/>
          <g>
            <path d="M54.23,112.64c9.75-1.47,20.6,2.82,25.09,10.14-1.35-12.71-15.82-19.43-33.54-10.79,4.7,4.42,6.76,9.88,12.7,13.03,5.93,3.13,12.97,3.41,19.14,.74-4.36-7.52-13.8-12.96-23.39-13.11h0Z" style="fill: none; stroke: #fff; stroke-linecap: round; stroke-linejoin: round; stroke-width: 6.5px;"/>
            <path d="M54.23,112.64c9.75-1.47,20.6,2.82,25.09,10.14-1.35-12.71-15.82-19.43-33.54-10.79,4.7,4.42,6.76,9.88,12.7,13.03,5.93,3.13,12.97,3.41,19.14,.74-4.36-7.52-13.8-12.96-23.39-13.11h0Z" style="fill: #bad50c;"/>
          </g>
        </g>
      </g>
      <g style="filter: url(#drop-shadow-2);">
        <polygon points="477.58 152.66 161.14 145.24 160.31 111.51 498.33 102.96 477.58 152.66" style="fill: #f09e1e;"/>
        <g>
          <path d="M199.68,79.25l7.58,2.45c-.56,.56-.98,1.29-1.26,2.21-.05,.6,.88,1.05,2.78,1.37,1.31,.23,2.96,.45,4.96,.64-.11-1.93-.2-3.72-.29-5.35l8.74-.09c.1,1.98,.22,4.04,.35,6.19,2.22,.09,4.07,.02,5.54-.21,.91-.14,1.38-.47,1.42-.98-.03-.77-.38-1.48-1.05-2.14l8.06-1.24c.66,1.98,.9,4.07,.73,6.29-.14,1.79-.94,3.01-2.4,3.67-1.29,.63-3.16,1.04-5.62,1.23-1.29,.07-2.56,.12-3.8,.15,.18,.49,.38,.91,.61,1.27,3.02,.19,5.98,.4,8.88,.63l.16,5.41c-4-.31-7.81-.56-11.44-.76,0,.43,.02,.88,.02,1.35,3.24,.17,6.5,.38,9.78,.63l.09,4.57c-3.28-.25-6.49-.46-9.65-.62,0,.47,.01,.92,.02,1.35,3.28,.17,6.63,.39,10.03,.65l.18,5.15c-3.41-.26-6.77-.48-10.09-.65,0,.43,.02,.84,.03,1.22,3.75,.21,7.56,.46,11.44,.76l.11,5.21c-9.19-.71-18.43-1.11-27.71-1.19-.02,.3-.02,.58,0,.83l-8.23,.13c-.13-6.56-.25-12.54-.34-17.94-.49,.22-.95,.42-1.4,.6l-2.17-5.95,.03,7c-1.15-.09-2.28-.16-3.39-.2,.01,2.06,.02,4.13,.03,6.23,.92-.23,1.81-.46,2.69-.69l1.68,8.16c-1.41,.49-2.83,.94-4.28,1.34,.02,3.6,.04,7.24,.05,10.92l-8.48,.11c-.05-3.26-.08-6.43-.1-9.51-1.26,.2-2.55,.36-3.89,.47l-1.41-8.33c1.77-.25,3.53-.52,5.26-.81,0-2.65-.02-5.2-.05-7.64-1.47,.19-2.92,.37-4.35,.56l-.09-8.74c1.48-.27,2.95-.46,4.41-.56-.03-2.96-.06-5.85-.1-8.68l8.54-.04c0,2.78,.01,5.63,.04,8.54,1.11,.04,2.22,.11,3.32,.19l.04,1.16c3.37-1.49,6.55-2.79,9.55-3.88-1.18-.22-2.19-.47-3.02-.75-3.06-.88-4.5-2.4-4.33-4.57,.17-2.13,.76-4.5,1.77-7.12Zm2.26,40.31c0,.43,.04,.84,.1,1.23,2.21-.3,4.73-.55,7.57-.76,4.66-.45,9.92-.45,15.8,0,3.23,.25,5.98,1.21,8.25,2.89,1.97,1.69,2.88,3.97,2.75,6.83l-.05,.7c-.5,3.73-1.56,7.16-3.17,10.29l-7.28-2.17c1.78-3.12,2.76-5.74,2.92-7.86,.04-1.58-.3-2.79-1-3.61-.82-.49-1.71-.84-2.68-1.04,.59,.73,1.1,1.5,1.56,2.3l-2.14,1.95c.29,.15,.51,.3,.67,.44,.96,.85,1.39,2.01,1.27,3.5l-.04,.58c-.07,.94-.31,1.79-.71,2.58-.84,.92-2.14,1.4-3.9,1.43-1.26,.24-3.06,.28-5.4,.09l-1.02-.08c-3.79-.29-6.37-.73-7.73-1.31-1.74-.73-2.51-2.36-2.32-4.87,.05-.68,.19-1.29,.4-1.83l-2.41-1.99c.71-.84,1.41-1.62,2.11-2.34-1.04,.18-1.99,.32-2.86,.42,.43,3.24,1.05,6.57,1.86,9.97l-7.77,1.71c-1.36-5.63-2.22-11.41-2.57-17.34l7.84-1.7Zm5.64-18.83c2.65,.04,5.34,.09,8.08,.18,0-.47-.02-.9-.03-1.29-2.77-.13-5.48-.21-8.14-.25,0,.47,.03,.92,.09,1.36Zm8.25,6.23c0-.47-.01-.94-.02-1.42-2.74-.04-5.45-.08-8.15-.12,0,.47,.01,.92,.02,1.35,2.65,.04,5.36,.1,8.14,.18Zm.15,6.37c0-.43-.02-.84-.03-1.22-2.78-.09-5.51-.15-8.21-.19,0,.43,.02,.86,.03,1.29,2.7,0,5.43,.04,8.21,.12Zm-6.02-19.28c2.39,.06,4.74,.13,7.05,.23-.14-.44-.28-.88-.41-1.32-2.85-.22-5.29-.45-7.33-.7l.7,1.79Zm6.97,38.43c-1.66-.09-3.45,.07-5.37,.48,.04,.6,.14,.95,.3,1.05,1.09,.34,2.27,.56,3.54,.66l3.26,.25c.73-.03,1.19-.14,1.38-.34,.14-.2,.24-.37,.29-.49,.05-.64-.28-1.05-1-1.23-.67-.18-1.47-.31-2.41-.38Zm-4.45-3.88c1.73-.21,3.4-.25,5.02-.12,.68,.05,1.32,.12,1.91,.21-.9-1.05-1.83-2.05-2.79-2.98-.51,0-.99,.01-1.41,.02-.93,.96-1.84,1.91-2.73,2.87Z" style="fill: none; stroke: #f1980b; stroke-linecap: round; stroke-linejoin: round; stroke-width: 6.74px;"/>
          <path d="M199.68,79.25l7.58,2.45c-.56,.56-.98,1.29-1.26,2.21-.05,.6,.88,1.05,2.78,1.37,1.31,.23,2.96,.45,4.96,.64-.11-1.93-.2-3.72-.29-5.35l8.74-.09c.1,1.98,.22,4.04,.35,6.19,2.22,.09,4.07,.02,5.54-.21,.91-.14,1.38-.47,1.42-.98-.03-.77-.38-1.48-1.05-2.14l8.06-1.24c.66,1.98,.9,4.07,.73,6.29-.14,1.79-.94,3.01-2.4,3.67-1.29,.63-3.16,1.04-5.62,1.23-1.29,.07-2.56,.12-3.8,.15,.18,.49,.38,.91,.61,1.27,3.02,.19,5.98,.4,8.88,.63l.16,5.41c-4-.31-7.81-.56-11.44-.76,0,.43,.02,.88,.02,1.35,3.24,.17,6.5,.38,9.78,.63l.09,4.57c-3.28-.25-6.49-.46-9.65-.62,0,.47,.01,.92,.02,1.35,3.28,.17,6.63,.39,10.03,.65l.18,5.15c-3.41-.26-6.77-.48-10.09-.65,0,.43,.02,.84,.03,1.22,3.75,.21,7.56,.46,11.44,.76l.11,5.21c-9.19-.71-18.43-1.11-27.71-1.19-.02,.3-.02,.58,0,.83l-8.23,.13c-.13-6.56-.25-12.54-.34-17.94-.49,.22-.95,.42-1.4,.6l-2.17-5.95,.03,7c-1.15-.09-2.28-.16-3.39-.2,.01,2.06,.02,4.13,.03,6.23,.92-.23,1.81-.46,2.69-.69l1.68,8.16c-1.41,.49-2.83,.94-4.28,1.34,.02,3.6,.04,7.24,.05,10.92l-8.48,.11c-.05-3.26-.08-6.43-.1-9.51-1.26,.2-2.55,.36-3.89,.47l-1.41-8.33c1.77-.25,3.53-.52,5.26-.81,0-2.65-.02-5.2-.05-7.64-1.47,.19-2.92,.37-4.35,.56l-.09-8.74c1.48-.27,2.95-.46,4.41-.56-.03-2.96-.06-5.85-.1-8.68l8.54-.04c0,2.78,.01,5.63,.04,8.54,1.11,.04,2.22,.11,3.32,.19l.04,1.16c3.37-1.49,6.55-2.79,9.55-3.88-1.18-.22-2.19-.47-3.02-.75-3.06-.88-4.5-2.4-4.33-4.57,.17-2.13,.76-4.5,1.77-7.12Zm2.26,40.31c0,.43,.04,.84,.1,1.23,2.21-.3,4.73-.55,7.57-.76,4.66-.45,9.92-.45,15.8,0,3.23,.25,5.98,1.21,8.25,2.89,1.97,1.69,2.88,3.97,2.75,6.83l-.05,.7c-.5,3.73-1.56,7.16-3.17,10.29l-7.28-2.17c1.78-3.12,2.76-5.74,2.92-7.86,.04-1.58-.3-2.79-1-3.61-.82-.49-1.71-.84-2.68-1.04,.59,.73,1.1,1.5,1.56,2.3l-2.14,1.95c.29,.15,.51,.3,.67,.44,.96,.85,1.39,2.01,1.27,3.5l-.04,.58c-.07,.94-.31,1.79-.71,2.58-.84,.92-2.14,1.4-3.9,1.43-1.26,.24-3.06,.28-5.4,.09l-1.02-.08c-3.79-.29-6.37-.73-7.73-1.31-1.74-.73-2.51-2.36-2.32-4.87,.05-.68,.19-1.29,.4-1.83l-2.41-1.99c.71-.84,1.41-1.62,2.11-2.34-1.04,.18-1.99,.32-2.86,.42,.43,3.24,1.05,6.57,1.86,9.97l-7.77,1.71c-1.36-5.63-2.22-11.41-2.57-17.34l7.84-1.7Zm5.64-18.83c2.65,.04,5.34,.09,8.08,.18,0-.47-.02-.9-.03-1.29-2.77-.13-5.48-.21-8.14-.25,0,.47,.03,.92,.09,1.36Zm8.25,6.23c0-.47-.01-.94-.02-1.42-2.74-.04-5.45-.08-8.15-.12,0,.47,.01,.92,.02,1.35,2.65,.04,5.36,.1,8.14,.18Zm.15,6.37c0-.43-.02-.84-.03-1.22-2.78-.09-5.51-.15-8.21-.19,0,.43,.02,.86,.03,1.29,2.7,0,5.43,.04,8.21,.12Zm-6.02-19.28c2.39,.06,4.74,.13,7.05,.23-.14-.44-.28-.88-.41-1.32-2.85-.22-5.29-.45-7.33-.7l.7,1.79Zm6.97,38.43c-1.66-.09-3.45,.07-5.37,.48,.04,.6,.14,.95,.3,1.05,1.09,.34,2.27,.56,3.54,.66l3.26,.25c.73-.03,1.19-.14,1.38-.34,.14-.2,.24-.37,.29-.49,.05-.64-.28-1.05-1-1.23-.67-.18-1.47-.31-2.41-.38Zm-4.45-3.88c1.73-.21,3.4-.25,5.02-.12,.68,.05,1.32,.12,1.91,.21-.9-1.05-1.83-2.05-2.79-2.98-.51,0-.99,.01-1.41,.02-.93,.96-1.84,1.91-2.73,2.87Z" style="fill: #fff;"/>
          <path d="M199.68,79.25l7.58,2.45c-.56,.56-.98,1.29-1.26,2.21-.05,.6,.88,1.05,2.78,1.37,1.31,.23,2.96,.45,4.96,.64-.11-1.93-.2-3.72-.29-5.35l8.74-.09c.1,1.98,.22,4.04,.35,6.19,2.22,.09,4.07,.02,5.54-.21,.91-.14,1.38-.47,1.42-.98-.03-.77-.38-1.48-1.05-2.14l8.06-1.24c.66,1.98,.9,4.07,.73,6.29-.14,1.79-.94,3.01-2.4,3.67-1.29,.63-3.16,1.04-5.62,1.23-1.29,.07-2.56,.12-3.8,.15,.18,.49,.38,.91,.61,1.27,3.02,.19,5.98,.4,8.88,.63l.16,5.41c-4-.31-7.81-.56-11.44-.76,0,.43,.02,.88,.02,1.35,3.24,.17,6.5,.38,9.78,.63l.09,4.57c-3.28-.25-6.49-.46-9.65-.62,0,.47,.01,.92,.02,1.35,3.28,.17,6.63,.39,10.03,.65l.18,5.15c-3.41-.26-6.77-.48-10.09-.65,0,.43,.02,.84,.03,1.22,3.75,.21,7.56,.46,11.44,.76l.11,5.21c-9.19-.71-18.43-1.11-27.71-1.19-.02,.3-.02,.58,0,.83l-8.23,.13c-.13-6.56-.25-12.54-.34-17.94-.49,.22-.95,.42-1.4,.6l-2.17-5.95,.03,7c-1.15-.09-2.28-.16-3.39-.2,.01,2.06,.02,4.13,.03,6.23,.92-.23,1.81-.46,2.69-.69l1.68,8.16c-1.41,.49-2.83,.94-4.28,1.34,.02,3.6,.04,7.24,.05,10.92l-8.48,.11c-.05-3.26-.08-6.43-.1-9.51-1.26,.2-2.55,.36-3.89,.47l-1.41-8.33c1.77-.25,3.53-.52,5.26-.81,0-2.65-.02-5.2-.05-7.64-1.47,.19-2.92,.37-4.35,.56l-.09-8.74c1.48-.27,2.95-.46,4.41-.56-.03-2.96-.06-5.85-.1-8.68l8.54-.04c0,2.78,.01,5.63,.04,8.54,1.11,.04,2.22,.11,3.32,.19l.04,1.16c3.37-1.49,6.55-2.79,9.55-3.88-1.18-.22-2.19-.47-3.02-.75-3.06-.88-4.5-2.4-4.33-4.57,.17-2.13,.76-4.5,1.77-7.12Zm2.26,40.31c0,.43,.04,.84,.1,1.23,2.21-.3,4.73-.55,7.57-.76,4.66-.45,9.92-.45,15.8,0,3.23,.25,5.98,1.21,8.25,2.89,1.97,1.69,2.88,3.97,2.75,6.83l-.05,.7c-.5,3.73-1.56,7.16-3.17,10.29l-7.28-2.17c1.78-3.12,2.76-5.74,2.92-7.86,.04-1.58-.3-2.79-1-3.61-.82-.49-1.71-.84-2.68-1.04,.59,.73,1.1,1.5,1.56,2.3l-2.14,1.95c.29,.15,.51,.3,.67,.44,.96,.85,1.39,2.01,1.27,3.5l-.04,.58c-.07,.94-.31,1.79-.71,2.58-.84,.92-2.14,1.4-3.9,1.43-1.26,.24-3.06,.28-5.4,.09l-1.02-.08c-3.79-.29-6.37-.73-7.73-1.31-1.74-.73-2.51-2.36-2.32-4.87,.05-.68,.19-1.29,.4-1.83l-2.41-1.99c.71-.84,1.41-1.62,2.11-2.34-1.04,.18-1.99,.32-2.86,.42,.43,3.24,1.05,6.57,1.86,9.97l-7.77,1.71c-1.36-5.63-2.22-11.41-2.57-17.34l7.84-1.7Zm5.64-18.83c2.65,.04,5.34,.09,8.08,.18,0-.47-.02-.9-.03-1.29-2.77-.13-5.48-.21-8.14-.25,0,.47,.03,.92,.09,1.36Zm8.25,6.23c0-.47-.01-.94-.02-1.42-2.74-.04-5.45-.08-8.15-.12,0,.47,.01,.92,.02,1.35,2.65,.04,5.36,.1,8.14,.18Zm.15,6.37c0-.43-.02-.84-.03-1.22-2.78-.09-5.51-.15-8.21-.19,0,.43,.02,.86,.03,1.29,2.7,0,5.43,.04,8.21,.12Zm-6.02-19.28c2.39,.06,4.74,.13,7.05,.23-.14-.44-.28-.88-.41-1.32-2.85-.22-5.29-.45-7.33-.7l.7,1.79Zm6.97,38.43c-1.66-.09-3.45,.07-5.37,.48,.04,.6,.14,.95,.3,1.05,1.09,.34,2.27,.56,3.54,.66l3.26,.25c.73-.03,1.19-.14,1.38-.34,.14-.2,.24-.37,.29-.49,.05-.64-.28-1.05-1-1.23-.67-.18-1.47-.31-2.41-.38Zm-4.45-3.88c1.73-.21,3.4-.25,5.02-.12,.68,.05,1.32,.12,1.91,.21-.9-1.05-1.83-2.05-2.79-2.98-.51,0-.99,.01-1.41,.02-.93,.96-1.84,1.91-2.73,2.87Z" style="fill: none; stroke: #f1980b; stroke-linecap: round; stroke-linejoin: round; stroke-width: 1.92px;"/>
        </g>
        <g>
          <path d="M356.25,102.11c.02,.43,.05,.83,.08,1.22,3.28-.67,6.6-.93,9.97-.79,3.24,.14,6.12,1.16,8.65,3.06,2.85,2.22,4.16,5.99,3.93,11.32l-.09,2.11c-.16,3.67-.62,7.88-1.38,12.63-.7,4.33-1.51,7.75-2.43,10.28l-9.57-2.46c1.26-4.56,2.21-9.07,2.83-13.53,.55-3.86,.87-6.8,.96-8.8,.1-2.39-.49-4.01-1.78-4.88-.88-.46-2.23-.74-4.07-.82-1.97,.17-4.08,.46-6.32,.88,.03,.34,.06,.67,.09,.96,3.53,.28,7.08,.75,10.64,1.42l-1.12,8.15c-2.93-.47-5.88-.87-8.85-1.21,.16,1.25,.3,2.49,.42,3.74,2.19-.38,4.31-.84,6.34-1.39l2.21,8.3c-2.43,.79-5.02,1.43-7.77,1.91,.13,1.84,.29,3.67,.47,5.47l-9.7,.61c-1.34-12.49-2.45-24.99-3.32-37.5l9.83-.67Zm11.56-18.47c.35,2.75,1.04,5.54,2.08,8.36,4.13,.31,8.19,.7,12.19,1.17,1.86-3.64,3.52-6.88,4.97-9.72l9.51,3.74c-1.43,2.42-2.68,4.8-3.77,7.14,3.4,.4,6.78,.85,10.13,1.33l-1.92,8.95c-19.89-2.31-37.11-3.91-51.64-4.79l1.99-8.95c2.56,.11,5.12,.24,7.67,.39-.44-1.73-.79-3.47-1.06-5.24l9.84-2.4Zm22.03,24.08c.42,8.18,.88,17.17,1.4,26.97l-9.83,.54c-.5-10.15-.97-19.14-1.4-26.97l9.83-.54Zm12.32-1.78c.64,2.04,1.1,7.27,1.37,15.7,.61,10.54,.85,17.36,.72,20.47l-9.83,.67c.07-9.65-.17-16.93-.73-21.82-.21-5.01-.62-9.83-1.23-14.47l9.7-.54Z" style="fill: none; stroke: #f1980b; stroke-linecap: round; stroke-linejoin: round; stroke-width: 6.74px;"/>
          <path d="M356.25,102.11c.02,.43,.05,.83,.08,1.22,3.28-.67,6.6-.93,9.97-.79,3.24,.14,6.12,1.16,8.65,3.06,2.85,2.22,4.16,5.99,3.93,11.32l-.09,2.11c-.16,3.67-.62,7.88-1.38,12.63-.7,4.33-1.51,7.75-2.43,10.28l-9.57-2.46c1.26-4.56,2.21-9.07,2.83-13.53,.55-3.86,.87-6.8,.96-8.8,.1-2.39-.49-4.01-1.78-4.88-.88-.46-2.23-.74-4.07-.82-1.97,.17-4.08,.46-6.32,.88,.03,.34,.06,.67,.09,.96,3.53,.28,7.08,.75,10.64,1.42l-1.12,8.15c-2.93-.47-5.88-.87-8.85-1.21,.16,1.25,.3,2.49,.42,3.74,2.19-.38,4.31-.84,6.34-1.39l2.21,8.3c-2.43,.79-5.02,1.43-7.77,1.91,.13,1.84,.29,3.67,.47,5.47l-9.7,.61c-1.34-12.49-2.45-24.99-3.32-37.5l9.83-.67Zm11.56-18.47c.35,2.75,1.04,5.54,2.08,8.36,4.13,.31,8.19,.7,12.19,1.17,1.86-3.64,3.52-6.88,4.97-9.72l9.51,3.74c-1.43,2.42-2.68,4.8-3.77,7.14,3.4,.4,6.78,.85,10.13,1.33l-1.92,8.95c-19.89-2.31-37.11-3.91-51.64-4.79l1.99-8.95c2.56,.11,5.12,.24,7.67,.39-.44-1.73-.79-3.47-1.06-5.24l9.84-2.4Zm22.03,24.08c.42,8.18,.88,17.17,1.4,26.97l-9.83,.54c-.5-10.15-.97-19.14-1.4-26.97l9.83-.54Zm12.32-1.78c.64,2.04,1.1,7.27,1.37,15.7,.61,10.54,.85,17.36,.72,20.47l-9.83,.67c.07-9.65-.17-16.93-.73-21.82-.21-5.01-.62-9.83-1.23-14.47l9.7-.54Z" style="fill: #1cbab8;"/>
          <path d="M356.25,102.11c.02,.43,.05,.83,.08,1.22,3.28-.67,6.6-.93,9.97-.79,3.24,.14,6.12,1.16,8.65,3.06,2.85,2.22,4.16,5.99,3.93,11.32l-.09,2.11c-.16,3.67-.62,7.88-1.38,12.63-.7,4.33-1.51,7.75-2.43,10.28l-9.57-2.46c1.26-4.56,2.21-9.07,2.83-13.53,.55-3.86,.87-6.8,.96-8.8,.1-2.39-.49-4.01-1.78-4.88-.88-.46-2.23-.74-4.07-.82-1.97,.17-4.08,.46-6.32,.88,.03,.34,.06,.67,.09,.96,3.53,.28,7.08,.75,10.64,1.42l-1.12,8.15c-2.93-.47-5.88-.87-8.85-1.21,.16,1.25,.3,2.49,.42,3.74,2.19-.38,4.31-.84,6.34-1.39l2.21,8.3c-2.43,.79-5.02,1.43-7.77,1.91,.13,1.84,.29,3.67,.47,5.47l-9.7,.61c-1.34-12.49-2.45-24.99-3.32-37.5l9.83-.67Zm11.56-18.47c.35,2.75,1.04,5.54,2.08,8.36,4.13,.31,8.19,.7,12.19,1.17,1.86-3.64,3.52-6.88,4.97-9.72l9.51,3.74c-1.43,2.42-2.68,4.8-3.77,7.14,3.4,.4,6.78,.85,10.13,1.33l-1.92,8.95c-19.89-2.31-37.11-3.91-51.64-4.79l1.99-8.95c2.56,.11,5.12,.24,7.67,.39-.44-1.73-.79-3.47-1.06-5.24l9.84-2.4Zm22.03,24.08c.42,8.18,.88,17.17,1.4,26.97l-9.83,.54c-.5-10.15-.97-19.14-1.4-26.97l9.83-.54Zm12.32-1.78c.64,2.04,1.1,7.27,1.37,15.7,.61,10.54,.85,17.36,.72,20.47l-9.83,.67c.07-9.65-.17-16.93-.73-21.82-.21-5.01-.62-9.83-1.23-14.47l9.7-.54Z" style="fill: #f1980b;"/>
          <path d="M356.25,102.11c.02,.43,.05,.83,.08,1.22,3.28-.67,6.6-.93,9.97-.79,3.24,.14,6.12,1.16,8.65,3.06,2.85,2.22,4.16,5.99,3.93,11.32l-.09,2.11c-.16,3.67-.62,7.88-1.38,12.63-.7,4.33-1.51,7.75-2.43,10.28l-9.57-2.46c1.26-4.56,2.21-9.07,2.83-13.53,.55-3.86,.87-6.8,.96-8.8,.1-2.39-.49-4.01-1.78-4.88-.88-.46-2.23-.74-4.07-.82-1.97,.17-4.08,.46-6.32,.88,.03,.34,.06,.67,.09,.96,3.53,.28,7.08,.75,10.64,1.42l-1.12,8.15c-2.93-.47-5.88-.87-8.85-1.21,.16,1.25,.3,2.49,.42,3.74,2.19-.38,4.31-.84,6.34-1.39l2.21,8.3c-2.43,.79-5.02,1.43-7.77,1.91,.13,1.84,.29,3.67,.47,5.47l-9.7,.61c-1.34-12.49-2.45-24.99-3.32-37.5l9.83-.67Zm11.56-18.47c.35,2.75,1.04,5.54,2.08,8.36,4.13,.31,8.19,.7,12.19,1.17,1.86-3.64,3.52-6.88,4.97-9.72l9.51,3.74c-1.43,2.42-2.68,4.8-3.77,7.14,3.4,.4,6.78,.85,10.13,1.33l-1.92,8.95c-19.89-2.31-37.11-3.91-51.64-4.79l1.99-8.95c2.56,.11,5.12,.24,7.67,.39-.44-1.73-.79-3.47-1.06-5.24l9.84-2.4Zm22.03,24.08c.42,8.18,.88,17.17,1.4,26.97l-9.83,.54c-.5-10.15-.97-19.14-1.4-26.97l9.83-.54Zm12.32-1.78c.64,2.04,1.1,7.27,1.37,15.7,.61,10.54,.85,17.36,.72,20.47l-9.83,.67c.07-9.65-.17-16.93-.73-21.82-.21-5.01-.62-9.83-1.23-14.47l9.7-.54Z" style="fill: none; stroke: #fff; stroke-linecap: round; stroke-linejoin: round; stroke-width: 2.41px;"/>
        </g>
        <g>
          <path d="M336.62,86.31l2.08,9c-6.47,.22-13,.43-19.59,.63,1.28,1.99,2.36,4,3.25,6.04,4.77,.37,9.55,.82,14.34,1.36v9.86c-3.75-.42-7.46-.79-11.16-1.13,.15,1.35,.23,2.75,.23,4.22,4.34,.02,8.72,.01,13.14,0l-.16,10.55c-4.6,.04-9.18,.04-13.72,0-.96,5.43-2.73,9.36-5.32,11.77-3.86,3.35-8.41,4.72-13.67,4.13-4.62-.52-8.33-1.19-11.11-2.02l-.1-11.09c4.1,.98,7.63,1.63,10.6,1.97,2.42,.27,4.35-.33,5.81-1.79,.98-.71,1.74-1.76,2.29-3.16-10.92-.28-21.85-.85-32.8-1.69l.09-10.55c11.07,.82,22.37,1.38,33.89,1.69-.06-1.73-.29-3.34-.68-4.84-9.72-.62-19.51-.91-29.35-.86v-9.73c8-.13,16.19,.04,24.55,.51-1.01-1.7-2.12-3.29-3.33-4.76-6.08,.22-12.25,.43-18.5,.62l-1.55-9.13c17.87-.82,34.79-1.34,50.75-1.57Z" style="fill: none; stroke: #f1980b; stroke-linecap: round; stroke-linejoin: round; stroke-width: 6.74px;"/>
          <path d="M336.62,86.31l2.08,9c-6.47,.22-13,.43-19.59,.63,1.28,1.99,2.36,4,3.25,6.04,4.77,.37,9.55,.82,14.34,1.36v9.86c-3.75-.42-7.46-.79-11.16-1.13,.15,1.35,.23,2.75,.23,4.22,4.34,.02,8.72,.01,13.14,0l-.16,10.55c-4.6,.04-9.18,.04-13.72,0-.96,5.43-2.73,9.36-5.32,11.77-3.86,3.35-8.41,4.72-13.67,4.13-4.62-.52-8.33-1.19-11.11-2.02l-.1-11.09c4.1,.98,7.63,1.63,10.6,1.97,2.42,.27,4.35-.33,5.81-1.79,.98-.71,1.74-1.76,2.29-3.16-10.92-.28-21.85-.85-32.8-1.69l.09-10.55c11.07,.82,22.37,1.38,33.89,1.69-.06-1.73-.29-3.34-.68-4.84-9.72-.62-19.51-.91-29.35-.86v-9.73c8-.13,16.19,.04,24.55,.51-1.01-1.7-2.12-3.29-3.33-4.76-6.08,.22-12.25,.43-18.5,.62l-1.55-9.13c17.87-.82,34.79-1.34,50.75-1.57Z" style="fill: #fff;"/>
          <path d="M336.62,86.31l2.08,9c-6.47,.22-13,.43-19.59,.63,1.28,1.99,2.36,4,3.25,6.04,4.77,.37,9.55,.82,14.34,1.36v9.86c-3.75-.42-7.46-.79-11.16-1.13,.15,1.35,.23,2.75,.23,4.22,4.34,.02,8.72,.01,13.14,0l-.16,10.55c-4.6,.04-9.18,.04-13.72,0-.96,5.43-2.73,9.36-5.32,11.77-3.86,3.35-8.41,4.72-13.67,4.13-4.62-.52-8.33-1.19-11.11-2.02l-.1-11.09c4.1,.98,7.63,1.63,10.6,1.97,2.42,.27,4.35-.33,5.81-1.79,.98-.71,1.74-1.76,2.29-3.16-10.92-.28-21.85-.85-32.8-1.69l.09-10.55c11.07,.82,22.37,1.38,33.89,1.69-.06-1.73-.29-3.34-.68-4.84-9.72-.62-19.51-.91-29.35-.86v-9.73c8-.13,16.19,.04,24.55,.51-1.01-1.7-2.12-3.29-3.33-4.76-6.08,.22-12.25,.43-18.5,.62l-1.55-9.13c17.87-.82,34.79-1.34,50.75-1.57Z" style="fill: none; stroke: #f1980b; stroke-linecap: round; stroke-linejoin: round; stroke-width: 1.92px;"/>
        </g>
        <path d="M259.49,140.91c-.45-.17-.89-.36-1.35-.52-.11-.04-.24-.06-.35-.02-2.06,.62-3.37,0-4.14-1.96-.01-.03-.04-.05-.07-.1-.87,.57-1.81,.73-2.8,.37-1-.37-1.59-1.12-1.89-2.16-1.33,.8-2.62,.83-3.79-.21-1.1-.98-1.25-2.22-.69-3.59-.07-.04-.13-.08-.2-.1-1.22-.45-1.91-1.31-2.07-2.6-.02-.16-.12-.35-.25-.46-.9-.78-1.62-1.69-2.23-2.71-.12-.2-.41-.29-.69-.47-.06,.26-.1,.39-.13,.52-.11,.47-.41,.71-.87,.66-1.21-.14-2.42-.3-3.63-.46-.53-.07-.77-.42-.7-.98,.5-4,1-7.99,1.51-11.99,.17-1.32,.33-2.64,.49-3.97,.1-.88,.36-1.09,1.23-.97,.98,.13,1.95,.25,2.93,.37,1.02,.13,1.15,.29,1.04,1.33-.01,.14-.03,.28-.05,.45,1.11,.2,2.19,.32,3.33,.07,2.44-.55,4.9-1.02,7.35-1.52,1.16-.24,2.31-.11,3.42,.27,.55,.19,1.08,.43,1.63,.58,.24,.07,.55,.05,.78-.04,1.03-.39,2.03-.89,3.08-1.22,1.21-.38,2.46-.08,3.68,.04,2.16,.21,4.32,.49,6.49,.63,.8,.05,1.62-.22,2.48-.35-.08-.35-.14-.6-.19-.86-.11-.52,.07-.88,.58-1,1.17-.29,2.34-.56,3.52-.81,.61-.13,.9,.08,1.05,.71,.54,2.35,1.07,4.71,1.61,7.06,.65,2.84,1.3,5.68,1.95,8.52,.01,.06,.06,.1,.09,.16l.03,.66c-.21,.17-.41,.42-.65,.48-1.18,.31-2.37,.57-3.56,.83-.46,.1-.79-.1-.94-.56-.04-.13-.09-.26-.13-.37-.46-.02-.61,.24-.82,.58-.54,.91-1.17,1.77-1.75,2.65-.13,.21-.27,.46-.27,.69-.04,1.29-.82,2.42-2.06,2.79-.47,.14-.98,.14-1.51,.21-.02,.9-.33,1.71-1.05,2.34-.73,.63-1.59,.81-2.54,.7-.02,1-.34,1.8-1.06,2.42-.73,.63-1.59,.82-2.54,.69-.01,.95-.27,1.78-.98,2.35-.42,.33-.94,.53-1.42,.79l-.94,.05Zm-2.5-7.78c.08-.04,.12-.05,.16-.08,2.04-1.15,4.22-.09,4.6,2.21,.02,.14,.14,.3,.25,.4,.18,.15,.4,.25,.6,.36,.78,.43,1.66,.21,2.08-.52,.43-.73,.2-1.6-.56-2.08-.53-.33-1.08-.64-1.61-.96-.73-.43-1.45-.86-2.18-1.3-.31-.19-.52-.48-.37-.82,.1-.24,.36-.48,.6-.56,.19-.06,.48,.07,.69,.19,1.62,.95,3.23,1.91,4.85,2.87,.85,.5,1.76,.3,2.2-.47,.43-.76,.16-1.62-.67-2.12-.91-.55-1.83-1.09-2.75-1.63-.77-.46-1.55-.89-2.29-1.39-.2-.14-.38-.49-.36-.73,.02-.22,.27-.52,.49-.59,.22-.07,.55,.03,.78,.16,1.48,.85,2.94,1.73,4.41,2.6,.66,.39,1.31,.8,1.99,1.16,.56,.3,1.13,.24,1.63-.16,.5-.4,.65-.94,.5-1.56-.12-.48-.45-.77-.85-1.01-2.68-1.59-5.36-3.18-8.04-4.76-.2-.12-.43-.19-.65-.24-2.08-.45-3.6-1.61-4.52-3.54-.06-.12-.13-.24-.19-.37-.81,.21-1.6,.39-2.38,.62-.18,.05-.37,.22-.48,.39-.37,.56-.68,1.16-1.05,1.73-.87,1.33-2.11,1.95-3.68,1.76-2.43-.3-3.13-2.34-2.03-3.96,.76-1.11,1.42-2.29,2.06-3.47,.59-1.08,1.4-1.85,2.54-2.32,.75-.31,1.47-.71,2.28-1.12-1.1-.49-2.15-.68-3.24-.47-2.3,.45-4.6,.92-6.89,1.42-1.17,.25-2.33,.46-3.52,.19-.24-.05-.49-.05-.77-.08-.5,4.05-1,8.05-1.51,12.08,.16,.03,.28,.07,.4,.07,.72,0,1.17,.3,1.47,.99,.36,.81,.93,1.51,1.57,2.08,.6-.57,1.16-1.12,1.73-1.65,.58-.55,1.15-1.12,1.77-1.62,1.66-1.34,4.16-.54,4.71,1.52,.14,.53,.07,1.11,.1,1.68,1.51,.3,2.36,1.26,2.57,2.79,2.14,.06,2.87,.54,3.56,2.32Zm19.13-10.01c-.91-3.97-1.8-7.91-2.71-11.88-.21,.04-.37,.07-.54,.11-.66,.13-1.33,.4-1.97,.35-2.48-.19-4.95-.46-7.42-.74-1.38-.15-2.74-.25-4.04,.4-2.17,1.08-4.36,2.11-6.53,3.21-.41,.21-.81,.56-1.06,.95-.88,1.39-1.7,2.82-2.53,4.24-.33,.56-.19,.99,.4,1.26,1.02,.47,2.22,.13,2.84-.85,.44-.7,.83-1.44,1.29-2.13,.17-.25,.46-.48,.74-.56,1.08-.32,2.17-.58,3.26-.87,.72-.19,1-.03,1.23,.68,.82,2.54,3.37,3.94,5.96,3.3,.94-.23,1.72-.73,2.47-1.3,.17-.13,.35-.27,.53-.39,.38-.24,.8-.18,1.05,.14,.26,.34,.2,.79-.18,1.08-1,.76-2,1.54-3.36,1.87,2.52,1.59,5.07,2.92,7.48,4.55,.62-.7,1.12-1.56,1.46-2.51,.14-.39,.36-.65,.78-.71,.27-.04,.54-.13,.85-.21Zm-39.02-12.4c-.62,4.99-1.24,9.96-1.86,14.95,.79,.1,1.49,.18,2.24,.27,.62-4.99,1.24-9.94,1.86-14.94-.75-.1-1.46-.19-2.24-.29Zm37.4-1.48c1.12,4.91,2.23,9.78,3.35,14.68,.75-.17,1.45-.33,2.2-.51-1.13-4.93-2.24-9.8-3.35-14.69-.76,.18-1.44,.33-2.2,.51Zm-22.49,21.78s-.08-.04-.12-.07c-.04-.6-.33-1.05-.88-1.28-.58-.24-1.14-.17-1.62,.26-1.1,1.01-2.19,2.01-3.27,3.04-.64,.61-.66,1.54-.08,2.15,.57,.6,1.47,.64,2.11,.05,1.1-1,2.2-2,3.26-3.05,.28-.28,.4-.73,.6-1.11Zm-2.57-3.68c-.09-.83-.36-1.28-.91-1.52-.6-.26-1.17-.16-1.65,.28-.91,.84-1.82,1.68-2.72,2.53-.62,.59-.66,1.5-.11,2.12,.57,.64,1.47,.69,2.14,.09,.93-.84,1.86-1.68,2.74-2.57,.28-.29,.41-.73,.51-.94Zm5.64,10.22c.04,.75,.33,1.19,.87,1.44,.58,.26,1.14,.19,1.62-.24,.76-.68,1.51-1.37,2.23-2.08,.62-.6,.63-1.51,.07-2.11-.58-.62-1.48-.66-2.14-.06-.73,.66-1.45,1.34-2.17,2.01-.34,.32-.51,.71-.48,1.04Zm-3.14-.14c.27-.12,.58-.17,.79-.36,.83-.73,1.66-1.48,2.44-2.26,.54-.55,.48-1.45-.04-2.01-.52-.56-1.41-.66-2-.15-.83,.71-1.62,1.47-2.4,2.23-.44,.43-.51,1.11-.23,1.66,.29,.57,.77,.84,1.43,.89Zm7.32,1.85c.72,.24,1.26,.08,1.7-.4,.38-.42,.46-.97,.22-1.41-.62,.59-1.24,1.17-1.92,1.81Z" style="fill: #fff; stroke: #fff; stroke-linecap: round; stroke-linejoin: round; stroke-width: .96px;"/>
        <g>
          <path d="M428.17,108.04l2.37,10.38c-1.79,.23-3.56,.48-5.3,.76-.01,6.23-.04,12.71-.06,19.45l-10.81-.12c-.02-5.93,0-11.81,.05-17.65-1.01,.19-2.02,.38-3.03,.56l-1.91-10.52c6.58-1.19,12.81-2.14,18.68-2.86Zm-.73-14.71l2.87,8.83c-4.5,1.08-9.53,2.24-15.08,3.46l-3.03-9.1c5.39-1.37,10.47-2.43,15.24-3.18Zm8.61-3.22c10.88,1.78,21.33,3.73,31.36,5.85l-1.89,9.39c-11.26-2.25-21.93-4.31-32.03-6.18l2.57-9.05Zm31.61,21.4l-.09,10.56c-3.74-.38-7.44-.69-11.11-.93,0,8.07,.56,53.93,.63,62.83l-11.33-.05c-.15-8.61-.71-54.55-.6-63.09-4.42-.07-8.77,.04-13.05,.34l.09-10.56c12.47-.49,24.29-.19,35.46,.9Z" style="fill: none; stroke: #f1980b; stroke-linecap: round; stroke-linejoin: round; stroke-width: 6.74px;"/>
          <path d="M428.17,108.04l2.37,10.38c-1.79,.23-3.56,.48-5.3,.76-.01,6.23-.04,12.71-.06,19.45l-10.81-.12c-.02-5.93,0-11.81,.05-17.65-1.01,.19-2.02,.38-3.03,.56l-1.91-10.52c6.58-1.19,12.81-2.14,18.68-2.86Zm-.73-14.71l2.87,8.83c-4.5,1.08-9.53,2.24-15.08,3.46l-3.03-9.1c5.39-1.37,10.47-2.43,15.24-3.18Zm8.61-3.22c10.88,1.78,21.33,3.73,31.36,5.85l-1.89,9.39c-11.26-2.25-21.93-4.31-32.03-6.18l2.57-9.05Zm31.61,21.4l-.09,10.56c-3.74-.38-7.44-.69-11.11-.93,0,8.07,.56,53.93,.63,62.83l-11.33-.05c-.15-8.61-.71-54.55-.6-63.09-4.42-.07-8.77,.04-13.05,.34l.09-10.56c12.47-.49,24.29-.19,35.46,.9Z" style="fill: none; stroke: #fff; stroke-linecap: round; stroke-linejoin: round; stroke-width: 4.33px;"/>
          <path d="M428.17,108.04l2.37,10.38c-1.79,.23-3.56,.48-5.3,.76-.01,6.23-.04,12.71-.06,19.45l-10.81-.12c-.02-5.93,0-11.81,.05-17.65-1.01,.19-2.02,.38-3.03,.56l-1.91-10.52c6.58-1.19,12.81-2.14,18.68-2.86Zm-.73-14.71l2.87,8.83c-4.5,1.08-9.53,2.24-15.08,3.46l-3.03-9.1c5.39-1.37,10.47-2.43,15.24-3.18Zm8.61-3.22c10.88,1.78,21.33,3.73,31.36,5.85l-1.89,9.39c-11.26-2.25-21.93-4.31-32.03-6.18l2.57-9.05Zm31.61,21.4l-.09,10.56c-3.74-.38-7.44-.69-11.11-.93,0,8.07,.56,53.93,.63,62.83l-11.33-.05c-.15-8.61-.71-54.55-.6-63.09-4.42-.07-8.77,.04-13.05,.34l.09-10.56c12.47-.49,24.29-.19,35.46,.9Z" style="fill: #f1980b;"/>
          <path d="M428.17,108.04l2.37,10.38c-1.79,.23-3.56,.48-5.3,.76-.01,6.23-.04,12.71-.06,19.45l-10.81-.12c-.02-5.93,0-11.81,.05-17.65-1.01,.19-2.02,.38-3.03,.56l-1.91-10.52c6.58-1.19,12.81-2.14,18.68-2.86Zm-.73-14.71l2.87,8.83c-4.5,1.08-9.53,2.24-15.08,3.46l-3.03-9.1c5.39-1.37,10.47-2.43,15.24-3.18Zm8.61-3.22c10.88,1.78,21.33,3.73,31.36,5.85l-1.89,9.39c-11.26-2.25-21.93-4.31-32.03-6.18l2.57-9.05Zm31.61,21.4l-.09,10.56c-3.74-.38-7.44-.69-11.11-.93,0,8.07,.56,53.93,.63,62.83l-11.33-.05c-.15-8.61-.71-54.55-.6-63.09-4.42-.07-8.77,.04-13.05,.34l.09-10.56c12.47-.49,24.29-.19,35.46,.9Z" style="fill: none; stroke: #fff; stroke-linecap: round; stroke-linejoin: round; stroke-width: 1.92px;"/>
        </g>
        <g>
          <path d="M429.92,166.23c8.73,.74,17.23,6.68,19.6,13.92,1.45-11.26-9.68-20.05-26.77-16.23,3.15,4.79,3.81,9.93,8.29,13.88,4.48,3.93,10.51,5.61,16.39,4.58-2.22-7.4-9.26-14.05-17.52-16.15h0Z" style="fill: none; stroke: #fff; stroke-linecap: round; stroke-linejoin: round; stroke-width: 6.74px;"/>
          <path d="M429.92,166.23c8.73,.74,17.23,6.68,19.6,13.92,1.45-11.26-9.68-20.05-26.77-16.23,3.15,4.79,3.81,9.93,8.29,13.88,4.48,3.93,10.51,5.61,16.39,4.58-2.22-7.4-9.26-14.05-17.52-16.15h0Z" style="fill: #bad50c;"/>
        </g>
      </g>
    </g>
  </g>
</svg>